<?xml version="1.0" encoding="utf-8"?>
<!-- Generator: Adobe Illustrator 15.0.2, SVG Export Plug-In . SVG Version: 6.00 Build 0)  -->
<!DOCTYPE svg PUBLIC "-//W3C//DTD SVG 1.1//EN" "http://www.w3.org/Graphics/SVG/1.1/DTD/svg11.dtd">
<svg version="1.1" id="Layer_1" xmlns="http://www.w3.org/2000/svg" xmlns:xlink="http://www.w3.org/1999/xlink" x="0px" y="0px"
	 width="144px" height="144px" viewBox="0 0 144 144" enable-background="new 0 0 144 144" xml:space="preserve">
<g>
	<g>
		<path d="M109.797,55.7h-6.694v32.681h7.496c3.073,0,4.609-1.577,4.609-4.733V61.981C115.208,57.793,113.404,55.7,109.797,55.7z
			 M111.36,82.964c0,0.972-0.508,1.457-1.523,1.457h-2.886V59.66h2.686c1.148,0,1.724,0.789,1.724,2.366V82.964z M44.42,55.58
			h-2.886c-3.073,0-4.609,1.866-4.609,5.599v27.082h3.848V76.29h4.409v11.971h3.848V61.179C49.029,57.446,47.492,55.58,44.42,55.58z
			 M45.182,72.33h-4.409V61.452c0-1.275,0.562-1.912,1.684-1.912h1.042c1.122,0,1.684,0.637,1.684,1.912V72.33z M24.614,88.261
			h9.539v-3.959h-5.691V73.423h5.051v-3.96h-5.051V59.54h5.691v-3.96h-9.539V88.261z M1.08,88.261h3.848V55.58H1.08V88.261z
			 M139.203,55.7v17.038L135.38,55.7h-4.285v32.697h3.717V71.359v-1.513l4.505,18.551h3.604V55.7H139.203z M76.514,54.694
			c-9.542,0-17.306,7.764-17.306,17.306s7.764,17.305,17.306,17.305c9.543,0,17.306-7.763,17.306-17.305
			S86.057,54.694,76.514,54.694z M76.513,85.946c-0.824,0-1.677-0.205-1.677-0.205l-0.961-1.294c0,0,1.514-0.043,2.902-0.249
			c1.674-0.249,3.157-0.728,3.157-0.728l-1.766,2.271C78.169,85.741,77.238,85.946,76.513,85.946z M76.71,83.39
			c-2.559,0.377-4.539,0.252-4.539,0.252l0.659-0.808c0.323-0.018,2.271-0.101,3.977-0.363c1.976-0.304,3.243-0.773,3.49-0.804
			l1.057,0.476C81.354,82.143,79.497,82.979,76.71,83.39z M72.381,77.921c0.636,0.167,1.789,0.452,4.014,0.423
			c2.06-0.026,3.303-0.262,4.029-0.423c-0.013,0.204,0.012,0.24,0.012,0.24l0.948,0.543c0,0-1.845,0.708-4.663,1.041
			c-3.34,0.396-5.028,0.203-5.028,0.203l0.763-0.867C72.455,79.081,72.401,78.243,72.381,77.921z M80.478,79.822l1.021,0.548
			c0,0-1.886,0.821-4.771,1.248c-2.971,0.438-4.831,0.282-4.831,0.282l0.8-1c0.153-0.005,2.417-0.068,4.089-0.295
			C79.096,80.292,80.247,79.866,80.478,79.822z M81.089,75.119c-0.139,0.877-0.267,1.839-0.834,1.969
			c-1.118,0.243-1.953,0.375-3.761,0.375c-2.212,0-3.525-0.265-3.912-0.375c-0.685-0.145-0.542-1.203-0.655-1.969
			c-0.17-1.142-2.483-4.434-2.992-6.133h0.001c-0.314-0.871-0.485-1.812-0.485-2.793c0-4.506,3.61-8.159,8.063-8.159
			s8.063,3.653,8.063,8.159c0,1.078-0.207,2.107-0.583,3.049C83.387,70.927,81.248,74.113,81.089,75.119z M62.807,72.887l0.94-0.975
			l-2.741-1.721l4.604,1.247l-0.938,0.984l2.72,1.661L62.807,72.887z M85.452,74.354l3.097-1.892l-1.067-1.121l5.244-1.421
			l-3.121,1.96l1.07,1.109L85.452,74.354z M118.463,88.381h9.539v-3.96h-5.691V73.542h5.051v-3.96h-5.051V59.66h5.691V55.7h-9.539
			V88.381z M15.341,55.58H8.646v32.681h7.496c3.072,0,4.609-1.577,4.609-4.733V61.861C20.752,57.674,18.948,55.58,15.341,55.58z
			 M16.903,82.844c0,0.973-0.508,1.458-1.522,1.458h-2.886V59.54h2.686c1.148,0,1.723,0.789,1.723,2.367V82.844z M99.701,73.05
			c0.016-0.349,0.024-0.698,0.024-1.05c0-0.353-0.009-0.702-0.024-1.05l-2.303-1.478c-0.062-0.516-0.143-1.025-0.241-1.529
			l1.737-2.114c-0.186-0.678-0.402-1.342-0.646-1.992l-2.648-0.69c-0.218-0.47-0.453-0.93-0.704-1.38l0.994-2.549
			c-0.386-0.585-0.797-1.15-1.233-1.696l-2.732,0.161c-0.351-0.377-0.716-0.742-1.094-1.094l0.161-2.731
			c-0.545-0.437-1.111-0.849-1.695-1.234l-2.55,0.995c-0.449-0.251-0.909-0.486-1.379-0.704l-0.69-2.649
			c-0.65-0.244-1.315-0.46-1.992-0.646l-2.115,1.737c-0.503-0.098-1.014-0.179-1.528-0.24l-1.478-2.303
			c-0.349-0.016-0.698-0.025-1.05-0.025s-0.702,0.01-1.05,0.025l-1.478,2.303c-0.516,0.062-1.025,0.143-1.528,0.24l-2.115-1.737
			c-0.677,0.187-1.342,0.402-1.992,0.646l-0.69,2.649c-0.47,0.218-0.93,0.453-1.38,0.704l-2.549-0.995
			c-0.584,0.386-1.15,0.798-1.696,1.234l0.162,2.731c-0.378,0.352-0.743,0.717-1.094,1.094l-2.732-0.161
			c-0.437,0.546-0.848,1.111-1.234,1.696l0.995,2.549c-0.251,0.45-0.486,0.91-0.704,1.38l-2.648,0.69
			c-0.244,0.65-0.461,1.314-0.647,1.992l1.738,2.114c-0.099,0.504-0.179,1.014-0.241,1.529l-2.303,1.478
			c-0.016,0.348-0.024,0.697-0.024,1.05c0,0.352,0.009,0.701,0.024,1.05l2.303,1.478c0.062,0.516,0.143,1.024,0.241,1.528
			l-1.738,2.115c0.187,0.677,0.402,1.342,0.647,1.992l2.648,0.69c0.218,0.47,0.453,0.93,0.704,1.379l-0.995,2.551
			c0.387,0.584,0.798,1.149,1.234,1.695l2.731-0.162c0.352,0.378,0.717,0.743,1.095,1.095l-0.162,2.731
			c0.546,0.437,1.111,0.848,1.696,1.234l2.549-0.994c0.45,0.25,0.91,0.485,1.38,0.703l0.69,2.648
			c0.65,0.245,1.315,0.461,1.992,0.646l2.115-1.737c0.503,0.099,1.013,0.18,1.528,0.241l1.478,2.303
			c0.348,0.016,0.698,0.025,1.05,0.025s0.701-0.01,1.05-0.025l1.477-2.303c0.516-0.062,1.025-0.143,1.529-0.241l2.115,1.737
			c0.677-0.186,1.341-0.401,1.992-0.646l0.69-2.648c0.469-0.218,0.93-0.453,1.379-0.703l2.55,0.994
			c0.584-0.387,1.15-0.798,1.695-1.234l-0.161-2.731c0.378-0.352,0.743-0.717,1.094-1.095l2.732,0.162
			c0.436-0.546,0.848-1.111,1.233-1.695l-0.994-2.55c0.251-0.45,0.486-0.91,0.704-1.38l2.648-0.69
			c0.244-0.65,0.461-1.315,0.646-1.992l-1.737-2.115c0.099-0.504,0.179-1.013,0.241-1.528L99.701,73.05z M76.514,90.359
			c-10.14,0-18.359-8.22-18.359-18.359s8.22-18.359,18.359-18.359S94.873,61.86,94.873,72S86.653,90.359,76.514,90.359z
			 M76.874,75.852c0.004,0.085-0.026,0.199-0.045,0.287c-0.064,0.007-0.091-0.025-0.106-0.067c-0.015,0.033-0.072,0.024-0.091,0
			c-0.002-0.023,0.017-0.023,0.015-0.046c-0.046-0.01-0.053,0.018-0.091,0.016c-0.002-0.049,0.041-0.05,0.061-0.076
			c0.045-0.004,0.073,0.008,0.106,0.016C76.757,75.921,76.793,75.863,76.874,75.852z M76.874,76.959
			c0.011,0.003,0.019,0.068-0.007,0.061C76.868,76.998,76.862,76.97,76.874,76.959z M76.769,76.207c0.041,0.261,0.022,0.645,0,0.881
			C76.802,76.795,76.702,76.471,76.769,76.207z M76.973,75.669c-0.192-0.251-0.786-0.233-1.001-0.016
			c-0.044-0.104-0.056-0.241-0.159-0.288c-0.031,0.145,0.034,0.229,0.046,0.364c0.004,0.019,0.048-0.003,0.045,0.023
			c-0.004,0.074,0.005,0.137,0.008,0.204c0.045-0.01,0.064,0.069,0.03,0.091c-0.013-0.022-0.019-0.052-0.038-0.067
			c-0.146,0.292-0.01,0.778-0.038,1.1c-0.021-0.003-0.041-0.005-0.062-0.008c0.008,0.007,0.017,0.016,0.024,0.023
			c0.016,0.019,0.028,0.036,0.04,0.055c0.191-0.005,0.38,0.006,0.571,0.03c0.15-0.012,0.304,0.002,0.453-0.006
			c0.027-0.002,0.055-0.004,0.082-0.006c0.006-0.001,0.01-0.001,0.013-0.002c0.004-0.001,0.007-0.001,0.011-0.001
			c0.03-0.007,0.061-0.013,0.089-0.022c0.002,0,0.004-0.001,0.006-0.002v-0.001c0.007-0.038,0.021-0.071,0.041-0.099
			c-0.014,0-0.026,0-0.039,0c0.077-0.589-0.104-1.174,0.061-1.699C77.046,75.374,77.038,75.569,76.973,75.669z M77.011,77.095
			c-0.042,0.008-0.107,0.028-0.129-0.007c-0.031,0.001-0.025,0.039-0.053,0.045c-0.199-0.002-0.474-0.002-0.706,0.008
			c-0.019-0.014-0.033-0.032-0.037-0.061c-0.034,0.018-0.099,0.032-0.137,0.022c-0.064-0.307-0.114-0.673,0.038-0.91
			c0.01-0.013,0.043-0.002,0.053-0.015c-0.029-0.236-0.129-0.518,0.159-0.486c0.014,0.027-0.061,0.024-0.038,0.084
			c0.045-0.014,0.068-0.048,0.092-0.084c0.216-0.003,0.482-0.047,0.576,0.114c0.038-0.024-0.015-0.063,0.007-0.092
			c0.262,0.031,0.033,0.285,0.084,0.44c0.029,0.002,0.011-0.044,0.053-0.03C77.107,76.382,77.056,76.776,77.011,77.095z
			 M80.286,61.894c-0.408-0.322-0.904-0.575-1.475-0.753c-0.565-0.177-1.172-0.267-1.804-0.267c-0.959,0-1.844,0.183-2.629,0.544
			c-0.787,0.362-1.47,0.898-2.03,1.595c-0.386,0.483-0.682,1.022-0.88,1.602c-0.199,0.578-0.3,1.197-0.3,1.84
			c0,0.78,0.149,1.489,0.443,2.106c0.294,0.619,0.744,1.166,1.338,1.628c0.466,0.367,1.011,0.648,1.618,0.835
			c0.604,0.186,1.277,0.28,2.004,0.28c0.707,0,1.391-0.112,2.034-0.333c0.645-0.221,1.258-0.555,1.823-0.992l0.119-0.093
			l-0.548-0.826l-0.131,0.093c-0.483,0.343-1.016,0.607-1.584,0.788c-0.567,0.18-1.159,0.271-1.758,0.271
			c-1.253,0-2.266-0.345-3.012-1.024c-0.74-0.675-1.116-1.591-1.116-2.722c0-0.793,0.178-1.524,0.527-2.173s0.855-1.187,1.504-1.602
			c0.346-0.229,0.733-0.401,1.154-0.515c0.425-0.113,0.892-0.171,1.389-0.171c1.08,0,1.964,0.29,2.627,0.862
			c0.664,0.573,0.987,1.299,0.987,2.218c0,0.411-0.068,0.807-0.202,1.172c-0.133,0.363-0.329,0.685-0.582,0.959
			c-0.171,0.19-0.354,0.342-0.547,0.448c-0.186,0.102-0.362,0.154-0.525,0.154c-0.122,0-0.215-0.03-0.284-0.092
			c-0.064-0.057-0.094-0.128-0.094-0.226c0-0.004,0.001-0.039,0.032-0.188c0.004-0.023,0.006-0.043,0.008-0.052l0.876-3.54h-1.159
			l-0.225,0.446c-0.131-0.182-0.285-0.325-0.46-0.428c-0.246-0.145-0.552-0.218-0.91-0.218c-0.771,0-1.437,0.329-1.979,0.979
			c-0.536,0.644-0.808,1.435-0.808,2.355c0,0.658,0.165,1.174,0.491,1.531c0.329,0.361,0.805,0.544,1.414,0.544
			c0.408,0,0.765-0.084,1.059-0.251c0.192-0.108,0.37-0.26,0.532-0.45c0.055,0.185,0.152,0.334,0.292,0.447
			c0.221,0.179,0.539,0.266,0.974,0.266c0.341,0,0.674-0.058,0.99-0.172c0.315-0.113,0.613-0.282,0.884-0.502
			c0.463-0.382,0.825-0.856,1.076-1.407c0.251-0.552,0.378-1.153,0.378-1.789c0-0.657-0.13-1.257-0.385-1.784
			C81.181,62.765,80.793,62.294,80.286,61.894z M77.2,66.66c-0.088,0.369-0.26,0.672-0.508,0.901
			c-0.245,0.228-0.509,0.338-0.807,0.338c-0.262,0-0.458-0.081-0.597-0.246c-0.144-0.171-0.216-0.425-0.216-0.755
			c0-0.655,0.16-1.219,0.477-1.677c0.309-0.446,0.662-0.664,1.085-0.664c0.238,0,0.426,0.071,0.572,0.218
			c0.146,0.144,0.244,0.352,0.292,0.618L77.2,66.66z M77.579,73.843c0.069,0.172-0.319,0.568-0.322,0.761
			c-0.28,0.257,0.037,0.411-0.087,0.679c0.008-0.067-0.005-0.115-0.018-0.163c-0.398-0.095-1.015,0-1.362-0.033
			c-0.051,0.025-0.008,0.134-0.016,0.196c-0.037-0.04-0.028-0.143-0.062-0.188c0.22-0.119-0.016-0.509-0.13-0.704
			c0.015-0.008,0.012-0.028,0.021-0.041c0.052-0.004,0.07,0.027,0.105,0.041c0.021,0.225,0.141,0.338,0.187,0.531
			c0.021,0.009,0.103-0.017,0.109,0.033c0.093-0.077,0.09-0.242,0.161-0.344c0.133,0.084,0.533,0.124,0.608-0.049
			c0.05,0.169,0.05,0.38,0.271,0.359c0.019-0.168,0.23-0.351,0.202-0.539c0.011-0.031,0.043-0.076,0.06-0.104
			c0.143-0.232,0.228-0.317,0.24-0.475C77.559,73.803,77.579,73.837,77.579,73.843z M76.479,76.033
			c0.005,0.03-0.041,0.01-0.061,0.015c0-0.007,0-0.015,0-0.022C76.435,76.011,76.469,76.021,76.479,76.033z M79.471,71.045
			c0.102,0.12-0.163,0.206-0.187,0.335c-0.043,0.025-0.111,0.032-0.154,0.058c-0.528,0.788-0.987,1.583-1.453,2.315
			c-0.022-0.026-0.034-0.06-0.037-0.099C78.249,72.853,78.598,71.81,79.471,71.045z M75.505,74.21
			c0.055-0.175-0.312-0.439-0.039-0.433c-0.021,0.153,0.085,0.316,0.168,0.426c-0.018,0.013-0.018,0.039-0.028,0.056
			C75.566,74.249,75.536,74.229,75.505,74.21z M75.365,73.613c0.002,0.025-0.015,0.037-0.02,0.058
			c-0.052,0.001-0.068-0.032-0.119-0.033c-0.393-0.961-1.281-1.844-1.737-2.659C74.273,71.738,74.765,72.774,75.365,73.613z
			 M76.215,76.328c0.028,0.012,0.014,0.084,0.008,0.107C76.2,76.409,76.21,76.366,76.215,76.328z M76.253,75.949
			c0.05,0.018,0.104,0.032,0.129,0.076c-0.043,0.076-0.143,0.063-0.221,0.092c-0.034-0.054-0.038-0.173-0.045-0.229
			c0.067,0.006,0.113,0.033,0.113,0.107C76.253,75.996,76.253,75.973,76.253,75.949z M76.07,76.943
			C76.103,77.012,76.056,77.091,76.07,76.943L76.07,76.943z"/>
	</g>
</g>
</svg>
