<?xml version="1.0" encoding="utf-8"?>
<!-- Generator: Adobe Illustrator 15.0.2, SVG Export Plug-In . SVG Version: 6.00 Build 0)  -->
<!DOCTYPE svg PUBLIC "-//W3C//DTD SVG 1.1//EN" "http://www.w3.org/Graphics/SVG/1.1/DTD/svg11.dtd">
<svg version="1.1" id="Layer_1" xmlns="http://www.w3.org/2000/svg" xmlns:xlink="http://www.w3.org/1999/xlink" x="0px" y="0px"
	 width="144px" height="144px" viewBox="0 0 144 144" enable-background="new 0 0 144 144" xml:space="preserve">
<path id="logo" fill="#FFFFFF" d="M99.701,73.05c0.016-0.349,0.023-0.698,0.023-1.05c0-0.353-0.009-0.702-0.023-1.05l-2.303-1.478
	c-0.062-0.516-0.144-1.025-0.241-1.529l1.737-2.114c-0.188-0.678-0.402-1.342-0.646-1.992l-2.648-0.69
	c-0.218-0.47-0.453-0.93-0.703-1.38l0.994-2.55c-0.387-0.584-0.798-1.149-1.233-1.695l-2.732,0.161
	c-0.352-0.377-0.716-0.742-1.094-1.094l0.161-2.731c-0.545-0.437-1.111-0.849-1.695-1.234l-2.55,0.995
	c-0.45-0.251-0.909-0.486-1.379-0.704l-0.69-2.649c-0.65-0.244-1.314-0.461-1.992-0.646l-2.115,1.737
	c-0.504-0.098-1.014-0.179-1.528-0.24l-1.478-2.304c-0.349-0.015-0.697-0.024-1.049-0.024c-0.353,0-0.703,0.01-1.051,0.024
	l-1.479,2.304c-0.516,0.062-1.024,0.143-1.527,0.24l-2.115-1.737c-0.677,0.186-1.342,0.402-1.992,0.646l-0.69,2.649
	c-0.47,0.218-0.93,0.453-1.379,0.704l-2.55-0.995c-0.584,0.386-1.15,0.798-1.696,1.234l0.162,2.731
	c-0.378,0.352-0.743,0.717-1.095,1.094l-2.731-0.161c-0.437,0.546-0.848,1.111-1.234,1.695l0.995,2.55
	c-0.251,0.45-0.486,0.91-0.704,1.38l-2.648,0.69c-0.244,0.65-0.461,1.314-0.647,1.992l1.738,2.114
	c-0.099,0.504-0.179,1.014-0.241,1.529l-2.303,1.478c-0.016,0.348-0.024,0.697-0.024,1.05c0,0.352,0.009,0.701,0.024,1.05
	l2.303,1.478c0.062,0.517,0.143,1.024,0.241,1.529l-1.738,2.114c0.187,0.677,0.402,1.343,0.647,1.992l2.648,0.69
	c0.218,0.47,0.453,0.93,0.704,1.379l-0.995,2.55c0.386,0.584,0.798,1.149,1.234,1.696l2.731-0.162
	c0.352,0.377,0.717,0.742,1.095,1.095l-0.162,2.731c0.546,0.437,1.111,0.848,1.696,1.233l2.55-0.994
	c0.449,0.25,0.909,0.485,1.379,0.703l0.69,2.647c0.65,0.246,1.315,0.461,1.992,0.646l2.115-1.736
	c0.503,0.099,1.014,0.18,1.527,0.239l1.479,2.304c0.348,0.017,0.698,0.025,1.051,0.025c0.352,0,0.7-0.01,1.049-0.025l1.478-2.304
	c0.517-0.062,1.024-0.142,1.528-0.239l2.115,1.736c0.678-0.186,1.342-0.4,1.992-0.646l0.69-2.647
	c0.469-0.218,0.929-0.453,1.379-0.703l2.55,0.994c0.584-0.387,1.15-0.798,1.695-1.233l-0.161-2.731
	c0.378-0.353,0.741-0.718,1.094-1.095l2.731,0.162c0.437-0.547,0.849-1.112,1.234-1.696l-0.996-2.55
	c0.252-0.449,0.487-0.909,0.705-1.379l2.648-0.69c0.244-0.649,0.46-1.315,0.646-1.992l-1.737-2.114
	c0.099-0.505,0.179-1.014,0.241-1.529L99.701,73.05z M76.514,89.688c-9.769,0-17.688-7.918-17.688-17.688
	c0-9.77,7.92-17.688,17.688-17.688c9.769,0,17.688,7.918,17.688,17.688C94.201,81.77,86.282,89.688,76.514,89.688z M80.521,82.245
	l1.121,0.504c0,0-1.97,0.886-4.922,1.319c-2.711,0.399-4.81,0.27-4.81,0.27l0.696-0.855c0.345-0.02,2.408-0.106,4.216-0.385
	C78.918,82.773,80.26,82.277,80.521,82.245z M76.803,81.12c-1.771,0.239-4.171,0.308-4.333,0.312l-0.849,1.06
	c0,0,1.973,0.167,5.12-0.298c3.058-0.452,5.056-1.323,5.056-1.323l-1.083-0.58C80.471,80.336,79.25,80.788,76.803,81.12z
	 M73.718,85.191l1.017,1.371c0,0,0.906,0.217,1.779,0.217c0.769,0,1.754-0.217,1.754-0.217l1.871-2.408c0,0-1.572,0.509-3.346,0.772
	C75.32,85.146,73.718,85.191,73.718,85.191z M80.657,78.275c-0.771,0.17-2.087,0.42-4.271,0.447c-2.357,0.03-3.58-0.271-4.254-0.447
	c0.021,0.341,0.079,1.229,0.079,1.229l-0.809,0.92c0,0,1.791,0.205,5.33-0.216c2.984-0.353,4.94-1.103,4.94-1.103l-1.006-0.578
	C80.669,78.527,80.643,78.491,80.657,78.275z M89.604,71.881l1.07,1.109l-5.223,1.363l3.097-1.892l-1.067-1.121l5.244-1.421
	L89.604,71.881z M65.61,71.438l-4.604-1.247l2.741,1.721l-0.94,0.974l4.586,1.198l-2.72-1.661L65.61,71.438z M77.365,64.221
	c0.188,0.186,0.31,0.447,0.363,0.785l-0.324,1.377c-0.103,0.427-0.301,0.773-0.59,1.041c-0.289,0.268-0.611,0.401-0.967,0.401
	c-0.326,0-0.58-0.106-0.76-0.32c-0.18-0.213-0.27-0.517-0.27-0.911c0-0.732,0.179-1.356,0.535-1.874
	c0.356-0.518,0.787-0.776,1.287-0.776C76.938,63.943,77.178,64.036,77.365,64.221z M85.059,65.848c0,1.143-0.22,2.232-0.617,3.23
	c-0.645,1.785-2.909,5.162-3.078,6.229c-0.147,0.928-0.283,1.948-0.885,2.086c-1.186,0.258-2.069,0.397-3.984,0.397
	c-2.344,0-3.735-0.28-4.146-0.397c-0.727-0.152-0.574-1.274-0.695-2.086c-0.18-1.209-2.632-4.699-3.17-6.5l0,0
	c-0.332-0.923-0.514-1.92-0.514-2.959c0-4.775,3.826-8.647,8.545-8.647S85.059,61.072,85.059,65.848z M81.971,64.662
	c0-0.672-0.132-1.277-0.392-1.814c-0.261-0.537-0.649-1.012-1.171-1.422c-0.418-0.329-0.92-0.587-1.508-0.77
	c-0.588-0.184-1.209-0.275-1.863-0.275c-0.997,0-1.903,0.188-2.717,0.562c-0.814,0.374-1.512,0.922-2.09,1.643
	c-0.398,0.499-0.7,1.047-0.905,1.646c-0.205,0.597-0.308,1.228-0.308,1.893c0,0.806,0.151,1.524,0.452,2.159
	c0.302,0.633,0.758,1.188,1.369,1.663c0.48,0.378,1.035,0.664,1.662,0.857c0.626,0.192,1.318,0.289,2.075,0.289
	c0.733,0,1.434-0.114,2.103-0.344c0.67-0.23,1.297-0.572,1.885-1.027l-0.396-0.598c-0.527,0.375-1.104,0.66-1.725,0.858
	c-0.621,0.197-1.258,0.295-1.912,0.295c-1.377,0-2.479-0.376-3.303-1.129c-0.827-0.752-1.24-1.757-1.24-3.013
	c0-0.873,0.193-1.668,0.58-2.384c0.387-0.718,0.937-1.303,1.648-1.758c0.385-0.253,0.807-0.442,1.271-0.567
	c0.466-0.125,0.971-0.188,1.515-0.188c1.19,0,2.155,0.318,2.892,0.954C80.631,62.829,81,63.655,81,64.674
	c0,0.459-0.074,0.894-0.225,1.302c-0.151,0.408-0.367,0.766-0.651,1.07c-0.192,0.219-0.401,0.388-0.624,0.511
	s-0.436,0.185-0.635,0.185c-0.17,0-0.307-0.047-0.411-0.139c-0.104-0.093-0.156-0.216-0.156-0.369c0-0.036,0.011-0.11,0.035-0.223
	c0.004-0.028,0.007-0.053,0.013-0.072l0.875-3.539h-0.912l-0.324,0.646c-0.153-0.294-0.348-0.51-0.586-0.649
	c-0.236-0.139-0.529-0.208-0.881-0.208c-0.769,0-1.426,0.326-1.97,0.979c-0.544,0.651-0.815,1.446-0.815,2.384
	c0,0.657,0.158,1.159,0.477,1.508c0.316,0.348,0.775,0.521,1.375,0.521c0.406,0,0.753-0.081,1.04-0.244
	c0.288-0.164,0.541-0.42,0.757-0.771v0.024c0,0.343,0.102,0.595,0.303,0.759c0.2,0.162,0.512,0.243,0.928,0.243
	c0.344,0,0.675-0.057,0.994-0.172c0.319-0.114,0.615-0.282,0.888-0.504c0.474-0.39,0.838-0.867,1.094-1.431
	S81.971,65.313,81.971,64.662z M1.08,88.261V55.58h3.848v32.681H1.08z M8.646,88.261V55.58h6.693c3.607,0,5.412,2.094,5.412,6.281
	v21.667c0,3.156-1.537,4.732-4.609,4.732L8.646,88.261L8.646,88.261z M12.495,84.301h2.885c1.016,0,1.523-0.484,1.523-1.457V61.907
	c0-1.578-0.574-2.367-1.723-2.367h-2.686L12.495,84.301L12.495,84.301z M24.614,88.261V55.58h9.539v3.96h-5.691v9.922h5.051v3.961
	h-5.051v10.878h5.691v3.96H24.614z M40.772,88.261h-3.848V61.179c0-3.732,1.536-5.599,4.609-5.599h2.886
	c3.072,0,4.609,1.866,4.609,5.599v27.082H45.18V76.29h-4.409L40.772,88.261L40.772,88.261z M45.182,72.33V61.451
	c0-1.274-0.562-1.911-1.684-1.911h-1.042c-1.122,0-1.684,0.637-1.684,1.911V72.33H45.182z M103.104,88.381V55.7h6.693
	c3.607,0,5.411,2.093,5.411,6.281v21.666c0,3.156-1.537,4.733-4.608,4.733L103.104,88.381L103.104,88.381z M106.951,84.421h2.886
	c1.017,0,1.522-0.485,1.522-1.457V62.026c0-1.577-0.574-2.366-1.723-2.366h-2.687L106.951,84.421L106.951,84.421z M118.463,88.381
	V55.7h9.539v3.96h-5.691v9.922h5.051v3.96h-5.051v10.879h5.691v3.96H118.463z M134.812,69.847v1.513v17.039h-3.717V55.7h4.284
	l3.823,17.038V55.7h3.717v32.696h-3.604L134.812,69.847z"/>
</svg>
