<?xml version="1.0" encoding="utf-8"?>
<!-- Generator: Adobe Illustrator 18.0.0, SVG Export Plug-In . SVG Version: 6.00 Build 0)  -->
<!DOCTYPE svg PUBLIC "-//W3C//DTD SVG 1.1//EN" "http://www.w3.org/Graphics/SVG/1.1/DTD/svg11.dtd">
<svg version="1.1" id="Layer_1" xmlns="http://www.w3.org/2000/svg" xmlns:xlink="http://www.w3.org/1999/xlink" x="0px" y="0px"
	 viewBox="0 0 72 108" style="enable-background:new 0 0 72 108;" xml:space="preserve">
<style type="text/css">
	.st0{fill-rule:evenodd;clip-rule:evenodd;}
	.st1{fill-rule:evenodd;clip-rule:evenodd;fill:#FFFFFF;}
</style>
<g>
	<path class="st0" d="M63.2,5.6c-0.1,1.5,0.1,2.9,0,4.4c0,0.3-0.2,0.6-0.2,1c-0.1,1.3,0.3,2.5,0.2,3.8c0,0.4-0.2,0.9-0.2,1.3
		c0,0.6,0.2,1.2,0.2,1.8c0.1,1.1,0.1,2.3,0.1,3.4c0,1.8,0.1,3.7,0.1,5.5c0,0.8-0.2,1.7-0.2,2.4c0,0.6,0.3,1.2,0.3,1.8
		c0.1,2.4-0.3,4.9-0.1,7.4c0,0.4,0.2,0.7,0.2,1.1c0.2,1.8-0.1,3.6-0.1,5.3c0,0.6-0.1,1.4,0,2.1c0,0.3,0.2,0.6,0.3,1
		c0.1,0.5-0.1,1-0.1,1.6c0,0.3,0.2,0.7,0.2,1c0.1,1.9-0.1,4.1,0,6.3c0,0.3,0.2,0.5,0.2,0.8c0.1,1.6,0,3.1,0,4.9
		c0,0.3,0.2,0.8-0.2,1.1c0.6,1.1,0.2,3.3,0.2,5c0,0.6,0.2,1.2,0.2,1.8c0,0.4-0.1,0.9-0.1,1.3c0,0.7,0.3,1.4,0.3,2.1
		c0,0.4-0.1,0.8-0.1,1.2c0,1,0.3,2.1,0.3,3.2c0.1,3.8,0.1,7.8,0.5,11.5c-1.7,0.8-3.7,0.3-5.6,0.4c-0.8,0-1.4,0.2-2.1,0.1
		c-2.5-0.2-5.2,0.3-8,0.4c-0.8,0-1.6-0.1-2.3-0.1c-0.4,0-0.8,0.2-1.3,0.2c-1.4,0-3.1-0.2-4.7-0.1c-1.2,0-2.3,0.3-3.5,0.4
		c-1.1,0.1-2,0-3.1,0.1c-3.6,0.2-7.6,0.4-11.4,0.4c-1.5,0-3.1-0.1-4.4,0.1c-0.8,0.1-1.5,0.5-2.4,0c-0.3-0.9,0-1.8,0-2.6
		c0-0.7-0.3-1.4-0.3-2.1c0-0.7,0.1-1.5,0.1-2.2c0-0.5-0.2-1-0.2-1.5c-0.1-2.5,0.2-5,0-7.4c0-0.5-0.3-0.9-0.3-1.4
		c-0.1-1,0.1-2.1,0.1-3.1c0-1.2-0.3-2.4-0.3-3.6c0-0.5,0.2-1,0.2-1.5c0-0.4-0.2-0.7-0.2-1.1c-0.1-0.8,0.1-1.8,0-2.7
		c0-0.4-0.2-0.8-0.2-1.1c0-0.3,0.2-0.7,0.2-1c0.1-1.5-0.1-3.1-0.1-4.6c0-2.5,0.2-5,0.1-7.4c-0.1-1.4-0.3-3.2-0.3-4.9
		c0-0.4,0.2-0.9,0.2-1.4c0-1-0.3-2.1-0.3-3.1c0-0.7,0.2-1.5,0.1-2.5c-0.1-1.1-0.1-2.1-0.1-3.2c0-1.2-0.2-2.3-0.2-3.4
		c0-0.5,0.1-1,0.1-1.5c0-0.4-0.2-0.8-0.2-1.2c0-0.5,0.1-1,0.1-1.6c0-1.4-0.2-2.8-0.2-4.3c0-1.2,0-2.8,0.1-4.3c0-1.1-0.1-2.3-0.1-3.3
		c0-0.3,0.2-0.6,0.2-0.9c0.1-1.7-0.4-3.3,0-5.2C20,6.9,25.6,6,31.1,6.4c0.3,0.6,0,1.5,0.2,2.1c1.1,0.5,2.2,0.3,3.3,0.4
		c0.9,0.1,2,0.3,2.9,0.6c0.2,0.1,0.4,0.2,0.6,0.3c0.7,0.2,1.3,0.2,2.1,0.5c0.4,0.2,0.8,0.6,1.2,0.8c1.2,0.7,2.6,1.2,3.6,2.1
		c0.4,0.7,0.5,1.5,0.9,2.4c0.1,0.2,0.3,0.5,0.4,0.7c0.1,0.5,0.1,1.1,0.3,1.7c0.3,1,0.5,1.8,0.8,3.1c0.1,0.6,0.4,1.3,0.3,1.7
		c-0.1,0.3-0.4,0.6-0.8,1.1c-0.3,0.4-0.5,0.8-0.7,1.1c-0.3,0.4-0.6,0.6-0.9,1c-0.3,0.3-0.4,0.8-0.7,1.1c-0.3,0.4-0.7,0.7-1.1,1
		c-0.6,0.5-1.3,0.7-1.6,1.7c-0.3,0.1-0.5,0.3-0.6,0.6c-2.8,0.5-6.1,0.8-8.8-0.4c-0.3-0.5-0.3-1-0.5-1.5c-0.2-0.5-0.6-0.8-0.8-1.3
		c-0.2-0.5-0.2-1.3-0.4-2c-0.1-0.5-0.4-1.1-0.6-1.7c-0.2-0.6-0.2-1.2-0.4-1.8c-0.2-0.6-0.5-1.1-0.5-1.7c0.1-0.9,1-1.6,1.6-2.3
		c0.6-0.7,1.1-1.7,2-2c0.2-0.1,0.7,0,1.1-0.1c1.8-0.2,4.3-0.6,6.3-0.1c0.2,0.8,0.6,1.5,1.1,2.3c0.4,0.7,1,1.5,1.1,2.2
		c0,0.6-0.3,1.5-0.5,2.1c-0.2,0.7-0.3,1.4-0.6,2.1c-1.6,0.6-3.7,0.4-5.5,0.9c0-0.9,0.7-1.8,0.9-2.8c0.7-0.3,1.4,0,2.1-0.2
		c0-1.2,0.1-2.1-0.2-3.3c-0.3-0.1-1-0.2-1.7-0.1c-0.4,0.1-0.7,0.3-1.1,0.4c-0.9,0.2-1.9,0.1-2.8,0.4c-0.1,1.4-0.2,3,0.1,4.3
		c0.1,0.6,0.5,1.2,0.7,1.8c0.2,0.8,0.1,1.7,0.9,2.1c1.1-0.2,2.3,0.3,3.3,0.2c0.4,0,0.8-0.3,1.2-0.4c0.3-0.1,0.6,0,1-0.1
		c0.1,0,0.3-0.2,0.3-0.2c0.1,0,0.2,0.2,0.4,0.1c1.3-0.5,2.1-2,3-3c0.4-0.4,0.8-0.7,0.9-1.1c0.2-0.9-0.3-2.7-0.4-3.7
		c-0.2-1.2-0.3-2.6-0.6-3.4c-0.3-0.6-2.2-2.7-2.9-2.9c-1.1-0.3-2.8-0.4-4.4-0.3c-0.3,0-0.5,0.2-0.9,0.2c-1.7,0.1-3-0.3-4.2,0.3
		c-0.6,0.3-0.9,0.9-1.5,1.4c-0.2,0.1-0.5,0.2-0.6,0.3c-0.4,0.4-0.7,1-1.1,1.5c-0.4,0.5-0.7,1-1,1.5c0.2,1.9,0.2,3.9,0.4,6
		c0,0.3,0.2,0.6,0.2,0.9c0,0.8-0.1,1.4,0.1,2.4c0.1,0.7,0.4,1.6,0.6,2.4c0.2,0.8,0.5,2.1,0.7,2.3c0.6,0.8,2.5,0.8,4,1
		c1.7,0.3,3.6,0.3,5.7,0.2c2.2-0.1,4.1,0.3,6-0.3c1-1.6,1.8-3.4,2.7-5.3c0.1-0.2,0.1-0.4,0.2-0.6c0.5-1.1,1-2.3,1.6-3.4
		c0.2-0.4,0.5-0.7,0.6-1.1c0.1-0.6-0.2-1.3-0.3-2.1c-0.1-0.4,0-0.9,0-1.2c-0.1-0.4-0.3-0.8-0.4-1.3c-0.1-0.3,0-0.7,0-1.1
		c-0.1-1.5-0.7-3.9-1.7-4.9c-1-0.4-1.6-1.2-2.5-1.6c-0.6-0.7-1.9-0.8-2.5-1.6c-0.4,0-0.5-0.2-1-0.1C41.3,8,40.3,8,39.8,7.4
		c-1.1-0.1-1.9-0.5-2.9-0.8c-0.3-0.1-0.7,0-0.9-0.3c0.5-1,1.7-0.4,2.4-0.5c0.4,0,0.7-0.3,1.1-0.3c1.6-0.1,3.6,0.1,5.5,0.1
		c5.2-0.1,11.5,0.2,16.6-0.2C61.9,5.4,62.6,5.5,63.2,5.6z M45,38.4c-0.3,0.1-0.7-0.1-1-0.1c-0.4,0-0.7,0.3-1.1,0.4
		c-0.6,0.1-1.3,0.2-2,0.2c-0.6,0.4-1.8,0.3-2.4,0.7c-2.9,0.4-4.9,1.2-8,1.5c-1.5,0.5-3.5,0.9-5.2,0.9c0.4,1.6,0.3,4.5,1,6.2
		c1.7-0.4,3.6-1.1,5.3-1.2c0.1,1.1-0.1,2.3,0,3.4c0.3,4,0.6,8,0.6,12.1c0,2.6,0.3,5.1,0.4,7.5c0.1,1.3,0,2.5,0.1,3.7
		c0.1,0.5,0.3,1,0.2,1.6c-0.7,0.3-1.5,0-2.2,0.1c-0.5,0.1-1,0.3-1.7,0.4c-0.5,0-1.1-0.1-1.7,0.1c0,2,0,4.8,0.6,6.5
		c1.7-0.3,3.6-0.5,5.6-0.7c1.8-0.1,3.6-0.8,5.4-0.4c0.2-0.2,0.5-0.2,0.8-0.2c2.1-0.2,4.6-0.2,6.5,0c0.4,0,0.9,0.3,1.3,0.3
		c1.5,0.1,3.1-0.1,4.6,0c0.5,0,0.9,0.2,1.4,0.2c0.5-0.5,0.2-1.3,0.3-2.1c0.1-1.7,0.1-3.9-0.4-5.2c-1.5,0.2-3.2-0.1-4.6-0.5
		c0.5-2.2-0.2-4.5-0.2-6.8c0-2.3-0.2-4.4-0.3-6.6c-0.2-2.7-0.3-5.5-0.4-7.7c-0.2-3.8-0.1-8.2-0.5-12c-0.1-0.9-0.2-1.8-0.5-2.6
		C46.1,37.4,45.6,38.3,45,38.4z"/>
	<path class="st0" d="M11.8,13.8c-2.2,0.6-4.7,0.9-7.2,1.1c0-1.4-0.2-3.1-0.3-4.7C4.2,9.5,4.4,8.9,4.4,8.4c0-0.5-0.5-0.8-0.1-1.2
		c0.9,0.1,0.7,1.3,0.8,2.1c0.1,0.3,0.3,0.7,0.3,1c0.1,1.1,0,2.3,0.2,3.3c2.8,1.7,1.2-4.1,1.3-5.3c0.3,0,0.3-0.3,0.7-0.2
		c0.5,1.7,0.4,4,1.1,5.5c0.5-0.3,1.1-0.3,1.8-0.2c0.5-0.7,0-1.4-0.1-2.1C10,9.9,9.8,8.4,9.4,7c0.9-0.8,1.1,0.7,1.3,1.7
		C11,10.2,11.5,12.2,11.8,13.8z"/>
	<path class="st0" d="M9.3,22.9c0.7,0.3,1.5,0.5,2.4,0.5c0.1,0.3,0.3,0.9,0.1,1.2c-2.2-0.4-5-0.6-7.6-0.9c-0.2-1.3,0.3-3.1,0.7-4.5
		C5,18.7,5,18.2,5.2,18c0.6-0.9,2.2-1.1,3.1-0.5C9.6,18.4,9.3,21,9.3,22.9z M8.5,19c-0.3-0.2-0.5-0.5-0.7-0.9
		c-2.4-0.8-2.8,2.8-2.5,4.7c0.9-0.2,2,0.2,2.9,0.3C8.6,22,8.2,20.2,8.5,19z"/>
	<path class="st1" d="M8.2,23.1c-1-0.1-2-0.5-2.9-0.3c-0.3-1.9,0.1-5.5,2.5-4.7C8,18.5,8.2,18.8,8.5,19C8.2,20.2,8.6,22,8.2,23.1z"
		/>
	<path class="st0" d="M11.8,27.3c0.1,1.3,0.5,2.7,0.1,3.8c-0.1,0.2-0.3,0.3-0.5,0.6c-0.2,0.2-0.2,0.5-0.4,0.7
		c-0.1,0.1-0.5,0.2-0.7,0.4c-0.2,0.2-0.4,0.5-0.5,0.6c-0.4,0.2-0.9,0.1-1.2,0.4c-1.5-0.2-2.8,0.4-3.8-0.7c-0.9-1-0.8-2.8-0.6-4.6
		c1-1.7,3.6-2.5,6.2-2.1C10.7,26.9,11.3,27.1,11.8,27.3z M7.3,27.3c-0.5,0.3-0.6,0.6-1.1,1c-0.3,0.3-0.6,0.3-0.8,0.6
		c-0.2,0.5-0.2,1.6-0.2,1.9c0.3,3.5,4.9,2,5.6-0.3c0.2-0.5-0.1-0.8,0.2-1.5c-0.4-0.5-0.5-1.1-0.9-1.6C9,27.3,8.5,27.5,7.3,27.3z"/>
	<path class="st1" d="M10.1,27.4c0.4,0.5,0.5,1.1,0.9,1.6c-0.3,0.7,0,0.9-0.2,1.5c-0.7,2.3-5.3,3.8-5.6,0.3c0-0.3,0-1.4,0.2-1.9
		c0.1-0.3,0.4-0.3,0.8-0.6c0.4-0.4,0.5-0.7,1.1-1C8.5,27.5,9,27.3,10.1,27.4z"/>
	<path class="st0" d="M11,35.7c0.3,0,0.8-0.1,1,0.1c-0.2,1.3,0.5,1.9,0.2,3.4c-0.4,0.3-0.6,0.7-0.9,1.1c-0.2,0.3-0.6,0.4-0.6,0.9
		c-0.5,0.1-0.7,0.4-1,0.7c-0.5-0.1-0.8,0.1-1.1,0.3c-0.5,0-0.6-0.1-1.1,0c-0.4-0.2-0.5-0.5-1.2-0.4c-0.7-0.4-1.2-1.1-1.7-1.7
		c0-1.4-0.5-2.3-0.1-3.6c0.4,0,0.7,0.2,1,0.3c-0.4,1.4,0.7,4,2.1,4.2c1.2,0.2,2.9-0.7,3.3-2C11.3,38.2,11.2,36.6,11,35.7z"/>
	<path class="st1" d="M46.9,38c0.3,0.8,0.4,1.8,0.5,2.6c0.3,3.8,0.3,8.2,0.5,12c0.1,2.2,0.2,5,0.4,7.7c0.1,2.3,0.3,4.3,0.3,6.6
		c0,2.3,0.7,4.6,0.2,6.8c1.4,0.4,3.1,0.7,4.6,0.5c0.5,1.3,0.5,3.5,0.4,5.2c0,0.8,0.2,1.6-0.3,2.1c-0.5,0-0.9-0.2-1.4-0.2
		c-1.5-0.1-3.1,0.1-4.6,0c-0.4,0-0.8-0.3-1.3-0.3c-2-0.2-4.4-0.2-6.5,0c-0.2,0-0.6,0-0.8,0.2c-1.8-0.4-3.6,0.2-5.4,0.4
		c-1.9,0.2-3.8,0.4-5.6,0.7c-0.6-1.8-0.6-4.6-0.6-6.5c0.6-0.2,1.1-0.1,1.7-0.1c0.6,0,1.1-0.3,1.7-0.4c0.8-0.1,1.5,0.2,2.2-0.1
		c0.1-0.6-0.1-1-0.2-1.6c-0.1-1.2,0-2.5-0.1-3.7c-0.1-2.5-0.4-5-0.4-7.5c0-4.2-0.2-8.1-0.6-12.1c-0.1-1.1,0.1-2.3,0-3.4
		c-1.7,0.1-3.6,0.8-5.3,1.2c-0.7-1.7-0.5-4.6-1-6.2c1.7,0,3.7-0.3,5.2-0.9c3.1-0.2,5.1-1,8-1.5c0.6-0.4,1.8-0.2,2.4-0.7
		c0.7,0,1.3,0,2-0.2c0.4-0.1,0.7-0.4,1.1-0.4c0.3,0,0.7,0.2,1,0.1C45.6,38.3,46.1,37.4,46.9,38z"/>
	<path class="st0" d="M6.4,44.3c-0.3,0.3-0.8,0.5-1.2,0.7c-0.5,1-0.7,3,0.5,3.1c1.3,0.2,1.5-1.4,2.1-2.1c0.9-1,2.2-0.9,3.1-0.7
		c0.5,0.3,1.1,0.8,1.3,1.6c0.1,0.5-0.2,1.1-0.3,1.8c0,0.7,0,1.7-0.6,2.1c-0.2-0.1-0.5-0.2-0.7-0.3c0.5-1.1,1-3.5-0.4-3.9
		c-0.7-0.2-0.8,0.2-1.6,0.3c-1.1,0.8-1.3,3-3.1,2.7c-1-0.1-1.8-1.4-1.9-2.5c-0.1-1.4,0.7-2.5,1.4-3.3C5.7,43.7,6.1,44,6.4,44.3z"/>
	<path class="st0" d="M11.7,53.2c-1,0.5-1.8,1.2-2.8,1.6c-0.1,1.2,0.1,2,0.4,3c0.8,0,1.9-0.4,2.8,0c0,0.2,0.2,0.4,0.1,0.7
		C9.6,58.9,7,58.9,4.3,59c0.1-1.6-0.4-4,0.6-5.3c0.5-0.7,1.7-1.4,2.7-1.2c0.5,0.1,0.6,0.7,1.2,1c1-0.3,1.6-0.9,2.4-1.3
		C11.6,52.3,11.6,52.9,11.7,53.2z M5.4,58c0.9-0.3,1.8,0.2,2.8-0.2c-0.2-1.5,0-3.4-0.9-4.2C4.7,53.1,4.9,56.5,5.4,58z"/>
	<path class="st1" d="M7.3,53.6c0.9,0.8,0.7,2.7,0.9,4.2c-1,0.4-1.9-0.1-2.8,0.2C4.9,56.5,4.7,53.1,7.3,53.6z"/>
	<path class="st0" d="M5.3,61c-0.1,1.5,0.3,2.5,0.2,4.1c0.3,0.4,1.4,0.5,2,0.4C8,65,7.5,63.3,7.8,62.4c0.4,0,0.8,0,1,0.2
		c-0.1,1-0.4,2.3,0.2,2.9c0.5,0,1,0,1.5,0c1-0.8,0.1-3.4,0.9-4.4c0.3-0.1,0.4,0.1,0.6,0.1c0.4,0.3-0.1,0.8-0.1,1.4
		c-0.1,1.1,0.2,2.7,0,3.8c-2.5,0.1-4.8,0.1-7.2-0.1c0-2-0.1-3.4-0.3-5.3C4.5,60.9,5.1,60.9,5.3,61z"/>
	<path class="st0" d="M5,68.2c0.3,0,0.8-0.1,1,0.1c0.3,0.8,0,1.8,0.1,2.9c1.2,0.6,2.9,0,4.5-0.2c0.6-0.1,1.2,0,1.9-0.1
		c-0.1,0.4,0.2,0.6,0.1,1.1c-1.8,0.5-4.6,0.2-6.4,0.6c-0.5,0.8,0.1,2.7-0.4,3.4c-1,0.1-0.7-1-0.7-1.7C5,72.6,4.8,70,5,68.5
		C4.8,68.3,4.9,68.3,5,68.2z"/>
	<path class="st0" d="M11.9,77.8c-0.1,0.5-0.2,1.1-0.9,1.1C10.2,80.7,8.7,82,8,84c0.5,0.9,3.5,0.4,4.3,0.3c0.2,0.2,0.2,0.9,0,1.2
		c-2.5,0.2-5.2,0.2-7.3,0.8c0.4-1,1-1.7,1.7-2.3c0.5-1,1-1.9,1.9-2.6c0.1-0.9,1-1.3,0.9-2.1c-0.1-0.5-0.7-0.5-1.1-0.5
		c-1,0-2.2,0.3-3.4,0.2c0.2-0.5-0.3-0.8,0-1.2c0.6-0.2,1.7-0.1,2.1,0.2c0.6-0.5,1.6-0.1,2.4-0.1C10.2,77.9,11.2,77.5,11.9,77.8z"/>
	<path class="st0" d="M12.7,89.6c0.1,0.5-0.1,0.7-0.1,1.2c-2.4-0.1-5.6-0.3-7.8-0.2C4.5,90,4.9,89.3,5,88.8
		C7.6,89,10,89.5,12.7,89.6z"/>
	<path class="st0" d="M63.4,93.6c-0.3-0.9-2.1-1.4-2.6-0.4c0.3,1.4,2.7,1.3,2,3.5c-0.3,0.8-2.8,0.9-3.4,0.1c0.5-0.5,1.9,0.4,2.5-0.2
		c0.1-0.3,0.3-0.5,0.4-0.8c-0.5-1.2-2.5-1.3-2-3.2C61,91.5,64.5,92.1,63.4,93.6z"/>
	<path class="st0" d="M52.9,92.1c1.4,0.3,3.3,0.4,3.9,1.6c0.3,0.7,0.1,1.8-0.2,2.7c-0.7,0.6-1.6,1-2.8,1c-0.7,0-1.3-0.4-1.8-0.3
		c0.3-1.2,0.9-2.9,0.9-4.7C52.8,92.3,52.9,92.3,52.9,92.1z M53.6,93.1c-0.2,1.1-0.5,2.2-0.6,3.3c1.9,0.8,3.5-0.2,3.3-2.3
		C55.7,93.5,55,93,53.6,93.1z"/>
	<path class="st0" d="M48.6,95.3c0.2,0.6,0.8,0.8,0.8,1.7c-1,0.1-0.8-1.4-1.8-1.7c-0.5-0.1-0.8,0.3-1.7,0.2
		c-0.3,0.6,0.2,1.7-0.2,2.1c-0.5-0.3-0.5-1.3-0.6-2c-0.1-1-0.1-2.1-0.3-2.9c0-0.1,0-0.2,0.1-0.2c1-0.3,2.3-0.1,3.2,0.1
		c0.3,0.5,1,1,1,1.7C49.2,94.8,48.8,94.8,48.6,95.3z M45.5,93.1c0,0.7,0.2,1.2,0.3,1.9c0.7-0.1,1.4-0.3,2.3-0.2
		C49.4,93.4,47,92.6,45.5,93.1z"/>
	<path class="st0" d="M38.9,97.7c-0.6-0.9-1.4-1.3-1.5-2.3c-0.1-0.9,0.6-2.2,1.1-2.5c0.9-0.5,2.9,0,3.3,0.8c0.6,1.1,0.4,3.5-0.4,4
		C40.7,98,39.9,97.6,38.9,97.7z M38.8,93.5c-0.2,0.7-0.7,1-0.7,1.7c0,1.1,1.3,1.9,2.5,2C42.5,96,41.4,92.5,38.8,93.5z"/>
	<path class="st1" d="M48.1,94.8c-0.9-0.1-1.6,0.1-2.3,0.2c-0.1-0.7-0.3-1.2-0.3-1.9C47,92.6,49.4,93.4,48.1,94.8z"/>
	<path class="st0" d="M33.9,93.8c-1-0.1-1.4,0.3-2.1,0.5c-1.1,0.7-0.4,2.5,0.6,2.8c0.7,0,1.6,0.1,2.1-0.1c0.1,0.3,0.3,0.4,0.3,0.8
		c-0.8-0.1-1.3,0.5-2.1,0.3c-0.6-0.1-1.5-0.6-1.9-1.2c-0.3-0.5-0.1-1-0.5-1.6c0.2-1,0.6-1.7,1.6-2.1C32.7,93.3,34.1,92.6,33.9,93.8z
		"/>
	<path class="st1" d="M56.4,94.1c0.2,2.2-1.4,3.1-3.3,2.3c0.1-1.2,0.4-2.2,0.6-3.3C55,93,55.7,93.5,56.4,94.1z"/>
	<path class="st0" d="M27.5,93.4c0.1,0.1,0.1,0.2,0.1,0.4c-0.4,0.8-1.9,0-2.7,0.4c-0.8,1.2,0.4,1.7,1.8,1.5c0,0.2,0,0.4,0,0.6
		c-0.4,0.3-1.3-0.2-1.8,0.1c-0.2,0.2-0.2,0.6-0.2,1c0.5,0.7,2.2,0.2,2.8,0.8c-0.3,0.7-1.4,0.1-2.1,0.1c-0.6,0-0.9,0.2-1.3,0.1
		c-0.5-0.6,0-1.3,0-2c0-0.2-0.2-0.4-0.2-0.7c-0.1-0.7,0.3-1.4,0.3-2.1C25.6,93.6,26.6,93.7,27.5,93.4z"/>
	<path class="st1" d="M40.6,97.1c-1.2-0.1-2.5-0.8-2.5-2c0-0.7,0.5-1,0.7-1.7C41.4,92.5,42.5,96,40.6,97.1z"/>
	<path class="st0" d="M21.2,95.5c-0.1,0.4-0.4,0.6-0.5,1c0.1,0.7,1,1.1,0.8,1.8c-0.8-0.1-0.8-1.1-1.4-1.5c-0.6,0-1.4,0.2-2.2,0.3
		c-0.2,0.8,0.3,1.3,0.1,1.9c-0.7,0.1-0.4-0.6-0.5-1c-0.3-1.2-0.5-2.7-0.6-4.1C18.8,93.5,21,93.6,21.2,95.5z M20.4,95.3
		c0.2-1.1-2.1-1.4-2.9-0.8c0.1,0.6,0,1.5,0.5,1.8C18.7,96.4,20.3,96,20.4,95.3z"/>
	<path class="st1" d="M18,96.3c-0.5-0.3-0.4-1.1-0.5-1.8c0.8-0.6,3.1-0.3,2.9,0.8C20.3,96,18.7,96.4,18,96.3z"/>
	<g>
		<path d="M66,92.3v0.1h-0.4v1h-0.2v-1H65v-0.1H66z"/>
		<path d="M66.1,92.3h0.2l0.3,1l0.3-1h0.2v1.1H67v-0.7c0,0,0-0.1,0-0.1c0-0.1,0-0.1,0-0.2l-0.3,1h-0.2l-0.3-1v0c0,0,0,0.1,0,0.1
			c0,0.1,0,0.1,0,0.1v0.7h-0.1V92.3z"/>
	</g>
</g>
</svg>
