<?xml version="1.0" encoding="utf-8"?>
<!-- Generator: Adobe Illustrator 18.0.0, SVG Export Plug-In . SVG Version: 6.00 Build 0)  -->
<!DOCTYPE svg PUBLIC "-//W3C//DTD SVG 1.1//EN" "http://www.w3.org/Graphics/SVG/1.1/DTD/svg11.dtd">
<svg version="1.1" id="Layer_2" xmlns="http://www.w3.org/2000/svg" xmlns:xlink="http://www.w3.org/1999/xlink" x="0px" y="0px"
	 viewBox="0 0.5 142.9 48" style="enable-background:new 0 0.5 142.9 48;" xml:space="preserve">
<g>
	<g>
		<g>
			<g>
				<polygon points="63.9,21 63.9,27.5 71.5,34.9 79,27.5 79,21 71.5,28.4 				"/>
				<polygon points="71.5,16 55.5,0.5 55.5,32.9 59.7,28.8 59.7,11 71.5,22.5 83.2,11 83.2,28.8 87.4,32.9 87.4,0.5 				"/>
			</g>
			<g>
				<polygon points="63.9,27.5 71.5,34.9 71.5,28.4 63.9,21 				"/>
				<polygon points="55.5,0.5 55.5,32.9 59.7,28.8 59.7,11 71.5,22.5 71.5,16 				"/>
			</g>
		</g>
	</g>
	<g>
		<path d="M7,42.3l-2.6,3.5H4.1l-2.5-3.5v5.8H0v-8h1.7l2.5,3.4l2.5-3.4h1.7v8H7V42.3z"/>
		<path d="M19,46.6h-4.2l-0.7,1.5h-1.6l3.6-8h1.6l3.6,8h-1.6L19,46.6z M16.9,41.8l-1.5,3.4h3L16.9,41.8z"/>
		<path d="M30.2,42c-0.3-0.5-1-0.9-1.9-0.9c-1.1,0-1.7,0.5-1.7,1.1c0,0.7,0.8,0.9,1.8,1c1.7,0.2,3.2,0.6,3.2,2.5
			c0,1.8-1.6,2.5-3.4,2.5c-1.6,0-2.9-0.5-3.5-2l1.3-0.7c0.4,0.9,1.3,1.3,2.2,1.3c0.9,0,1.8-0.3,1.8-1.2c0-0.8-0.8-1.1-1.8-1.2
			c-1.6-0.2-3.1-0.6-3.1-2.4c0-1.6,1.6-2.3,3.1-2.3c1.2,0,2.5,0.4,3.1,1.6L30.2,42z"/>
		<path d="M38.3,41.5h-2.5v-1.4c2.3,0,4.3,0,6.6,0v1.4h-2.5v6.6h-1.5V41.5z"/>
		<path d="M52.7,48.1h-6c0-2.7,0-5.3,0-8h6v1.5h-4.5v1.8h4.3v1.4h-4.3v1.8h4.5V48.1z"/>
		<path d="M64.4,48.1h-1.8l-2.3-2.7h-1.5v2.7h-1.5v-8c1.3,0,2.5,0,3.8,0c1.9,0,2.9,1.3,2.9,2.6c0,1.1-0.5,2.2-2,2.5l2.4,2.7V48.1z
			 M58.8,41.5V44h2.3c1,0,1.4-0.6,1.4-1.3c0-0.6-0.4-1.3-1.4-1.3H58.8z"/>
		<path d="M75.4,47.1c-0.8,0.8-1.9,1.2-3,1.2c-3,0-4.2-2-4.2-4.1c0-2.1,1.3-4.2,4.2-4.2c1.1,0,2.1,0.4,2.9,1.2l-1,1
			c-0.5-0.5-1.2-0.8-1.9-0.8c-1.9,0-2.8,1.4-2.8,2.8c0,1.3,0.8,2.7,2.8,2.7c0.7,0,1.5-0.3,2-0.8L75.4,47.1z"/>
		<path d="M85.2,48.1v-3.2h-3.9v3.2h-1.5v-8h1.5v3.4h3.9v-3.4h1.5v8H85.2z"/>
		<path d="M97.2,46.6H93l-0.7,1.5h-1.6l3.6-8h1.6l3.6,8h-1.6L97.2,46.6z M95.1,41.8l-1.5,3.4h3L95.1,41.8z"/>
		<path d="M108.9,40.1h1.5v8h-0.9v0l-4.2-5.4v5.4h-1.5v-8h1.2l3.9,5V40.1z"/>
		<path d="M120.4,40.1h1.5v8H121v0l-4.2-5.4v5.4h-1.5v-8h1.2l3.9,5V40.1z"/>
		<path d="M132.7,48.1h-6c0-2.7,0-5.3,0-8h6v1.5h-4.5v1.8h4.3v1.4h-4.3v1.8h4.5V48.1z"/>
		<path d="M138.8,40.1v6.6h4.1v1.4h-5.6v-8H138.8z"/>
	</g>
</g>
</svg>
