<?xml version="1.0" encoding="utf-8"?>
<!-- Generator: Adobe Illustrator 15.0.2, SVG Export Plug-In . SVG Version: 6.00 Build 0)  -->
<!DOCTYPE svg PUBLIC "-//W3C//DTD SVG 1.1//EN" "http://www.w3.org/Graphics/SVG/1.1/DTD/svg11.dtd">
<svg version="1.1" id="Layer_1" xmlns="http://www.w3.org/2000/svg" xmlns:xlink="http://www.w3.org/1999/xlink" x="0px" y="0px"
	 width="144px" height="118.675px" viewBox="0 0 144 118.675" enable-background="new 0 0 144 118.675" xml:space="preserve">
<path id="logo_compound_path" fill="#FFFFFF" d="M36.644,88.626l-0.214-1.345c-0.03-0.188,0.098-0.365,0.286-0.395
	c0.187-0.033,0.365,0.098,0.395,0.286l0.166,1.038l0.888,0.562c0.161,0.103,0.208,0.315,0.106,0.476
	c-0.065,0.104-0.177,0.161-0.292,0.161c-0.063,0-0.127-0.018-0.184-0.054L36.644,88.626z M34.869,75.626
	c0.018,0,0.036-0.002,0.055-0.004c0.02-0.003,0.035-0.014,0.052-0.02h-0.23C34.784,75.617,34.826,75.626,34.869,75.626z
	 M25.584,7.195c0-0.191-0.154-0.345-0.345-0.345h-1.611l0.253,1.591c0.027,0.17,0.173,0.291,0.34,0.291
	c0.018,0,0.036-0.001,0.055-0.004c0.188-0.03,0.316-0.207,0.286-0.395L24.437,7.54h0.803C25.43,7.54,25.584,7.385,25.584,7.195z
	 M43.973,92.457c-0.161-0.103-0.374-0.055-0.476,0.106s-0.054,0.374,0.106,0.476l1.937,1.228c0.057,0.037,0.121,0.054,0.185,0.054
	c0.114,0,0.226-0.057,0.292-0.16c0.102-0.16,0.054-0.374-0.107-0.476L43.973,92.457z M40.101,90.001
	c-0.161-0.103-0.374-0.054-0.476,0.107c-0.102,0.16-0.054,0.374,0.106,0.476l1.937,1.228c0.058,0.036,0.121,0.054,0.184,0.054
	c0.114,0,0.226-0.057,0.292-0.16c0.102-0.161,0.055-0.374-0.106-0.477L40.101,90.001z M35.97,80.005l-0.38-2.389
	c-0.03-0.188-0.206-0.317-0.396-0.287c-0.188,0.031-0.316,0.207-0.286,0.396l0.38,2.39c0.027,0.169,0.174,0.29,0.341,0.29
	c0.018,0,0.036-0.001,0.054-0.004C35.872,80.37,36,80.193,35.97,80.005z M25.743,18.289c0.018,0,0.037-0.001,0.055-0.005
	c0.188-0.03,0.316-0.206,0.286-0.395l-0.38-2.389c-0.03-0.188-0.207-0.316-0.395-0.286c-0.188,0.03-0.316,0.207-0.287,0.395
	l0.38,2.389C25.43,18.167,25.576,18.289,25.743,18.289z M36.39,85.183c0.018,0,0.036-0.001,0.055-0.005
	c0.188-0.029,0.316-0.206,0.287-0.395l-0.381-2.389c-0.029-0.188-0.207-0.317-0.395-0.287s-0.316,0.207-0.286,0.396l0.38,2.389
	C36.077,85.062,36.223,85.183,36.39,85.183z M24.982,13.51c0.019,0,0.037-0.001,0.055-0.004c0.188-0.03,0.317-0.207,0.287-0.395
	l-0.38-2.389c-0.03-0.188-0.205-0.318-0.395-0.286c-0.188,0.03-0.317,0.207-0.287,0.395l0.38,2.389
	C24.669,13.389,24.816,13.51,24.982,13.51z M29.886,41.78l-0.38-2.389c-0.03-0.188-0.206-0.316-0.395-0.286
	c-0.188,0.029-0.316,0.206-0.286,0.395l0.38,2.389c0.027,0.169,0.174,0.29,0.34,0.29c0.018,0,0.036-0.001,0.055-0.004
	C29.788,42.145,29.916,41.968,29.886,41.78z M26.503,23.067c0.018,0,0.036-0.001,0.054-0.005c0.188-0.03,0.316-0.206,0.287-0.395
	l-0.38-2.389c-0.03-0.188-0.205-0.318-0.395-0.286c-0.188,0.03-0.316,0.206-0.287,0.395l0.381,2.389
	C26.19,22.945,26.336,23.067,26.503,23.067z M28.024,32.623c0.018,0,0.036-0.001,0.055-0.004c0.188-0.03,0.316-0.207,0.286-0.395
	l-0.38-2.39c-0.03-0.188-0.207-0.317-0.395-0.286c-0.188,0.03-0.316,0.207-0.286,0.395l0.38,2.39
	C27.711,32.502,27.857,32.623,28.024,32.623z M30.035,6.85h-2.398c-0.191,0-0.345,0.154-0.345,0.345c0,0.19,0.154,0.345,0.345,0.345
	h2.398c0.19,0,0.345-0.154,0.345-0.345C30.38,7.004,30.225,6.85,30.035,6.85z M27.264,27.844c0.018,0,0.036-0.001,0.055-0.004
	c0.188-0.03,0.316-0.207,0.287-0.395l-0.38-2.389c-0.03-0.188-0.206-0.318-0.395-0.286c-0.188,0.03-0.316,0.206-0.287,0.395
	l0.38,2.389C26.951,27.724,27.097,27.844,27.264,27.844z M30.346,49.056l0.38,2.389c0.027,0.17,0.174,0.291,0.34,0.291
	c0.019,0,0.037-0.001,0.055-0.004c0.188-0.03,0.317-0.207,0.287-0.395l-0.38-2.389c-0.03-0.188-0.207-0.316-0.395-0.287
	C30.444,48.691,30.315,48.868,30.346,49.056z M29.872,43.882c-0.188,0.03-0.316,0.207-0.286,0.395l0.38,2.39
	c0.027,0.169,0.174,0.29,0.34,0.29c0.018,0,0.036-0.001,0.055-0.004c0.188-0.03,0.316-0.207,0.287-0.395l-0.38-2.389
	C30.237,43.981,30.061,43.853,29.872,43.882z M67.208,107.188c-0.161-0.102-0.374-0.054-0.476,0.106
	c-0.102,0.161-0.054,0.374,0.107,0.476l1.936,1.228c0.057,0.037,0.121,0.055,0.184,0.055c0.114,0,0.226-0.057,0.292-0.161
	c0.102-0.16,0.054-0.373-0.107-0.476L67.208,107.188z M88.319,99.82l-1.945,1.228c-0.161,0.102-0.21,0.314-0.108,0.476
	c0.065,0.104,0.178,0.16,0.292,0.16c0.063,0,0.127-0.017,0.184-0.053l1.946-1.228c0.16-0.102,0.209-0.314,0.107-0.476
	S88.48,99.719,88.319,99.82z M47.846,94.912c-0.161-0.103-0.374-0.055-0.476,0.106c-0.102,0.16-0.054,0.374,0.106,0.476l1.937,1.228
	c0.058,0.036,0.121,0.054,0.184,0.054c0.115,0,0.227-0.057,0.292-0.16c0.102-0.161,0.055-0.374-0.106-0.477L47.846,94.912z
	 M96.103,94.907l-1.946,1.229c-0.16,0.102-0.209,0.314-0.107,0.476c0.066,0.104,0.178,0.161,0.292,0.161
	c0.063,0,0.127-0.018,0.185-0.054l1.945-1.228c0.161-0.102,0.21-0.314,0.107-0.477C96.477,94.854,96.264,94.806,96.103,94.907z
	 M84.428,102.275l-1.946,1.229c-0.161,0.102-0.209,0.314-0.107,0.476c0.065,0.104,0.178,0.161,0.292,0.161
	c0.063,0,0.127-0.018,0.184-0.054l1.946-1.228c0.161-0.103,0.209-0.315,0.107-0.476C84.802,102.223,84.589,102.175,84.428,102.275z
	 M28.725,52.037L21.203,4.78h101.59l-7.521,47.257h1.048l7.687-48.292H19.991l7.686,48.292H28.725z M99.995,92.451l-1.946,1.229
	c-0.161,0.102-0.21,0.314-0.108,0.476c0.066,0.104,0.178,0.161,0.293,0.161c0.062,0,0.126-0.018,0.184-0.054l1.945-1.228
	c0.161-0.103,0.21-0.315,0.108-0.476C100.368,92.398,100.155,92.351,99.995,92.451z M80.536,104.731l-1.946,1.229
	c-0.161,0.102-0.209,0.314-0.107,0.477c0.066,0.104,0.178,0.16,0.292,0.16c0.062,0,0.127-0.017,0.184-0.054l1.946-1.228
	c0.161-0.102,0.209-0.314,0.107-0.476S80.696,104.631,80.536,104.731z M103.886,89.995l-1.945,1.229
	c-0.161,0.102-0.21,0.314-0.108,0.476c0.066,0.104,0.179,0.161,0.293,0.161c0.062,0,0.126-0.018,0.183-0.054l1.946-1.228
	c0.161-0.103,0.21-0.315,0.108-0.477C104.261,89.942,104.047,89.895,103.886,89.995z M92.211,97.364l-1.946,1.228
	c-0.161,0.102-0.209,0.314-0.106,0.476c0.064,0.104,0.177,0.161,0.291,0.161c0.063,0,0.127-0.018,0.185-0.053l1.945-1.229
	c0.161-0.102,0.209-0.314,0.107-0.477C92.585,97.311,92.372,97.262,92.211,97.364z M55.591,99.822
	c-0.161-0.103-0.374-0.055-0.476,0.106c-0.102,0.161-0.054,0.374,0.106,0.476l1.937,1.228c0.057,0.037,0.121,0.055,0.184,0.055
	c0.115,0,0.227-0.057,0.292-0.161c0.102-0.16,0.054-0.373-0.106-0.476L55.591,99.822z M51.718,97.366
	c-0.161-0.103-0.374-0.054-0.476,0.107c-0.102,0.16-0.054,0.374,0.107,0.476l1.936,1.229c0.057,0.036,0.121,0.053,0.185,0.053
	c0.114,0,0.226-0.057,0.292-0.16c0.102-0.16,0.054-0.374-0.106-0.476L51.718,97.366z M59.463,102.277
	c-0.161-0.103-0.374-0.055-0.476,0.106c-0.102,0.16-0.054,0.374,0.107,0.476l1.936,1.228c0.057,0.036,0.121,0.054,0.184,0.054
	c0.114,0,0.226-0.057,0.292-0.16c0.102-0.161,0.054-0.374-0.107-0.477L59.463,102.277z M63.335,104.732
	c-0.16-0.103-0.374-0.055-0.476,0.106c-0.102,0.161-0.055,0.374,0.106,0.477l1.937,1.228c0.057,0.036,0.121,0.053,0.184,0.053
	c0.114,0,0.226-0.057,0.292-0.16c0.102-0.16,0.054-0.374-0.107-0.476L63.335,104.732z M72.753,109.645l-0.837,0.527l-0.835-0.529
	c-0.161-0.103-0.374-0.055-0.476,0.106c-0.102,0.16-0.054,0.374,0.106,0.476l1.204,0.764l1.205-0.761
	c0.162-0.102,0.21-0.314,0.108-0.477C73.127,109.591,72.914,109.543,72.753,109.645z M28.785,37.401
	c0.018,0,0.036-0.001,0.055-0.005c0.188-0.03,0.316-0.206,0.287-0.395l-0.38-2.389c-0.03-0.188-0.206-0.317-0.395-0.286
	c-0.188,0.029-0.316,0.206-0.287,0.395l0.38,2.389C28.471,37.28,28.618,37.401,28.785,37.401z M76.644,107.188l-1.945,1.229
	c-0.161,0.102-0.209,0.314-0.107,0.476c0.065,0.104,0.178,0.161,0.292,0.161c0.062,0,0.127-0.018,0.184-0.054l1.946-1.228
	c0.161-0.102,0.209-0.314,0.107-0.477C77.019,107.135,76.805,107.087,76.644,107.188z M108.708,80.109l0.381-2.389
	c0.029-0.188-0.099-0.365-0.287-0.395c-0.188-0.031-0.364,0.099-0.395,0.286l-0.381,2.389c-0.029,0.189,0.099,0.365,0.287,0.396
	c0.018,0.003,0.037,0.004,0.055,0.004C108.535,80.4,108.681,80.279,108.708,80.109z M117.532,20.278l-0.381,2.389
	c-0.029,0.189,0.099,0.365,0.287,0.395c0.019,0.003,0.036,0.004,0.055,0.004c0.166,0,0.313-0.121,0.34-0.291l0.38-2.389
	c0.031-0.188-0.098-0.365-0.286-0.395C117.74,19.962,117.562,20.09,117.532,20.278z M116.312,32.331l0.381-2.389
	c0.029-0.189-0.099-0.365-0.287-0.395c-0.187-0.03-0.365,0.099-0.396,0.287l-0.38,2.389c-0.029,0.188,0.099,0.364,0.287,0.395
	c0.018,0.003,0.036,0.004,0.054,0.004C116.139,32.622,116.285,32.501,116.312,32.331z M116.771,25.056l-0.38,2.389
	c-0.03,0.188,0.099,0.365,0.286,0.395c0.019,0.003,0.037,0.005,0.055,0.005c0.167,0,0.313-0.121,0.341-0.291l0.38-2.389
	c0.03-0.188-0.099-0.365-0.287-0.395C116.979,24.739,116.802,24.868,116.771,25.056z M111.562,7.54c0.19,0,0.346-0.154,0.346-0.345
	c0-0.191-0.155-0.345-0.346-0.345h-2.397c-0.19,0-0.346,0.154-0.346,0.345c0,0.19,0.155,0.345,0.346,0.345H111.562z M115.552,37.109
	l0.381-2.389c0.029-0.188-0.099-0.365-0.286-0.395c-0.189-0.03-0.365,0.098-0.396,0.286L114.871,37
	c-0.03,0.188,0.098,0.365,0.286,0.395c0.018,0.003,0.037,0.005,0.055,0.005C115.379,37.4,115.524,37.278,115.552,37.109z
	 M120.114,8.441l0.254-1.591h-1.611c-0.191,0-0.346,0.154-0.346,0.345c0,0.19,0.154,0.345,0.346,0.345h0.803l-0.126,0.793
	c-0.03,0.188,0.099,0.365,0.286,0.395c0.019,0.003,0.037,0.004,0.055,0.004C119.941,8.732,120.088,8.611,120.114,8.441z
	 M119.448,10.436c-0.187-0.032-0.365,0.098-0.396,0.286l-0.38,2.389c-0.029,0.188,0.099,0.365,0.286,0.395
	c0.019,0.003,0.036,0.004,0.055,0.004c0.167,0,0.313-0.121,0.34-0.291l0.381-2.389C119.765,10.642,119.636,10.465,119.448,10.436z
	 M117.912,17.889c-0.029,0.188,0.099,0.364,0.286,0.395c0.02,0.003,0.037,0.004,0.056,0.004c0.166,0,0.312-0.121,0.34-0.29
	l0.38-2.389c0.03-0.188-0.098-0.365-0.286-0.395c-0.188-0.03-0.365,0.098-0.395,0.286L117.912,17.889z M114.886,39.103
	c-0.188-0.032-0.365,0.098-0.396,0.286l-0.38,2.389c-0.03,0.189,0.098,0.365,0.286,0.395c0.019,0.003,0.037,0.004,0.055,0.004
	c0.167,0,0.313-0.121,0.341-0.291l0.38-2.389C115.201,39.31,115.073,39.133,114.886,39.103z M116.358,6.85h-2.397
	c-0.191,0-0.346,0.154-0.346,0.345c0,0.19,0.154,0.345,0.346,0.345h2.397c0.19,0,0.345-0.154,0.345-0.345
	C116.703,7.004,116.549,6.85,116.358,6.85z M111.521,75.603l-2.271,14.271l-37.337,23.564L34.747,89.875l-2.271-14.272h-1.048
	l2.371,14.896l38.113,24.164l38.287-24.164l2.371-14.896H111.521z M107.948,84.888l0.38-2.389c0.029-0.188-0.099-0.365-0.286-0.396
	s-0.365,0.099-0.396,0.287l-0.38,2.389c-0.03,0.188,0.098,0.365,0.286,0.395c0.019,0.003,0.037,0.005,0.055,0.005
	C107.774,85.179,107.92,85.058,107.948,84.888z M109.241,75.603h-0.211c0.015,0.005,0.027,0.014,0.043,0.016
	c0.019,0.003,0.037,0.004,0.055,0.004C109.167,75.622,109.205,75.614,109.241,75.603z M106.017,89.403
	c0.062,0,0.127-0.017,0.184-0.053l1.153-0.728l0.214-1.346c0.029-0.189-0.099-0.365-0.286-0.396
	c-0.188-0.031-0.365,0.099-0.396,0.287l-0.165,1.037l-0.889,0.562c-0.161,0.102-0.21,0.314-0.107,0.476
	C105.79,89.347,105.902,89.403,106.017,89.403z M113.637,46.951c0.018,0.002,0.036,0.004,0.055,0.004
	c0.166,0,0.312-0.121,0.34-0.291l0.38-2.389c0.03-0.188-0.099-0.365-0.286-0.395c-0.187-0.032-0.364,0.098-0.395,0.286l-0.381,2.389
	C113.32,46.744,113.448,46.921,113.637,46.951z M112.97,48.945l-0.38,2.389c-0.03,0.188,0.098,0.365,0.286,0.395
	c0.019,0.003,0.036,0.005,0.055,0.005c0.166,0,0.313-0.121,0.34-0.291l0.381-2.389c0.029-0.189-0.099-0.365-0.287-0.395
	C113.177,48.628,113,48.757,112.97,48.945z M44.422,7.54c0.19,0,0.345-0.154,0.345-0.345c0-0.191-0.154-0.345-0.345-0.345h-2.398
	c-0.19,0-0.345,0.154-0.345,0.345c0,0.19,0.155,0.345,0.345,0.345H44.422z M58.81,7.54c0.19,0,0.345-0.154,0.345-0.345
	c0-0.191-0.154-0.345-0.345-0.345h-2.398c-0.191,0-0.345,0.154-0.345,0.345c0,0.19,0.154,0.345,0.345,0.345H58.81z M68.401,7.54
	c0.19,0,0.345-0.154,0.345-0.345c0-0.191-0.154-0.345-0.345-0.345h-2.397c-0.191,0-0.345,0.154-0.345,0.345
	c0,0.19,0.154,0.345,0.345,0.345H68.401z M54.014,7.54c0.19,0,0.345-0.154,0.345-0.345c0-0.191-0.154-0.345-0.345-0.345h-2.398
	c-0.19,0-0.345,0.154-0.345,0.345c0,0.19,0.154,0.345,0.345,0.345H54.014z M63.605,7.54c0.191,0,0.345-0.154,0.345-0.345
	c0-0.191-0.154-0.345-0.345-0.345h-2.397c-0.191,0-0.345,0.154-0.345,0.345c0,0.19,0.154,0.345,0.345,0.345H63.605z M39.626,7.54
	c0.19,0,0.345-0.154,0.345-0.345c0-0.191-0.154-0.345-0.345-0.345h-2.397c-0.191,0-0.345,0.154-0.345,0.345
	c0,0.19,0.154,0.345,0.345,0.345H39.626z M34.831,7.54c0.19,0,0.345-0.154,0.345-0.345c0-0.191-0.154-0.345-0.345-0.345h-2.397
	c-0.191,0-0.345,0.154-0.345,0.345c0,0.19,0.154,0.345,0.345,0.345H34.831z M49.218,7.54c0.19,0,0.345-0.154,0.345-0.345
	c0-0.191-0.155-0.345-0.345-0.345H46.82c-0.19,0-0.345,0.154-0.345,0.345c0,0.19,0.154,0.345,0.345,0.345H49.218z M101.971,7.54
	c0.191,0,0.346-0.154,0.346-0.345c0-0.191-0.154-0.345-0.346-0.345h-2.397c-0.19,0-0.345,0.154-0.345,0.345
	c0,0.19,0.154,0.345,0.345,0.345H101.971z M92.38,7.54c0.19,0,0.345-0.154,0.345-0.345c0-0.191-0.154-0.345-0.345-0.345h-2.398
	c-0.19,0-0.345,0.154-0.345,0.345c0,0.19,0.154,0.345,0.345,0.345H92.38z M97.176,7.54c0.19,0,0.345-0.154,0.345-0.345
	c0-0.191-0.154-0.345-0.345-0.345h-2.398c-0.19,0-0.345,0.154-0.345,0.345c0,0.19,0.154,0.345,0.345,0.345H97.176z M106.767,7.54
	c0.191,0,0.346-0.154,0.346-0.345c0-0.191-0.154-0.345-0.346-0.345h-2.397c-0.19,0-0.346,0.154-0.346,0.345
	c0,0.19,0.155,0.345,0.346,0.345H106.767z M73.196,7.54c0.191,0,0.346-0.154,0.346-0.345c0-0.191-0.154-0.345-0.346-0.345h-2.397
	c-0.19,0-0.345,0.154-0.345,0.345c0,0.19,0.154,0.345,0.345,0.345H73.196z M77.992,7.54c0.191,0,0.346-0.154,0.346-0.345
	c0-0.191-0.154-0.345-0.346-0.345h-2.397c-0.19,0-0.346,0.154-0.346,0.345c0,0.19,0.155,0.345,0.346,0.345H77.992z M87.584,7.54
	c0.19,0,0.346-0.154,0.346-0.345c0-0.191-0.155-0.345-0.346-0.345h-2.398c-0.19,0-0.345,0.154-0.345,0.345
	c0,0.19,0.154,0.345,0.345,0.345H87.584z M82.788,7.54c0.19,0,0.346-0.154,0.346-0.345c0-0.191-0.155-0.345-0.346-0.345h-2.397
	c-0.19,0-0.346,0.154-0.346,0.345c0,0.19,0.155,0.345,0.346,0.345H82.788z M65.018,78.088c0.018-0.106,0.107-0.15,0.226-0.094
	C65.417,78.27,64.976,78.34,65.018,78.088z M65.218,76.818c-0.027-0.045-0.075-0.054-0.125-0.041
	c-0.007,0.033-0.018,0.062-0.013,0.108C65.132,76.927,65.228,76.915,65.218,76.818z M65.307,79.532
	c0.139-0.152,0.001-0.428-0.213-0.364C64.776,79.262,65.08,79.783,65.307,79.532z M65.809,80.303
	c0.32-0.058,0.271-0.649-0.126-0.567C65.325,79.809,65.464,80.364,65.809,80.303z M64.717,80.168
	c0.156-0.174-0.012-0.412-0.201-0.365c-0.106,0.026-0.145,0.099-0.151,0.176C64.343,80.237,64.611,80.283,64.717,80.168z
	 M65.357,80.87c0.219-0.232-0.002-0.573-0.264-0.514C64.665,80.455,65.035,81.212,65.357,80.87z M64.628,81.545
	c0.222-0.034,0.268-0.364,0.125-0.5c-0.051-0.049-0.123-0.065-0.213-0.054C64.163,81.038,64.29,81.598,64.628,81.545z
	 M64.704,78.763c0.02-0.148-0.151-0.215-0.263-0.121C64.346,78.906,64.68,78.948,64.704,78.763z M64.641,77.453
	c-0.032-0.023-0.047-0.067-0.113-0.054c-0.005,0.017-0.016,0.027-0.037,0.026c-0.011,0.069,0.01,0.106,0.037,0.136
	C64.592,77.553,64.647,77.536,64.641,77.453z M65.947,78.722c-0.042-0.208-0.34-0.237-0.415-0.026
	C65.516,79.033,65.935,79.021,65.947,78.722z M66.362,75.616C66.341,75.415,66.181,75.685,66.362,75.616L66.362,75.616z
	 M67.077,77.493c0.004-0.122-0.1-0.202-0.188-0.188c-0.121,0.019-0.154,0.095-0.151,0.188C66.746,77.727,67.07,77.697,67.077,77.493
	z M66.901,79.033c0.342,0.017,0.335-0.629-0.038-0.554C66.57,78.539,66.618,79.02,66.901,79.033z M67.554,78.371
	c0.087-0.019,0.211-0.138,0.164-0.337c-0.028-0.118-0.137-0.178-0.276-0.148C67.115,77.953,67.26,78.435,67.554,78.371z
	 M66.876,76.318c0.084,0.019,0.14-0.111,0.075-0.175C66.797,76.033,66.781,76.298,66.876,76.318z M65.847,77.426
	c-0.064-0.136-0.241-0.085-0.239,0.054C65.61,77.629,65.88,77.676,65.847,77.426z M66.587,79.465
	c0.045-0.215-0.078-0.391-0.289-0.364c-0.163,0.021-0.271,0.121-0.239,0.338C66.099,79.702,66.527,79.753,66.587,79.465z
	 M65.709,76.278c0.039,0.007,0.048-0.02,0.075-0.027C65.815,76.045,65.581,76.2,65.709,76.278z M66.211,78.29
	c0.268,0.173,0.409-0.361,0.125-0.364C66.119,77.924,66.072,78.2,66.211,78.29z M66.412,76.777
	c-0.097-0.097-0.235-0.011-0.201,0.108C66.249,77.016,66.494,76.962,66.412,76.777z M63.637,82.517c0-0.168-0.135-0.268-0.264-0.242
	c-0.087,0.017-0.131,0.041-0.164,0.094C62.988,82.741,63.635,82.936,63.637,82.517z M62.871,82.058
	c0.304-0.187-0.164-0.563-0.226-0.162c0.029,0.064,0.067,0.117,0.113,0.162C62.795,82.058,62.833,82.058,62.871,82.058z
	 M62.808,83.367c0.139,0.007,0.191-0.108,0.226-0.243c-0.058-0.314-0.489-0.203-0.427,0.082
	C62.618,83.257,62.707,83.363,62.808,83.367z M62.908,80.707c0.081-0.259-0.232-0.257-0.214-0.067
	C62.704,80.738,62.822,80.779,62.908,80.707z M62.82,79.451c0.08-0.02,0.074-0.159-0.025-0.188
	C62.696,79.318,62.727,79.476,62.82,79.451z M63.059,84.488c0.093-0.393-0.448-0.452-0.477-0.121
	C62.555,84.66,62.958,84.738,63.059,84.488z M67.63,76.818c-0.015-0.083-0.083-0.115-0.151-0.108
	c-0.101,0.012-0.133,0.076-0.138,0.108C67.307,77.047,67.68,77.101,67.63,76.818z M62.28,79.992
	c0.002-0.003,0.002-0.002,0.003-0.004c-0.004,0-0.009-0.002-0.015-0.01c-0.014-0.02-0.043-0.104-0.113-0.04
	c-0.016,0.041,0.004,0.038,0,0.094C62.217,80.086,62.257,80.025,62.28,79.992z M63.976,76.886c0.001-0.017,0.003-0.032,0.025-0.026
	C63.998,76.746,63.895,76.856,63.976,76.886z M62.255,78.736c-0.015-0.003-0.014-0.021-0.012-0.041
	c-0.073-0.004-0.065,0.055-0.025,0.081C62.219,78.751,62.259,78.768,62.255,78.736z M62.845,78.142
	c0.005-0.055-0.005-0.094-0.05-0.094c-0.031,0.036-0.02,0.088,0.013,0.121C62.805,78.116,62.827,78.173,62.845,78.142z
	 M62.331,81.288c0.052-0.214-0.325-0.181-0.189,0.054C62.214,81.387,62.315,81.352,62.331,81.288z M64.176,82.099
	c0.194-0.193-0.022-0.561-0.251-0.473C63.507,81.771,63.895,82.379,64.176,82.099z M62.569,86.825
	c-0.016,0.139,0.02,0.222,0.062,0.296c0.2,0.174,0.534,0.009,0.44-0.323C62.973,86.567,62.646,86.587,62.569,86.825z M63.976,80.828
	c0.289,0.008,0.238-0.477-0.038-0.403C63.724,80.48,63.772,80.823,63.976,80.828z M64.126,79.371
	c-0.042-0.254-0.338-0.156-0.277,0.054C63.89,79.562,64.124,79.508,64.126,79.371z M64,78.007c-0.082-0.006-0.113,0.041-0.113,0.094
	C63.888,78.288,64.174,78.143,64,78.007z M63.31,85.34c0.153,0,0.3,0.011,0.364-0.055c0-0.152,0-0.306,0-0.459
	c-0.063-0.032-0.107-0.107-0.176-0.121C63.109,84.62,62.983,85.237,63.31,85.34z M63.36,81.072c-0.141,0.03-0.203,0.261-0.076,0.352
	C63.578,81.63,63.703,80.997,63.36,81.072z M63.473,78.75c0.024-0.117-0.186-0.176-0.163,0.026
	C63.373,78.854,63.46,78.811,63.473,78.75z M63.561,83.517c-0.057-0.038-0.138-0.036-0.188-0.027
	c-0.249,0.043-0.308,0.357-0.15,0.514C63.527,84.306,63.852,83.715,63.561,83.517z M63.523,79.951
	c-0.044-0.211-0.374-0.034-0.239,0.148C63.426,80.203,63.553,80.092,63.523,79.951z M62.795,85.934
	c0.174,0.018,0.366-0.208,0.264-0.418c-0.041-0.085-0.155-0.146-0.276-0.122C62.476,85.455,62.539,85.908,62.795,85.934z
	 M61.552,90.768c0.136,0.094,0.242-0.071,0.138-0.188C61.565,90.567,61.504,90.672,61.552,90.768z M62.18,86.083
	c-0.105,0.027-0.15,0.095-0.15,0.201c0,0.394,0.558,0.202,0.389-0.121C62.4,86.13,62.321,86.044,62.18,86.083z M62.18,87.338
	c-0.231,0.061-0.15,0.406,0.038,0.419C62.492,87.774,62.528,87.246,62.18,87.338z M62.129,92.618c0.02,0.071,0.096,0.07,0.176,0.041
	C62.422,92.448,62.07,92.406,62.129,92.618z M62.042,88.823c0.023,0.313,0.566,0.124,0.327-0.188
	C62.202,88.524,62.029,88.652,62.042,88.823z M62.18,89.903c-0.092,0.03-0.112,0.106-0.113,0.149
	c-0.004,0.239,0.359,0.243,0.327-0.027C62.381,89.923,62.292,89.866,62.18,89.903z M61.514,88.081
	c-0.026,0.078-0.001,0.156,0.025,0.216C61.887,88.466,61.802,87.825,61.514,88.081z M62.167,93.779
	c-0.03,0.081,0.015,0.15,0.088,0.122c0.021-0.043,0.021-0.057,0.013-0.108C62.228,93.771,62.215,93.77,62.167,93.779z
	 M61.514,89.472c0.017,0.068,0.087,0.09,0.201,0.082C61.944,89.31,61.438,89.18,61.514,89.472z M61.514,85.744
	c0.104,0.117,0.28,0.055,0.276-0.094C61.785,85.432,61.424,85.442,61.514,85.744z M62.18,95.049
	c0.001,0.023-0.003,0.042-0.013,0.054c0.04-0.012,0.026,0.035,0.05,0.041c0.011-0.023,0.046-0.023,0.05-0.055
	C62.244,95.058,62.223,95.024,62.18,95.049z M62.104,91.389c0.064,0.143,0.331,0.059,0.238-0.161
	C62.218,91.1,62.039,91.245,62.104,91.389z M62.645,91.956c0.033,0.245,0.399,0.176,0.327-0.081
	C62.925,91.715,62.647,91.757,62.645,91.956z M62.782,90.485c-0.279,0.051-0.166,0.458,0.088,0.404
	c0.132-0.027,0.169-0.239,0.113-0.338C62.949,90.492,62.875,90.468,62.782,90.485z M62.782,93.077
	c-0.07,0.021-0.103,0.072-0.101,0.136c0.008,0.204,0.281,0.159,0.264-0.028C62.939,93.115,62.889,93.046,62.782,93.077z
	 M62.82,89.188c-0.383,0.022-0.227,0.58,0.075,0.473C63.138,89.574,63.075,89.174,62.82,89.188z M62.757,99.464
	c-0.004,0.06,0.023,0.084,0.05,0.109C62.891,99.531,62.833,99.393,62.757,99.464z M62.77,87.918
	c-0.215,0.046-0.27,0.307-0.138,0.446c0.149,0.157,0.396,0.038,0.44-0.095C63.138,88.065,62.981,87.874,62.77,87.918z
	 M62.368,82.544c0.02-0.125-0.081-0.217-0.188-0.176C61.893,82.479,62.318,82.859,62.368,82.544z M62.757,96.912
	c-0.019,0.063-0.03,0.088,0,0.148C62.933,97.104,62.901,96.845,62.757,96.912z M62.757,95.629c-0.136,0.142,0.128,0.291,0.138,0.095
	C62.898,95.666,62.864,95.603,62.757,95.629z M62.732,94.373c-0.084,0.149,0.08,0.284,0.164,0.176
	C62.965,94.459,62.872,94.281,62.732,94.373z M62.745,98.263c0.02,0.028,0.046,0.049,0.101,0.041
	c0.021-0.043,0.021-0.057,0.013-0.108C62.807,98.154,62.746,98.181,62.745,98.263z M61.564,91.997
	c0.056,0.017,0.086,0.03,0.125,0.013c0.024-0.032,0.015-0.116-0.012-0.135C61.591,91.864,61.556,91.907,61.564,91.997z
	 M61.074,81.288c0.011-0.016,0.017-0.036,0.013-0.067c-0.045-0.026-0.046,0.005-0.088,0.014
	C61.007,81.271,61.034,81.287,61.074,81.288z M61.137,85.002c-0.017-0.104-0.209-0.086-0.163,0.067
	C61.046,85.161,61.15,85.079,61.137,85.002z M61.1,82.544c0.022-0.166-0.17-0.069-0.075,0.027
	C61.064,82.577,61.073,82.551,61.1,82.544z M61.112,83.812c0.011-0.088-0.015-0.136-0.101-0.121c-0.035,0.025-0.035,0.125,0,0.149
	C61.061,83.848,61.085,83.829,61.112,83.812z M61.678,84.543c0.247-0.099-0.057-0.45-0.164-0.217
	C61.465,84.436,61.533,84.532,61.678,84.543z M62.406,83.787c0.008-0.131-0.098-0.224-0.239-0.176
	c-0.058,0.03-0.09,0.056-0.101,0.094C61.996,83.973,62.39,84.036,62.406,83.787z M61.552,81.828c0,0.032,0,0.063,0,0.095
	C61.745,82.086,61.751,81.669,61.552,81.828z M62.431,85.002c-0.011-0.12-0.098-0.218-0.264-0.162
	c-0.085,0.028-0.121,0.11-0.125,0.162C62.011,85.355,62.456,85.285,62.431,85.002z M61.69,80.653
	c0.02-0.095-0.058-0.112-0.101-0.067c-0.007,0.049,0.015,0.065,0.025,0.095C61.644,80.677,61.666,80.664,61.69,80.653z
	 M61.552,83.044c-0.026,0.062-0.033,0.131,0,0.189C61.802,83.374,61.792,82.905,61.552,83.044z M61.112,90.053
	c-0.002-0.03-0.021-0.03-0.038-0.067C60.842,90.011,61.126,90.24,61.112,90.053z M61.137,86.23c-0.042-0.039-0.07-0.057-0.138-0.04
	C60.854,86.347,61.172,86.507,61.137,86.23z M61.627,93.145c0.001,0.024-0.012,0.032-0.038,0.027
	c-0.007,0.079,0.037,0.081,0.088,0.067C61.69,93.176,61.655,93.163,61.627,93.145z M60.961,87.554
	c0.017,0.16,0.278,0.053,0.138-0.107C61.002,87.425,60.956,87.501,60.961,87.554z M60.999,91.28c0,0.023,0,0.046,0,0.068
	c0.051,0.015,0.078,0.004,0.101-0.04c-0.018-0.004-0.015-0.03-0.025-0.041C61.036,91.259,61.038,91.291,60.999,91.28z
	 M60.986,88.864c0.088,0.058,0.179-0.039,0.126-0.136C61.02,88.676,60.935,88.767,60.986,88.864z M60.497,85.677
	c0.008-0.049-0.026-0.053-0.062-0.054C60.414,85.679,60.443,85.693,60.497,85.677z M60.472,84.354c0,0.022,0,0.045,0,0.067
	C60.51,84.442,60.51,84.333,60.472,84.354z M60.446,88.135c-0.017,0.018-0.021,0.081,0.013,0.081
	c0.004-0.028,0.056-0.004,0.05-0.041C60.49,88.16,60.483,88.131,60.446,88.135z M60.421,86.893c-0.004,0.037,0.042,0.036,0.05,0.067
	c0.057-0.006,0.051-0.062,0.025-0.095C60.459,86.879,60.435,86.884,60.421,86.893z M63.448,77.467
	c-0.023-0.012-0.033-0.037-0.076-0.027c-0.03,0.034-0.005,0.043-0.038,0.067c0.015,0.007,0.029,0.015,0.038,0.027
	C63.415,77.529,63.427,77.493,63.448,77.467z M79.222,80.815c0.346-0.059-0.021-0.658-0.214-0.256
	C78.99,80.744,79.07,80.842,79.222,80.815z M79.246,79.492c0.114-0.061,0.075-0.332-0.125-0.257
	C78.99,79.345,79.11,79.564,79.246,79.492z M79.46,83.111c-0.025-0.302-0.439-0.362-0.565-0.095
	c0.004,0.109-0.009,0.235,0.013,0.324C79.11,83.567,79.485,83.411,79.46,83.111z M79.259,78.155
	c0.058-0.218-0.244-0.126-0.113,0.027C79.204,78.195,79.222,78.165,79.259,78.155z M78.656,77.547
	c0.022-0.062,0.026-0.07,0.013-0.121c-0.075-0.067-0.186,0.03-0.113,0.121C78.589,77.547,78.622,77.547,78.656,77.547z
	 M79.359,82.071c0.163-0.244-0.062-0.479-0.238-0.432C78.75,81.736,79.03,82.376,79.359,82.071z M79.222,76.859
	c0.002-0.034-0.028-0.033-0.037-0.055c0.002,0.032-0.037,0.015-0.039,0.04C79.19,76.85,79.177,76.882,79.222,76.859z M79.812,81.437
	c0.207-0.047,0.129-0.419-0.088-0.352C79.492,81.158,79.615,81.481,79.812,81.437z M79.786,82.746
	c0.271-0.03,0.229-0.479-0.037-0.458C79.443,82.31,79.499,82.779,79.786,82.746z M79.484,84.895c0.006,0.102-0.013,0.229,0.014,0.31
	c0.074,0.09,0.168,0.144,0.275,0.136c0.139-0.011,0.278-0.168,0.277-0.311C80.047,84.728,79.623,84.605,79.484,84.895z
	 M79.799,84.057c0.342-0.049,0.23-0.747-0.188-0.527C79.397,83.702,79.526,84.096,79.799,84.057z M78.82,81.396
	c0.193-0.447-0.578-0.58-0.479-0.04C78.425,81.578,78.731,81.599,78.82,81.396z M78.191,79.438c0.039-0.171-0.036-0.315-0.238-0.257
	c-0.059,0.017-0.11,0.055-0.126,0.095C77.709,79.568,78.134,79.688,78.191,79.438z M78.254,80.748
	c0.081-0.214-0.099-0.411-0.264-0.392c-0.155,0.019-0.236,0.103-0.251,0.243C77.701,80.99,78.168,80.979,78.254,80.748z
	 M77.45,76.278c0.04-0.029,0.038-0.078,0.013-0.122c-0.021,0-0.042,0-0.063,0c0.002,0.037,0.003,0.07-0.024,0.04
	C77.373,76.253,77.398,76.28,77.45,76.278z M78.707,78.642c-0.019-0.023-0.061-0.029-0.102-0.026
	c-0.094,0.004-0.138,0.028-0.138,0.121C78.468,79.009,78.846,78.812,78.707,78.642z M77.552,77.493
	c0.007-0.103-0.074-0.158-0.152-0.135C77.137,77.44,77.53,77.773,77.552,77.493z M77.399,78.952c0.275,0.022,0.28-0.479-0.024-0.392
	C77.155,78.624,77.26,78.94,77.399,78.952z M78.531,79.816c-0.172,0.055-0.137,0.306-0.051,0.365
	C78.789,80.391,78.934,79.687,78.531,79.816z M79.887,79.938c-0.046-0.161-0.33-0.029-0.227,0.147
	C79.761,80.189,79.928,80.079,79.887,79.938z M67.529,75.644c0.077-0.154-0.159-0.146-0.087,0
	C67.491,75.65,67.479,75.65,67.529,75.644z M78.079,76.886c0.063-0.139-0.187-0.139-0.101,0.014
	C78.01,76.916,78.033,76.906,78.079,76.886z M81.005,80.019c0.012-0.117-0.071-0.105-0.113-0.054
	C80.882,80.049,80.964,80.061,81.005,80.019z M81.607,84.502c0.091-0.082,0.014-0.272-0.125-0.216
	C81.289,84.364,81.489,84.609,81.607,84.502z M81.569,83.246c0.033-0.032,0.05-0.081,0.063-0.135
	c-0.092-0.186-0.299,0.016-0.15,0.135C81.511,83.246,81.54,83.246,81.569,83.246z M81.005,82.382
	c-0.071-0.044-0.211,0.031-0.188,0.162C80.853,82.766,81.208,82.554,81.005,82.382z M81.595,81.923
	c0.014-0.056,0.002-0.082-0.025-0.121c-0.044,0.001-0.072,0.021-0.112,0.026c0,0.032,0,0.063,0,0.095
	C81.505,81.946,81.549,81.958,81.595,81.923z M81.029,81.193c-0.093-0.125-0.244,0.052-0.138,0.148
	C80.939,81.372,81.065,81.335,81.029,81.193z M77.563,80.262c0.24-0.139,0.092-0.541-0.151-0.526
	C76.956,79.764,77.206,80.469,77.563,80.262z M82.147,82.558c0-0.031,0-0.063,0-0.095c-0.044-0.023-0.089,0.006-0.075,0.081
	C82.104,82.562,82.11,82.573,82.147,82.558z M79.849,78.776c0.017-0.098-0.037-0.122-0.112-0.122
	c-0.021,0.044-0.037,0.065-0.025,0.122C79.734,78.814,79.827,78.814,79.849,78.776z M81.583,80.586
	c-0.025-0.022-0.105-0.022-0.101,0.027c0,0.014,0,0.026,0,0.04C81.537,80.698,81.61,80.659,81.583,80.586z M82.186,85.056
	c0-0.05-0.02-0.078-0.038-0.107c-0.103-0.034-0.128,0.097-0.075,0.147C82.126,85.101,82.154,85.077,82.186,85.056z M82.172,83.8
	c0.03-0.137-0.148-0.112-0.113,0.013C82.089,83.828,82.134,83.83,82.172,83.8z M80.427,83.341c0.103-0.052,0.152-0.235,0.075-0.338
	C80.265,82.686,79.919,83.418,80.427,83.341z M80.427,82.044c0.101-0.073,0.085-0.271,0-0.31
	C80.195,81.626,80.091,82.105,80.427,82.044z M80.339,84.638c0.299,0.007,0.294-0.545-0.05-0.46
	C80.037,84.241,80.1,84.632,80.339,84.638z M79.749,77.507c0.038,0.01,0.037-0.023,0.075-0.014
	C79.818,77.396,79.732,77.465,79.749,77.507z M80.314,85.906c0.362,0.035,0.319-0.517,0.024-0.499
	C80.026,85.425,80.053,85.882,80.314,85.906z M80.414,79.425c0.054-0.084-0.007-0.165-0.088-0.148
	C80.265,79.36,80.281,79.474,80.414,79.425z M81.104,84.988c-0.016-0.108-0.1-0.154-0.2-0.135c-0.104,0.02-0.145,0.096-0.151,0.135
	C80.709,85.271,81.153,85.313,81.104,84.988z M80.39,78.088c-0.006-0.018-0.017-0.027-0.038-0.027
	c-0.027,0.037-0.014,0.033-0.025,0.081C80.366,78.144,80.381,78.119,80.39,78.088z M80.954,83.935c0.17-0.018,0.166-0.36-0.05-0.311
	C80.707,83.67,80.764,83.955,80.954,83.935z M80.452,80.546c-0.095-0.087-0.236-0.002-0.201,0.121
	C80.29,80.801,80.542,80.741,80.452,80.546z M78.079,78.236c0.146-0.078,0.018-0.297-0.089-0.257
	C77.816,78.046,77.935,78.312,78.079,78.236z M70.431,77.791c0.34-0.021,0.334-0.64-0.063-0.567
	C70.018,77.287,70.147,77.808,70.431,77.791z M71.146,77.047c0.095-0.091,0.069-0.364-0.062-0.404
	C70.535,76.569,70.861,77.325,71.146,77.047z M70.368,76.387c0.246,0.064,0.267-0.389-0.013-0.312
	C70.205,76.13,70.251,76.356,70.368,76.387z M70.468,74.941c-0.018-0.021-0.031-0.047-0.062-0.054
	c-0.036,0.033-0.04,0.075-0.025,0.107C70.439,75.01,70.451,74.972,70.468,74.941z M71.498,77.791
	c0.346,0.099,0.433-0.383,0.264-0.526c-0.044-0.038-0.112-0.06-0.188-0.055c-0.17,0.011-0.313,0.134-0.264,0.365
	C71.325,77.645,71.435,77.772,71.498,77.791z M71.108,75.59c-0.001-0.078-0.078-0.115-0.138-0.096
	C70.726,75.574,71.112,75.854,71.108,75.59z M72.101,76.656c-0.145,0.039-0.216,0.271-0.088,0.391
	C72.332,77.347,72.577,76.525,72.101,76.656z M72.176,75.711c0.027-0.025,0.062-0.041,0.088-0.067c0.038-0.195-0.2-0.201-0.2-0.041
	C72.081,75.659,72.125,75.688,72.176,75.711z M71.586,76.399c0.206-0.005,0.199-0.378-0.025-0.338
	C71.35,76.101,71.405,76.404,71.586,76.399z M71.561,75.009c0.009,0,0.017,0,0.025,0c0.007,0,0.015-0.002,0.013-0.014
	c-0.026-0.008,0.039-0.003,0.038-0.054c-0.029-0.01-0.034-0.045-0.063-0.054c-0.001,0.025-0.042,0.009-0.038,0.04
	c0.01,0.012,0.004,0.05,0.038,0.067C71.566,74.996,71.559,74.997,71.561,75.009z M72.628,77.764c0.391,0.209,0.549-0.621,0.076-0.54
	C72.447,77.268,72.432,77.659,72.628,77.764z M68.848,78.371c0.214-0.162,0.069-0.587-0.238-0.526
	C68.145,77.936,68.487,78.646,68.848,78.371z M69.928,75.562c-0.063-0.134-0.266-0.036-0.176,0.108
	C69.841,75.712,69.933,75.664,69.928,75.562z M68.12,76.346c0.054-0.052,0.104-0.147,0.05-0.216
	C68.021,75.943,67.806,76.37,68.12,76.346z M68.735,75.562c-0.027-0.024-0.052-0.053-0.088-0.068
	c-0.035,0.026-0.065,0.057-0.075,0.108C68.597,75.696,68.748,75.688,68.735,75.562z M68.283,77.521
	c0.017-0.18-0.104-0.3-0.276-0.243c-0.117,0.038-0.14,0.139-0.139,0.216C67.875,77.774,68.257,77.781,68.283,77.521z M68.61,77.047
	c0.134,0.037,0.169-0.059,0.226-0.121c0-0.059,0.005-0.121-0.013-0.161C68.586,76.45,68.344,76.977,68.61,77.047z M69.991,77.021
	c0.142-0.173-0.033-0.397-0.201-0.365c-0.17,0.032-0.211,0.267-0.101,0.378C69.761,77.106,69.927,77.1,69.991,77.021z
	 M69.288,74.969c-0.023-0.002-0.008-0.046-0.025-0.055c-0.032,0.018-0.04-0.007-0.05,0.014c0.016,0.016,0.01,0.035-0.013,0.054
	C69.231,75.009,69.269,75.014,69.288,74.969z M76.897,75.562C76.78,75.508,76.859,75.692,76.897,75.562L76.897,75.562z
	 M69.363,76.318c0.11-0.31-0.315-0.311-0.263-0.054C69.121,76.371,69.277,76.41,69.363,76.318z M69.301,77.764
	c0.178-0.038,0.238-0.343,0.112-0.473c-0.043-0.046-0.111-0.062-0.188-0.055C68.859,77.273,69,77.827,69.301,77.764z M76.27,77.655
	c0.182-0.023,0.182-0.408-0.05-0.337C76.021,77.379,76.111,77.677,76.27,77.655z M75.178,76.13
	c-0.097-0.071-0.222-0.004-0.188,0.148C75.087,76.42,75.273,76.281,75.178,76.13z M75.742,75.616c0-0.022,0-0.045,0-0.067
	c-0.026-0.042-0.108-0.031-0.126,0.014C75.615,75.64,75.696,75.665,75.742,75.616z M75.718,77.008
	c0.093-0.023,0.132-0.193,0.051-0.284C75.471,76.598,75.487,77.064,75.718,77.008z M75.806,78.331
	c0.187-0.131,0.082-0.484-0.163-0.445C75.265,77.944,75.51,78.538,75.806,78.331z M76.245,79.02
	c0.078,0.002,0.137-0.045,0.201-0.081c0.164-0.228-0.052-0.547-0.289-0.445c-0.121,0.051-0.194,0.234-0.126,0.405
	C76.099,78.942,76.142,79.017,76.245,79.02z M76.245,76.306c0.106,0.021,0.129-0.199,0.013-0.176
	C76.163,76.147,76.163,76.289,76.245,76.306z M72.83,76.387c0.077-0.057,0.106-0.211,0.037-0.284
	c-0.16-0.17-0.387,0.135-0.188,0.284C72.729,76.387,72.779,76.387,72.83,76.387z M76.91,76.939c0.113-0.109-0.045-0.279-0.149-0.162
	C76.698,76.881,76.807,76.978,76.91,76.939z M76.722,79.641c0.503,0.102,0.441-0.604,0.05-0.526
	C76.574,79.153,76.497,79.518,76.722,79.641z M77.023,78.074c-0.013-0.096-0.119-0.186-0.252-0.135
	c-0.055,0.036-0.085,0.054-0.1,0.095C76.567,78.34,77.067,78.411,77.023,78.074z M73.432,75.616
	c-0.007-0.232-0.297-0.06-0.138,0.068C73.376,75.7,73.395,75.648,73.432,75.616z M74.147,77.575c0.042-0.195-0.09-0.383-0.302-0.324
	c-0.109,0.029-0.154,0.124-0.162,0.202C73.647,77.803,74.092,77.836,74.147,77.575z M73.395,77.075
	c0.211-0.052,0.166-0.447-0.076-0.419C73.014,76.692,73.135,77.138,73.395,77.075z M72.753,75.009c0-0.045,0.051-0.036,0.062-0.067
	c-0.038-0.026-0.08-0.085-0.112-0.014c0.014,0.013,0.003,0.025,0.013,0.067C72.734,74.994,72.743,75.002,72.753,75.009z
	 M74.048,76.306c0.062-0.126-0.033-0.268-0.176-0.217C73.623,76.178,73.938,76.525,74.048,76.306z M74.663,76.752
	c-0.104-0.131-0.311-0.083-0.327,0.08C74.309,77.127,74.77,77.115,74.663,76.752z M73.872,74.981c0.035,0.017,0.076,0.016,0.1-0.013
	c-0.025-0.009-0.003-0.069-0.05-0.055c-0.004,0.028-0.047,0.013-0.05,0.041c0.009,0.003,0.023,0,0.024,0.014
	C73.888,74.971,73.872,74.969,73.872,74.981z M74.524,75.671c0.038-0.009,0.036-0.05,0.062-0.095
	C74.471,75.359,74.346,75.71,74.524,75.671z M75.052,77.277c-0.162,0.026-0.242,0.261-0.113,0.378
	C75.247,77.936,75.471,77.21,75.052,77.277z M74.775,78.142c0.015-0.41-0.611-0.404-0.553,0.067
	C74.326,78.519,74.765,78.447,74.775,78.142z M61.602,86.771c-0.344,0.103,0.178,0.521,0.188,0.148
	C61.793,86.805,61.703,86.741,61.602,86.771z M78.556,96.115c-0.276,0.039-0.244,0.463,0,0.486
	C78.87,96.633,78.915,96.065,78.556,96.115z M78.581,97.398c-0.087,0.009-0.151,0.044-0.176,0.095
	c-0.172,0.346,0.412,0.464,0.389,0.095C78.786,97.455,78.714,97.386,78.581,97.398z M78.43,98.884
	c0.021,0.307,0.513,0.093,0.265-0.176C78.528,98.647,78.422,98.752,78.43,98.884z M78.694,92.267
	c-0.134-0.007-0.315,0.002-0.377,0.027c0,0.162,0,0.324,0,0.486c0.216,0.248,0.642,0.047,0.553-0.312
	C78.847,92.377,78.771,92.327,78.694,92.267z M78.518,93.55c-0.151,0.033-0.252,0.151-0.2,0.378c0.058,0.259,0.526,0.292,0.539-0.08
	C78.864,93.656,78.771,93.493,78.518,93.55z M78.605,94.819c-0.172-0.007-0.264,0.097-0.276,0.243
	c-0.021,0.269,0.229,0.39,0.402,0.271C78.926,95.197,78.825,94.827,78.605,94.819z M78.543,100.019
	c-0.074,0.037-0.075,0.099-0.062,0.148c0.035,0.145,0.244,0.074,0.251-0.027C78.736,100.065,78.655,99.962,78.543,100.019z
	 M77.727,95.48c0,0.145,0,0.289,0,0.433c0.152,0.196,0.513,0.124,0.565-0.094C78.38,95.452,77.962,95.31,77.727,95.48z
	 M77.953,96.696c-0.386,0.075-0.217,0.682,0.126,0.567C78.402,97.155,78.26,96.637,77.953,96.696z M78.556,102.611
	c0,0.021,0,0.045,0,0.067c0.046-0.01,0.069,0.032,0.101,0c0.005-0.056-0.034-0.062-0.051-0.095
	C78.618,102.625,78.578,102.607,78.556,102.611z M78.518,101.408c0.028,0.039,0.065,0.066,0.139,0.055
	c0-0.04,0.033-0.046,0.038-0.081C78.668,101.284,78.512,101.272,78.518,101.408z M78.996,95.805c0.095,0.23,0.487,0.08,0.351-0.202
	C79.225,95.458,78.926,95.513,78.996,95.805z M78.97,94.388c-0.057,0.242,0.194,0.387,0.377,0.229
	C79.554,94.291,79.041,94.089,78.97,94.388z M77.84,98.046c-0.042,0.085-0.079,0.115-0.075,0.204c0.011,0.293,0.462,0.313,0.478,0
	C78.252,98.035,78.004,97.915,77.84,98.046z M79.134,92.969c-0.215,0.038-0.264,0.351-0.088,0.46
	C79.408,93.652,79.564,92.894,79.134,92.969z M79.108,91.673c-0.296,0.068-0.232,0.526,0.025,0.554
	C79.511,92.267,79.521,91.576,79.108,91.673z M78.895,90.485c0,0.116,0,0.232,0,0.351c0.097,0.172,0.364,0.199,0.49,0.066
	C79.659,90.613,79.197,90.131,78.895,90.485z M79.185,100.667c-0.096,0.035-0.067,0.218,0.05,0.161
	C79.284,100.76,79.239,100.693,79.185,100.667z M79.021,96.912c-0.09,0.276,0.387,0.348,0.326,0
	C79.252,96.782,79.072,96.753,79.021,96.912z M79.083,99.491c-0.005,0.078,0.064,0.16,0.176,0.108
	C79.376,99.392,79.096,99.312,79.083,99.491z M79.146,102.029c0.018,0.015,0.025,0.037,0.051,0.041
	c-0.019-0.051,0.056-0.002,0.038-0.054C79.211,101.971,79.166,102.002,79.146,102.029z M79.046,98.25
	c0.009,0.192,0.284,0.17,0.289-0.028C79.278,98.031,79.037,98.076,79.046,98.25z M76.106,101.545
	c0.109,0.103,0.307,0.038,0.353-0.082C76.524,100.956,75.834,101.2,76.106,101.545z M77.84,99.613
	c0.156,0.155,0.374,0.06,0.352-0.149C78.16,99.172,77.682,99.326,77.84,99.613z M79.297,89.742c-0.122,0-0.242,0-0.364,0
	c-0.089,0.134,0.007,0.466-0.062,0.621c-0.12,0.039-0.243-0.009-0.339,0.014c-0.272,0.061-0.257,0.484-0.076,0.634
	c0.108,0,0.218,0,0.326,0c0.169,0.117,0.147,0.561-0.05,0.621c-0.109,0-0.218,0-0.326,0c-0.149,0.076-0.065,0.467-0.088,0.635
	c-0.049,0.025-0.218-0.016-0.364,0c-0.148,0.064-0.234,0.196-0.214,0.378c0.027,0.236,0.228,0.271,0.503,0.243
	c0.115,0.13,0.115,0.57-0.051,0.636c-0.132,0.02-0.225-0.027-0.314,0c-0.217,0.065-0.176,0.484-0.062,0.634
	c0.195,0.008,0.343-0.031,0.428,0.068c0.137,0.161,0.065,0.475-0.113,0.554c-0.113,0-0.226,0-0.339,0
	c-0.127,0.103-0.025,0.45-0.075,0.634c-0.146,0.018-0.248-0.025-0.352,0c-0.262,0.063-0.261,0.505-0.051,0.622
	c0.108,0,0.218,0,0.326,0c0.13,0.13,0.13,0.567-0.05,0.634c-0.109,0-0.218,0-0.326,0c-0.163,0.061-0.152,0.525-0.089,0.621
	c0.098,0.04,0.28-0.013,0.378,0.028c0.224,0.098,0.208,0.511-0.025,0.593c-0.145,0.052-0.274-0.028-0.39-0.107
	c0-0.162,0-0.324,0-0.485c-0.043,0.058-0.159-0.057-0.352-0.015c-0.248,0.056-0.294,0.462-0.088,0.621
	c0.109,0.01,0.251-0.018,0.339,0.014c0.167,0.131,0.118,0.568-0.075,0.622c-0.126,0-0.251,0-0.376,0
	c-0.062,0.199,0.032,0.566-0.152,0.634c-0.187,0.002-0.406-0.031-0.465,0.108c-0.009,0.179,0.037,0.417-0.062,0.499
	c-0.108,0.027-0.26,0.008-0.389,0.015c-0.156,0.057-0.126,0.312-0.126,0.54c-0.083,0.188-0.522-0.004-0.59,0.202
	c0,0.126,0,0.252,0,0.378c-0.06,0.184-0.34,0.13-0.565,0.135c-0.051,0.103-0.014,0.301-0.024,0.445
	c-0.054,0.213-0.449,0.254-0.578,0.082c0-0.121,0-0.244,0-0.365c-0.107-0.215-0.527-0.199-0.591,0.068
	c-0.026,0.116,0.031,0.261-0.013,0.404c-0.191,0.02-0.465-0.05-0.564,0.068c0.084,0.387-0.148,0.659-0.427,0.54
	c-0.165-0.07-0.181-0.212-0.164-0.5c-0.087-0.163-0.498-0.142-0.59,0c0,0.116,0,0.234,0,0.351c-0.077,0.238-0.495,0.218-0.577,0
	c0-0.121,0-0.242,0-0.364c-0.083-0.132-0.443-0.119-0.59-0.054c0.072,0.358-0.098,0.679-0.39,0.567
	c-0.107-0.041-0.141-0.163-0.201-0.244c-0.013-0.183,0.047-0.272,0.088-0.364c0.139,0,0.276,0,0.415,0
	c0.211-0.228,0.043-0.634-0.226-0.621c-0.132,0.007-0.185,0.113-0.277,0.189c0,0.125,0,0.253,0,0.377
	c-0.156,0.096-0.525,0.088-0.577-0.094c0-0.117,0-0.234,0-0.352c-0.037-0.225-0.427-0.071-0.578-0.175
	c-0.042-0.139,0.015-0.281-0.012-0.392c-0.056-0.228-0.36-0.227-0.565-0.148c-0.028,0.108-0.005,0.273-0.013,0.404
	c-0.076,0.074-0.129,0.15-0.238,0.163c-0.326,0.037-0.45-0.402-0.213-0.608c0.134,0,0.268,0,0.402,0
	c0.226-0.404-0.17-0.813-0.528-0.581c-0.029,0.107-0.004,0.274-0.012,0.405c-0.265,0.472-0.857-0.171-0.415-0.458
	c0.125,0,0.251,0,0.376,0c0.071-0.169,0.062-0.58-0.138-0.622c-0.133-0.006-0.289,0.013-0.402-0.014
	c-0.035-0.218,0.042-0.559-0.138-0.62c-0.109-0.01-0.251,0.018-0.339-0.015c-0.18-0.048-0.092-0.446-0.113-0.621
	c-0.037-0.021-0.246,0.014-0.389,0c-0.229-0.062-0.26-0.492-0.062-0.621c0.113,0,0.226,0,0.339,0
	c0.172-0.12,0.146-0.583-0.062-0.635c-0.118-0.004-0.254,0.013-0.353-0.013c-0.097-0.107-0.073-0.457-0.037-0.621
	c0.133-0.021,0.228,0.026,0.339,0c0.286-0.07,0.269-0.555-0.025-0.622c-0.108-0.024-0.23,0.011-0.339,0.081c0,0.167,0,0.333,0,0.5
	c-0.05,0.021-0.21,0.054-0.364,0.041c-0.244-0.058-0.26-0.524-0.038-0.622c0.113,0,0.226,0,0.339,0
	c0.104-0.124,0.091-0.54-0.025-0.634c-0.113,0-0.226,0-0.339,0c-0.185-0.081-0.199-0.499-0.038-0.622
	c0.131-0.021,0.226,0.029,0.314,0c0.202-0.067,0.184-0.544,0-0.634c-0.119-0.008-0.265,0.014-0.364-0.015
	c-0.094-0.106-0.084-0.478-0.025-0.621c0.31,0.048,0.57-0.054,0.515-0.378c-0.042-0.243-0.377-0.324-0.541-0.148
	c-0.028,0.132-0.004,0.319-0.012,0.473c-0.09,0.03-0.254,0.105-0.414,0.04c-0.234-0.095-0.204-0.516,0-0.607
	c0.109-0.007,0.25,0.017,0.339-0.014c0.14-0.132,0.083-0.536-0.051-0.621c-0.117,0-0.234,0-0.351,0
	c-0.138-0.078-0.159-0.482-0.05-0.621c0.109,0,0.218,0,0.327,0c0.407-0.198,0.036-0.896-0.389-0.553c0,0.148,0,0.297,0,0.444
	c-0.336,0.382-0.851-0.283-0.39-0.525c0.117,0,0.234,0,0.352,0c0.058-0.126,0.073-0.552-0.062-0.635c-0.113,0-0.226,0-0.339,0
	c-0.184-0.057-0.207-0.508-0.05-0.621c0.525,0.153,0.618-0.49,0.288-0.635c-0.124-0.011-0.291,0.024-0.376-0.027
	c-0.038-0.176,0.02-0.454-0.038-0.608c-0.074-0.002-0.249,0.003-0.364,0c-0.22-0.078-0.251-0.547,0-0.621
	c0.1-0.028,0.218,0.032,0.339-0.013c0.089-0.108,0.052-0.444,0.025-0.595c-0.082-0.051-0.243-0.018-0.364-0.027
	c-0.232-0.066-0.228-0.553,0-0.621c0.117,0,0.235,0,0.352,0c0.082-0.145,0.007-0.46,0.05-0.648c0.311,0.073,0.606-0.027,0.565-0.363
	c-0.031-0.251-0.232-0.271-0.515-0.271c-0.112-0.146-0.083-0.536,0.063-0.607c0.47,0.13,0.527-0.247,0.439-0.636
	c-0.122,0-0.243,0-0.364,0c-0.281-0.112-0.218-0.583,0.075-0.621c0.121-0.015,0.23,0.046,0.315,0.122c0,0.14,0,0.279,0,0.418
	c0.37,0.328,0.818-0.264,0.439-0.54c-0.109,0-0.217,0-0.326,0c-0.173-0.133-0.138-0.567,0.063-0.635c0.133,0,0.268,0,0.402,0
	c0.038-0.234-0.041-0.535,0.125-0.621c0.091-0.047,0.223,0.007,0.377-0.013c0.18-0.081-0.005-0.555,0.188-0.622
	c0.129-0.005,0.28,0.014,0.389-0.014c0.135-0.062,0.097-0.31,0.1-0.513c0.043-0.03,0.071-0.077,0.113-0.107
	c0.143-0.021,0.259,0.028,0.352,0c0.175-0.054,0.084-0.278,0.126-0.474c0.051-0.196,0.314-0.165,0.553-0.161
	c0.05-0.104,0.015-0.3,0.025-0.446c0.063-0.198,0.433-0.23,0.59-0.094c0.021,0.137-0.028,0.238,0,0.351
	c0.025,0.097,0.144,0.164,0.202,0.176c0.319,0.064,0.501-0.348,0.288-0.607c-0.129,0-0.259,0-0.389,0
	c-0.167-0.169-0.105-0.567,0.113-0.621c0.2-0.026,0.291,0.064,0.364,0.175c0,0.121,0,0.243,0,0.364
	c0.113,0.139,0.519,0.109,0.578-0.054c0.026-0.102,0.006-0.254,0.013-0.378c0.055-0.164,0.426-0.148,0.577-0.081
	c0,0.113,0,0.226,0,0.338c0.063,0.31,0.531,0.307,0.591-0.014c0.021-0.12-0.018-0.289-0.076-0.351
	c-0.125-0.032-0.306-0.006-0.452-0.014c-0.043-0.148-0.093-0.187-0.063-0.352c0.058-0.306,0.519-0.351,0.591-0.066
	c0.029,0.115-0.022,0.222,0,0.363c0.132,0.091,0.487,0.08,0.59-0.026c0-0.122,0-0.243,0-0.365c0.073-0.219,0.494-0.232,0.577-0.013
	c0,0.117,0,0.233,0,0.351c0.096,0.145,0.499,0.157,0.59,0c0-0.117,0-0.233,0-0.351c0.1-0.224,0.498-0.193,0.591,0.013
	c0,0.117,0,0.234,0,0.352c0.075,0.146,0.415,0.1,0.577,0.067c0-0.13,0-0.261,0-0.391c0.068-0.113,0.17-0.194,0.303-0.189
	c0.286,0.01,0.366,0.397,0.212,0.607c-0.149,0-0.301,0-0.451,0c-0.15,0.231-0.039,0.629,0.251,0.621
	c0.131-0.004,0.21-0.081,0.276-0.189c0-0.126,0-0.252,0-0.378c0.148-0.089,0.521-0.094,0.578,0.081
	c-0.119,0.501,0.231,0.566,0.59,0.473c0.002-0.079-0.002-0.268,0-0.392c0.067-0.121,0.158-0.209,0.302-0.202
	c0.283,0.013,0.392,0.469,0.138,0.621c-0.13,0-0.259,0-0.389,0c-0.249,0.457,0.265,0.824,0.539,0.485c0-0.122,0-0.242,0-0.364
	c0.279-0.345,0.782,0.075,0.527,0.5c-0.121,0-0.242,0-0.363,0c-0.405,0.231,0.106,0.927,0.401,0.459
	c0.026-0.111,0.006-0.272,0.012-0.405c0.18-0.118,0.545-0.06,0.591,0.135c0.024,0.164-0.045,0.316,0.026,0.405
	c0.075,0.098,0.239,0.012,0.4,0.041c0.061,0.038,0.109,0.09,0.151,0.147c0,0.136,0,0.271,0,0.406c0.031,0.15,0.282,0.032,0.439,0.08
	c0.102,0.032,0.083,0.104,0.15,0.162c0.009,0.141-0.017,0.315,0.013,0.433c0.083,0.06,0.266,0.012,0.39,0.027
	c0.177,0.044,0.269,0.435,0.113,0.634c-0.371-0.099-0.599,0.162-0.465,0.446c0.098,0.209,0.367,0.238,0.527,0.067
	c0.028-0.118,0.005-0.292,0.013-0.432c0.402-0.33,0.793,0.284,0.427,0.553c-0.104,0-0.209,0-0.314,0
	c-0.187,0.11-0.133,0.573,0.063,0.621c0.111,0.017,0.281-0.032,0.352,0.028c0.121,0.099-0.014,0.474,0.088,0.594
	c0.144,0.04,0.276-0.017,0.39,0.027c0.221,0.083,0.211,0.493,0.024,0.607c-0.104,0-0.209,0-0.313,0
	c-0.188,0.116-0.176,0.546,0.024,0.635c0.114,0,0.227,0,0.34,0c0.131,0.087,0.116,0.51,0.024,0.634c-0.108,0-0.218,0-0.326,0
	c-0.35,0.184-0.188,0.778,0.352,0.621c0.056,0.142,0.068,0.515-0.013,0.635c-0.516-0.152-0.692,0.426-0.352,0.621
	c0.108,0,0.218,0,0.327,0c0.111,0.123,0.113,0.547-0.025,0.636c-0.108,0-0.218,0-0.327,0c-0.202,0.062-0.221,0.53-0.037,0.635
	c0.108,0,0.218,0,0.326,0C79.543,89.236,79.518,89.68,79.297,89.742z M63.674,87.325c0.009,0.152-0.016,0.341,0.013,0.472
	c0.121,0.101,0.505,0.075,0.553-0.161C64.311,87.276,63.92,87.114,63.674,87.325z M64.151,86.042c-0.123-0.111-0.398-0.057-0.478,0
	c0,0.152,0,0.306,0,0.458C63.982,86.82,64.462,86.323,64.151,86.042z M64.478,89.161c-0.162,0.034-0.286,0.189-0.201,0.418
	c0.013,0.036,0.07,0.097,0.088,0.109C64.806,89.979,64.98,89.054,64.478,89.161z M64.754,85.73c0.053-0.189-0.065-0.365-0.276-0.323
	c-0.131,0.025-0.216,0.109-0.188,0.296C64.325,85.939,64.687,85.972,64.754,85.73z M64.478,86.677
	c-0.08,0.023-0.145,0.084-0.163,0.135c-0.079,0.222,0.163,0.464,0.352,0.31C64.872,86.955,64.666,86.62,64.478,86.677z
	 M64.39,88.404c0.299,0.183,0.5-0.286,0.276-0.445c-0.059-0.042-0.137-0.041-0.188-0.027C64.282,87.984,64.209,88.294,64.39,88.404z
	 M64.565,84.098c-0.045-0.007-0.067,0.009-0.088,0.013c-0.119,0.028-0.164,0.071-0.188,0.122c-0.129,0.267,0.091,0.474,0.276,0.445
	C64.869,84.632,64.849,84.141,64.565,84.098z M65.043,91.065c-0.258,0.067-0.228,0.473-0.025,0.539
	C65.455,91.751,65.505,90.944,65.043,91.065z M65.244,86.204c-0.109-0.13-0.285-0.044-0.264,0.107
	C65.005,86.491,65.321,86.466,65.244,86.204z M65.218,87.419c-0.137-0.076-0.273,0.024-0.238,0.176
	c0.024,0.104,0.162,0.13,0.251,0.054C65.275,87.584,65.253,87.475,65.218,87.419z M65.081,84.854
	c-0.242,0.054-0.115,0.387,0.063,0.351C65.335,85.166,65.316,84.8,65.081,84.854z M64.942,88.851
	c0.025,0.171,0.292,0.192,0.339,0.014c0.021-0.082-0.01-0.131-0.063-0.229C65.047,88.574,64.918,88.687,64.942,88.851z
	 M64.942,90.228c0.134,0.184,0.439,0.062,0.389-0.216c-0.024-0.138-0.164-0.179-0.251-0.162
	C64.913,89.882,64.831,90.075,64.942,90.228z M65.344,83.76c0.001-0.174-0.156-0.324-0.364-0.216
	c-0.052,0.091-0.123,0.178-0.075,0.311C64.988,84.084,65.342,84.021,65.344,83.76z M65.231,82.192
	c-0.134-0.005-0.285,0.003-0.352,0.027c-0.041,0.105-0.02,0.275-0.025,0.419c0.056,0.062,0.096,0.125,0.164,0.149
	C65.358,82.907,65.562,82.357,65.231,82.192z M77.552,82.166c0.201-0.023,0.235-0.466,0.1-0.607
	C77.084,81.367,77.02,82.256,77.552,82.166z M77.526,84.516c0.141-0.085,0.019-0.313-0.101-0.257
	C77.227,84.354,77.397,84.593,77.526,84.516z M77.664,83.031c-0.053-0.163-0.289-0.172-0.39-0.028c-0.019,0.082-0.01,0.16,0,0.243
	C77.442,83.454,77.748,83.285,77.664,83.031z M77.375,89.554c0.053,0.042,0.104,0.014,0.177,0c0.052-0.092,0.045-0.19,0-0.23
	C77.428,89.215,77.232,89.438,77.375,89.554z M77.45,88.243c0.056-0.004,0.086-0.034,0.076-0.108
	c-0.036-0.017-0.062-0.033-0.101-0.013C77.412,88.236,77.443,88.191,77.45,88.243z M77.526,90.89c0.19-0.05,0.157-0.437-0.101-0.378
	C77.179,90.567,77.29,90.95,77.526,90.89z M77.589,92.186c0.24-0.183,0.01-0.61-0.238-0.459
	C77.137,91.857,77.26,92.336,77.589,92.186z M76.961,81.518c0.082-0.021,0.115-0.104,0.176-0.176c0.052-0.309-0.1-0.468-0.365-0.392
	C76.452,81.065,76.604,81.607,76.961,81.518z M76.747,82.328c-0.258,0.242,0.242,0.521,0.302,0.216
	C77.089,82.341,76.902,82.225,76.747,82.328z M76.17,80.883c0.448,0.215,0.576-0.775,0.012-0.566
	C75.928,80.373,75.962,80.784,76.17,80.883z M76.232,81.693c-0.169,0.056-0.121,0.339,0.037,0.351
	C76.507,82.062,76.517,81.6,76.232,81.693z M75.68,81.424c0.138,0.011,0.238-0.152,0.163-0.311
	C75.599,80.813,75.376,81.398,75.68,81.424z M75.064,80.788c0.293,0.052,0.317-0.485-0.013-0.392
	C74.852,80.455,74.893,80.759,75.064,80.788z M74.663,80.168c0.204-0.146,0.052-0.487-0.189-0.433
	C74.135,79.812,74.371,80.375,74.663,80.168z M74.135,79.519c0.168-0.206-0.004-0.518-0.263-0.459
	c-0.1,0.022-0.149,0.064-0.176,0.122C73.54,79.517,73.963,79.73,74.135,79.519z M74.01,80.531c-0.086-0.063-0.205-0.003-0.177,0.108
	C73.9,80.737,74.08,80.684,74.01,80.531z M73.395,80.141c0.087-0.025,0.12-0.187,0.088-0.284
	C73.213,79.549,73.058,80.236,73.395,80.141z M72.603,79.519c0.335,0.307,0.592-0.534,0.101-0.418
	C72.522,79.144,72.472,79.4,72.603,79.519z M72.339,78.952c0.17-0.143,0.146-0.371,0-0.54c-0.109,0-0.218,0-0.327,0
	C71.708,78.633,72.024,79.217,72.339,78.952z M72.227,79.843c-0.128-0.015-0.193,0.036-0.176,0.176
	c0.068-0.006,0.043,0.089,0.112,0.081C72.292,80.068,72.323,79.918,72.227,79.843z M71.749,79.479
	c0.138-0.164-0.009-0.409-0.213-0.364C71.175,79.193,71.506,79.769,71.749,79.479z M71.272,78.776
	c0.053-0.272-0.146-0.435-0.427-0.364c-0.074,0.07-0.113,0.118-0.125,0.188C70.642,79.034,71.2,79.152,71.272,78.776z
	 M71.071,79.856c-0.213-0.104-0.247,0.249-0.05,0.243C71.091,80.061,71.144,79.938,71.071,79.856z M70.242,79.506
	c0.188,0.172,0.426-0.036,0.377-0.257c-0.025-0.113-0.127-0.17-0.251-0.148C70.195,79.13,70.102,79.378,70.242,79.506z M69.714,80.1
	c0.052,0.06,0.133,0.015,0.214,0c0.027-0.085,0.079-0.163,0.025-0.243C69.817,79.652,69.574,79.939,69.714,80.1z M69.363,79.573
	c0.25-0.135,0.093-0.516-0.125-0.514C68.779,79.064,68.988,79.775,69.363,79.573z M69.162,80.64
	c0.041-0.011,0.039,0.021,0.062,0.027c0.003-0.044,0.021-0.01,0.063-0.027c0.016-0.031-0.006-0.03,0.025-0.054
	C69.291,80.487,69.137,80.506,69.162,80.64z M68.647,80.194c0.28-0.007,0.289-0.555-0.075-0.445
	C68.325,79.823,68.421,80.199,68.647,80.194z M67.956,80.762c0.313,0.195,0.375-0.47,0.038-0.352
	C67.861,80.457,67.834,80.686,67.956,80.762z M67.755,79.884c-0.047-0.08-0.099-0.154-0.164-0.216c-0.096,0-0.192,0-0.289,0
	c-0.04,0.057-0.099,0.092-0.113,0.161C67.088,80.366,67.796,80.418,67.755,79.884z M67.429,81.072
	c-0.192,0.047-0.138,0.324,0.038,0.324C67.659,81.396,67.689,81.007,67.429,81.072z M66.6,80.64
	c0.017,0.118,0.121,0.153,0.188,0.243c0.237,0.04,0.361-0.145,0.364-0.283C67.162,80.192,66.538,80.22,66.6,80.64z M66.813,81.721
	c-0.058,0.026-0.07,0.067-0.075,0.107c-0.029,0.224,0.282,0.21,0.302,0.054C67.055,81.763,66.93,81.666,66.813,81.721z
	 M66.022,81.261c0.009,0.098,0.098,0.207,0.151,0.23c0.423,0.179,0.514-0.592,0.101-0.541
	C66.104,80.972,66.004,81.054,66.022,81.261z M66.249,82.328c-0.062,0.017-0.103,0.057-0.113,0.095
	c-0.062,0.237,0.266,0.338,0.314,0.121C66.485,82.381,66.373,82.295,66.249,82.328z M65.733,82.152
	c0.342-0.031,0.319-0.655-0.1-0.581C65.328,81.626,65.399,82.182,65.733,82.152z M65.909,91.942
	c-0.005-0.117-0.118-0.25-0.276-0.202c-0.095,0.051-0.17,0.123-0.15,0.298C65.583,92.283,65.922,92.214,65.909,91.942z
	 M65.633,92.969c-0.31,0.07-0.198,0.595,0.138,0.514C66.066,93.411,65.974,92.893,65.633,92.969z M65.859,90.714
	c0.007-0.119-0.055-0.222-0.201-0.176c-0.075,0.024-0.125,0.1-0.125,0.162C65.532,90.921,65.849,90.915,65.859,90.714z
	 M65.747,89.336c-0.195-0.025-0.14,0.237-0.014,0.203C65.803,89.521,65.81,89.391,65.747,89.336z M65.733,84.488
	c0.066-0.014,0.065-0.104,0.051-0.175C65.606,84.184,65.558,84.527,65.733,84.488z M65.884,83.084
	c-0.033-0.246-0.457-0.194-0.364,0.136C65.631,83.392,65.92,83.346,65.884,83.084z M65.432,94.616c0.093,0.215,0.48,0.176,0.54-0.04
	C66.086,94.048,65.279,94.062,65.432,94.616z M66.513,97.412c-0.131-0.165-0.397-0.097-0.491,0.027
	c0.009,0.14-0.016,0.314,0.013,0.432c0.033,0.064,0.207,0.058,0.364,0.054C66.569,97.849,66.641,97.574,66.513,97.412z
	 M66.135,92.618c0.023,0.165,0.276,0.172,0.302,0c0.02-0.13-0.053-0.204-0.164-0.189C66.174,92.442,66.117,92.489,66.135,92.618z
	 M66.362,91.389c0-0.04,0-0.08,0-0.121c-0.06-0.07-0.137-0.018-0.164,0.054C66.224,91.413,66.283,91.458,66.362,91.389z
	 M66.098,93.915c0.052,0.219,0.359,0.111,0.376-0.041c0.016-0.144-0.092-0.239-0.201-0.229
	C66.142,93.656,66.065,93.778,66.098,93.915z M66.06,95.103c0,0.36,0.572,0.286,0.415-0.135
	C66.347,94.787,66.06,94.873,66.06,95.103z M66.312,96.642c0.328-0.029,0.276-0.644-0.114-0.526
	C65.901,96.206,66.038,96.667,66.312,96.642z M66.826,97.979c-0.069,0.019-0.174,0.093-0.201,0.149
	c-0.081,0.163,0.037,0.399,0.213,0.417C67.25,98.589,67.179,97.885,66.826,97.979z M67.015,95.819
	c0.063-0.188-0.114-0.311-0.226-0.229C66.603,95.722,66.861,96.04,67.015,95.819z M66.977,94.495
	c0.013-0.101-0.062-0.155-0.138-0.122C66.63,94.466,66.949,94.719,66.977,94.495z M66.676,96.953
	c-0.016,0.119,0.036,0.216,0.188,0.271c0.075-0.044,0.153-0.047,0.188-0.109C67.219,96.82,66.719,96.619,66.676,96.953z
	 M67.667,98.75c-0.024-0.051-0.123-0.13-0.238-0.109c-0.253,0.045-0.259,0.372-0.113,0.473C67.481,99.229,67.818,99.05,67.667,98.75
	z M67.504,97.79c0.184-0.055,0.087-0.394-0.101-0.311C67.228,97.559,67.312,97.848,67.504,97.79z M68.195,99.316
	c-0.306-0.227-0.535,0.35-0.226,0.458C68.292,99.85,68.377,99.451,68.195,99.316z M68.057,98.397
	c0.014-0.043,0.075-0.036,0.101-0.067c0.085-0.185-0.162-0.246-0.227-0.121C67.913,98.336,67.995,98.356,68.057,98.397z
	 M68.848,100.005c-0.112-0.18-0.36-0.12-0.44,0.026c-0.061,0.112,0.005,0.226,0.038,0.325
	C68.675,100.577,69.017,100.274,68.848,100.005z M68.748,98.897c0.002-0.09-0.053-0.117-0.113-0.108
	C68.349,98.831,68.737,99.192,68.748,98.897z M69.149,100.518c-0.349,0.09-0.185,0.683,0.188,0.541
	C69.597,100.959,69.542,100.418,69.149,100.518z M69.25,99.667c0.167-0.024,0.106-0.303-0.037-0.27
	C69.01,99.444,69.117,99.686,69.25,99.667z M69.815,99.991c-0.226,0.013-0.213,0.319-0.038,0.352
	C70.021,100.387,70.058,99.977,69.815,99.991z M70.644,100.774c-0.02-0.138-0.139-0.238-0.276-0.216
	c-0.257,0.042-0.237,0.43-0.024,0.473c0.146,0.029,0.281-0.083,0.3-0.216C70.64,100.839,70.641,100.752,70.644,100.774z
	 M71.272,101.342c-0.051-0.272-0.472-0.287-0.552-0.013c-0.044,0.15,0.015,0.272,0.125,0.377
	C71.153,101.772,71.32,101.604,71.272,101.342z M71.071,100.046c-0.135-0.061-0.224,0.047-0.201,0.148
	C70.915,100.394,71.244,100.221,71.071,100.046z M71.561,100.572c-0.25,0.031-0.233,0.418-0.012,0.445
	C71.851,101.057,71.881,100.53,71.561,100.572z M72.264,101.126c-0.383-0.109-0.484,0.424-0.251,0.58c0.104,0,0.209,0,0.314,0
	C72.536,101.593,72.485,101.198,72.264,101.126z M72.227,100.289c0.244-0.173-0.134-0.386-0.188-0.176
	C72.008,100.225,72.094,100.304,72.227,100.289z M72.917,100.585c-0.039-0.031-0.112-0.043-0.164-0.04
	c-0.24,0.018-0.303,0.338-0.138,0.459C72.899,101.211,73.127,100.755,72.917,100.585z M73.294,99.977
	c-0.232,0.073-0.108,0.454,0.113,0.394C73.6,100.316,73.581,99.888,73.294,99.977z M74.072,100.505
	c-0.345-0.169-0.587,0.365-0.276,0.566c0.115-0.007,0.257,0.015,0.352-0.013C74.266,100.923,74.221,100.577,74.072,100.505z
	 M73.872,99.694c0.215,0.045,0.282-0.176,0.2-0.284C73.917,99.204,73.624,99.555,73.872,99.694z M74.801,100.153
	c-0.003-0.187-0.148-0.333-0.352-0.27c-0.137,0.041-0.182,0.174-0.188,0.256C74.23,100.516,74.808,100.577,74.801,100.153z
	 M74.474,99.046c0.268,0.079,0.239-0.374,0.026-0.31C74.35,98.761,74.359,99.013,74.474,99.046z M75.052,99.262
	c-0.345,0.079-0.2,0.622,0.138,0.54C75.496,99.728,75.423,99.178,75.052,99.262z M75.266,98.195
	c-0.042-0.153-0.342-0.119-0.314,0.095C75.014,98.53,75.328,98.428,75.266,98.195z M75.643,98.613
	c-0.314,0.071-0.209,0.548,0.024,0.581C76.044,99.249,76.084,98.515,75.643,98.613z M75.517,97.602
	c-0.038,0.309,0.432,0.296,0.377-0.014c-0.02-0.112-0.108-0.173-0.227-0.148C75.54,97.464,75.521,97.561,75.517,97.602z
	 M75.755,96.467c0.032-0.033,0.045-0.087,0.037-0.162C75.611,96.113,75.519,96.558,75.755,96.467z M76.559,98.129
	c-0.063-0.241-0.437-0.239-0.54,0c-0.082,0.19,0.044,0.369,0.177,0.432C76.527,98.654,76.628,98.389,76.559,98.129z M76.308,94.616
	c0.123-0.016,0.139-0.302-0.038-0.27C76.092,94.38,76.18,94.634,76.308,94.616z M76.308,93.293c0.056-0.041,0.066-0.139-0.013-0.162
	c-0.021,0.041-0.077,0.044-0.062,0.122C76.258,93.266,76.282,93.28,76.308,93.293z M76.232,95.913
	c0.285,0.085,0.313-0.441,0.013-0.352C76.094,95.606,76.086,95.87,76.232,95.913z M76.333,97.25
	c0.052-0.008,0.156-0.095,0.176-0.148c0.073-0.196-0.078-0.396-0.276-0.339C75.982,96.837,76.052,97.295,76.333,97.25z
	 M76.609,96.44c0.043,0.248,0.426,0.303,0.527,0.053C77.265,95.941,76.526,95.967,76.609,96.44z M76.734,92.699
	c0.057,0.086,0.152,0.068,0.264,0.026C77.251,92.297,76.511,92.356,76.734,92.699z M76.936,91.443
	c0.164-0.172-0.112-0.338-0.175-0.163C76.729,91.365,76.806,91.49,76.936,91.443z M76.672,93.86
	c0.004,0.073,0.041,0.098,0.075,0.162c0.134,0.065,0.27,0.022,0.327-0.095C77.137,93.518,76.655,93.557,76.672,93.86z
	 M76.646,95.035c-0.077,0.391,0.496,0.454,0.465,0.04c-0.012-0.152-0.122-0.249-0.276-0.216
	C76.715,94.886,76.658,94.979,76.646,95.035z M77.478,86.312c0-3.267-2.633-5.925-5.866-5.925c-3.235,0-5.866,2.658-5.866,5.925
	c0,0.69,0.117,1.367,0.343,2.002c0.179,0.593,0.549,1.237,0.939,1.92c0.37,0.646,0.75,1.314,0.925,1.869l0.004,0.078
	c0.024,0.541,0.049,0.711,0.117,0.986c0.047,0.105,0.011,0.214,0.175,0.44c0.009,0.089,0.033,0.477,0.052,0.676l-0.501,0.623
	l0.071,0.591l0.457,0.068l-0.464,0.469l0.118,0.7l0.43,0.066l-0.368,0.442l0.285,0.736l0.765,0.104l1.044,1.303l0.148,0.04
	c0.023,0.008,0.587,0.158,1.325,0.158c0.74,0,1.296-0.152,1.32-0.158l0.151-0.043l1.576-2.064l0.015-0.158l0.678-0.336l0.129-0.771
	l-0.51-0.268l0.503-0.186l0.041-0.667l-0.479-0.291l0.454-0.184l0.03-0.55l-0.674-0.406c0.028-0.05,0.255-0.145,0.271-0.418
	c0.049-0.225,0.072-0.44,0.12-0.829c0,0,0.011-0.089,0.016-0.128c0.17-0.561,0.558-1.238,0.935-1.896
	c0.351-0.613,0.682-1.191,0.866-1.709C77.334,87.82,77.478,87.076,77.478,86.312z M77.212,94.319
	c-0.16,0.332,0.256,0.628,0.515,0.352c0-0.126,0-0.252,0-0.378C77.604,94.112,77.295,94.147,77.212,94.319z M77.689,93.051
	c-0.034-0.056-0.073-0.047-0.138-0.108c-0.194-0.021-0.312,0.062-0.34,0.188C77.085,93.714,77.969,93.508,77.689,93.051z
	 M78.129,84.016c0.1-0.092,0.179-0.132,0.176-0.27c-0.004-0.235-0.307-0.365-0.452-0.176C77.687,83.787,77.888,84.067,78.129,84.016
	z M78.028,87.729c0.07,0.013,0.09-0.029,0.163-0.067c0.016-0.051,0.022-0.168,0-0.216C77.978,87.154,77.731,87.679,78.028,87.729z
	 M77.966,86.447c0.083,0.046,0.146,0.013,0.226-0.054c0.017-0.064,0.017-0.153,0-0.218C78.035,85.937,77.736,86.319,77.966,86.447z
	 M78.003,84.826c-0.229,0.06-0.149,0.381,0.025,0.405C78.275,85.267,78.347,84.737,78.003,84.826z M78.116,89.013
	c0.209-0.057,0.157-0.5-0.126-0.405C77.744,88.689,77.864,89.08,78.116,89.013z M78.091,90.336c0.294-0.062,0.258-0.595-0.101-0.5
	C77.666,89.923,77.849,90.387,78.091,90.336z M78.317,91.2c-0.187-0.329-0.647-0.103-0.54,0.243
	C77.872,91.749,78.464,91.672,78.317,91.2z M78.405,84.583c0.107,0.153,0.411,0.136,0.489-0.054c0-0.112,0-0.226,0-0.338
	C78.67,83.896,78.164,84.243,78.405,84.583z M78.618,85.381c-0.328,0.03-0.281,0.523-0.013,0.553
	C78.935,85.97,79.002,85.344,78.618,85.381z M78.605,86.649c-0.284,0.039-0.27,0.515,0,0.54
	C78.943,87.221,78.971,86.6,78.605,86.649z M78.694,88.459c0.236-0.041,0.272-0.474,0.024-0.554
	C78.249,87.835,78.306,88.526,78.694,88.459z M78.895,89.269c-0.115-0.166-0.372-0.19-0.489-0.026
	c-0.254,0.353,0.296,0.692,0.489,0.392C78.895,89.513,78.895,89.391,78.895,89.269z M76.822,104.569
	C76.981,104.588,76.823,104.418,76.822,104.569L76.822,104.569z M76.357,102.76c0.049-0.096,0.036-0.2-0.037-0.257
	C76.003,102.439,76.152,102.943,76.357,102.76z M76.835,103.191c-0.221,0.051,0.096,0.287,0.101,0.082
	C76.937,103.214,76.867,103.185,76.835,103.191z M75.555,103.341c0.115,0.176,0.353-0.052,0.214-0.176
	C75.688,103.094,75.513,103.15,75.555,103.341z M75.629,101.801c-0.358,0.081-0.016,0.635,0.202,0.352
	C75.947,102,75.82,101.758,75.629,101.801z M76.771,101.869c-0.261,0.21,0.217,0.442,0.214,0.147
	C76.985,101.918,76.894,101.825,76.771,101.869z M76.22,103.84c-0.009,0.04-0.037,0.058-0.024,0.121
	c0.063,0.058,0.128,0.008,0.15-0.054C76.328,103.858,76.294,103.828,76.22,103.84z M75.555,100.464
	c-0.091,0.02-0.119,0.107-0.164,0.176c-0.088,0.491,0.526,0.506,0.553,0.135C75.957,100.572,75.809,100.391,75.555,100.464z
	 M76.031,99.884c-0.33,0.482,0.496,0.766,0.503,0.243C76.537,99.867,76.272,99.725,76.031,99.884z M77.412,99.91
	c-0.249,0.023-0.22,0.402-0.023,0.433C77.655,100.383,77.704,99.884,77.412,99.91z M78.016,103.219
	c-0.012,0.033-0.051,0.036-0.037,0.095c0.038,0.021,0.038,0,0.088-0.014C78.077,103.242,78.045,103.232,78.016,103.219z
	 M77.363,98.601c-0.196,0.042-0.268,0.335-0.113,0.473c0.273,0.244,0.556-0.217,0.352-0.419
	C77.557,98.61,77.467,98.579,77.363,98.601z M77.891,100.693c-0.053,0.172,0.144,0.277,0.251,0.135
	C78.205,100.594,77.934,100.55,77.891,100.693z M78.104,102.029c0.001-0.06-0.024-0.03-0.037-0.094
	C77.754,101.938,78.1,102.251,78.104,102.029z M77.287,101.382c-0.003,0.126,0.108,0.206,0.251,0.122
	C77.71,101.273,77.293,101.112,77.287,101.382z M77.426,103.854c-0.024,0.02-0.054,0.074-0.026,0.107
	c0.057,0.01,0.066-0.028,0.076-0.066C77.459,103.88,77.451,103.857,77.426,103.854z M76.646,100.64
	c-0.118,0.294,0.284,0.442,0.39,0.202C77.122,100.504,76.729,100.436,76.646,100.64z M76.747,99.221
	c-0.173,0.046-0.23,0.211-0.176,0.379c0.096,0.293,0.578,0.217,0.527-0.162C77.078,99.273,76.938,99.171,76.747,99.221z
	 M77.351,102.692c0.047,0.091,0.166,0.047,0.176-0.027C77.541,102.542,77.324,102.486,77.351,102.692z M79.687,88.513
	c-0.09,0.02-0.162,0.059-0.188,0.122c-0.085,0.2,0.061,0.425,0.15,0.459C80.062,89.25,80.196,88.4,79.687,88.513z M80.753,88.796
	c0.046,0.029,0.017,0.077,0.038,0.108c0.161,0.236,0.444-0.12,0.238-0.27C80.909,88.547,80.793,88.658,80.753,88.796z
	 M80.753,87.446c-0.091,0.229,0.225,0.421,0.352,0.175C81.183,87.314,80.825,87.269,80.753,87.446z M81.457,91.97
	c0.04,0.029,0.095,0.06,0.138,0.014C81.616,91.85,81.444,91.862,81.457,91.97z M80.741,86.218c-0.056,0.486,0.578,0.197,0.326-0.081
	C80.966,86.023,80.82,86.087,80.741,86.218z M80.904,89.918c-0.164,0.042-0.124,0.304,0.024,0.31
	C81.103,90.235,81.133,89.857,80.904,89.918z M81.507,93.239c0.018,0,0.028,0.007,0.038,0.014c0.001-0.016,0.003-0.032,0.024-0.027
	C81.569,93.124,81.492,93.204,81.507,93.239z M80.892,93.86c0.021,0.046,0.078,0.048,0.113,0.014
	C81.037,93.752,80.874,93.754,80.892,93.86z M80.829,91.349c0.011,0.063,0.057,0.107,0.163,0.095
	C81.22,91.243,80.779,91.063,80.829,91.349z M79.724,100.153c0.021,0.045,0.078,0.048,0.112,0.014
	C79.869,100.044,79.706,100.047,79.724,100.153z M80.892,92.659c0.009-0.026,0.04,0.036,0.088,0.014
	C81.152,92.478,80.773,92.403,80.892,92.659z M80.276,86.662c-0.35,0.095-0.097,0.703,0.214,0.474
	C80.681,86.994,80.568,86.584,80.276,86.662z M82.11,91.268c0.005,0.043-0.039,0.03-0.025,0.081c0.038,0.01,0.023,0.01,0.062,0
	C82.154,91.3,82.143,91.272,82.11,91.268z M82.059,90.079c0.023,0.047,0.079,0.047,0.102,0
	C82.168,89.983,82.049,89.976,82.059,90.079z M82.072,88.742c-0.008,0.032-0.019,0.062-0.014,0.108
	c0.028,0.011,0.05,0.028,0.089,0.026c0.004-0.04,0.039-0.048,0.024-0.107C82.137,88.741,82.125,88.726,82.072,88.742z
	 M82.072,86.204c-0.042,0.044-0.042,0.117,0,0.162c0.025,0,0.05,0,0.075,0c0.039-0.048,0.042-0.119,0-0.162
	C82.122,86.204,82.098,86.204,82.072,86.204z M81.482,90.781c0.037-0.018,0.103-0.005,0.125-0.04
	C81.696,90.544,81.319,90.599,81.482,90.781z M82.122,87.46c-0.108,0-0.118,0.195,0.025,0.161
	C82.193,87.575,82.187,87.483,82.122,87.46z M81.419,88.27c0.041,0.024,0.095,0.033,0.15,0.04c0.052-0.038,0.085-0.097,0.075-0.201
	C81.55,87.96,81.312,88.089,81.419,88.27z M81.619,89.513c0.018-0.044,0.018-0.12,0-0.162
	C81.359,89.159,81.372,89.697,81.619,89.513z M81.47,85.528c-0.046,0.02-0.071,0.065-0.076,0.108c-0.02,0.227,0.283,0.19,0.265,0
	C81.65,85.564,81.581,85.479,81.47,85.528z M81.532,86.784c-0.125,0.001-0.153,0.065-0.151,0.135
	c0.006,0.167,0.283,0.184,0.277-0.013C81.654,86.804,81.587,86.784,81.532,86.784z M80.929,95.13
	c0.008-0.014,0.053,0.002,0.051-0.055C80.954,95.035,80.89,95.104,80.929,95.13z M79.711,91.093
	c-0.17,0.035-0.252,0.301-0.101,0.418C79.957,91.782,80.142,91.003,79.711,91.093z M79.698,92.389
	c-0.324,0.091,0.021,0.588,0.214,0.323C80.029,92.552,79.896,92.334,79.698,92.389z M79.849,93.685
	c-0.31-0.139-0.319,0.337-0.075,0.324C79.917,94.002,79.98,93.769,79.849,93.685z M79.687,89.796
	c-0.408,0.113-0.055,0.756,0.238,0.473C80.102,90.098,79.965,89.718,79.687,89.796z M75.629,104.475
	c-0.038,0.083,0.025,0.151,0.102,0.107c0.009-0.051,0.008-0.064-0.013-0.107C75.672,104.462,75.651,104.499,75.629,104.475z
	 M63.335,101.354c0.001,0.034,0.007,0.064,0.025,0.082c0.017-0.02,0.051,0.008,0.075-0.014c0.009-0.042-0.012-0.05-0.012-0.081
	C63.379,101.331,63.375,101.361,63.335,101.354z M79.484,87.338c0.008,0.131-0.015,0.297,0.014,0.405
	c0.188,0.212,0.612,0.089,0.553-0.283C80.019,87.229,79.621,87.141,79.484,87.338z M79.749,98.804c-0.1,0.046-0.03,0.185,0.05,0.161
	C79.869,98.944,79.869,98.746,79.749,98.804z M79.648,97.628c0.051,0.045,0.068,0.125,0.163,0.095
	C80.019,97.655,79.716,97.302,79.648,97.628z M79.636,96.305c-0.04,0.138,0.086,0.223,0.2,0.175
	C80.041,96.311,79.694,96.103,79.636,96.305z M79.749,94.954c-0.24,0.033-0.109,0.345,0.075,0.283
	C79.967,95.19,79.914,94.932,79.749,94.954z M80.352,91.795c-0.15,0.009-0.198,0.205-0.101,0.283
	C80.452,92.236,80.627,91.778,80.352,91.795z M80.226,93.213c0.003,0.067,0.056,0.099,0.113,0.134
	c0.104-0.038,0.178-0.119,0.126-0.216C80.401,93.016,80.221,93.076,80.226,93.213z M80.289,89.215
	c-0.29,0.072-0.129,0.527,0.138,0.432C80.65,89.568,80.572,89.145,80.289,89.215z M80.289,94.562
	c0.066,0.026,0.125,0.002,0.163-0.04c0-0.036,0-0.072,0-0.108C80.354,94.277,80.182,94.437,80.289,94.562z M80.289,90.876
	c0.168,0.044,0.303-0.121,0.213-0.324C80.258,90.28,80.012,90.805,80.289,90.876z M80.301,98.263
	c0.01,0.003,0.016,0.012,0.014,0.027c0.047,0.029,0.037-0.026,0.1-0.014C80.427,98.177,80.293,98.147,80.301,98.263z M79.498,86.083
	c-0.029,0.111-0.005,0.283-0.014,0.417c0.302,0.295,0.755-0.12,0.49-0.432C79.882,85.959,79.593,85.921,79.498,86.083z
	 M80.314,99.505c0.032,0.018,0.037,0.029,0.075,0.014C80.398,99.436,80.332,99.475,80.314,99.505z M80.439,95.778
	c0-0.032,0-0.063,0-0.095C80.255,95.486,80.231,95.947,80.439,95.778z M80.427,97.034c0-0.032,0-0.063,0-0.095
	C80.269,96.816,80.269,97.157,80.427,97.034z M80.301,87.932c-0.239,0.043-0.245,0.381-0.062,0.473
	C80.596,88.585,80.73,87.856,80.301,87.932z M64.892,97.074c0.057,0.256,0.438,0.287,0.54,0.04c0-0.103,0-0.206,0-0.31
	C65.235,96.541,64.81,96.706,64.892,97.074z M65.081,103.3c0.021,0.055,0.114,0.048,0.126-0.014
	C65.211,103.194,65.062,103.199,65.081,103.3z M65.106,100.599c-0.23,0.071-0.044,0.45,0.15,0.297
	C65.392,100.789,65.287,100.543,65.106,100.599z M65.106,99.289c-0.294,0.079-0.109,0.517,0.138,0.419
	C65.45,99.627,65.388,99.212,65.106,99.289z M65.093,97.979c-0.124,0.052-0.197,0.155-0.176,0.311
	c0.048,0.349,0.648,0.233,0.477-0.176C65.356,98.024,65.239,97.936,65.093,97.979z M64.428,100.194
	c0.08,0.128,0.261,0.073,0.276-0.041C64.731,99.948,64.395,99.88,64.428,100.194z M64.528,98.681
	c-0.258,0.059-0.128,0.418,0.088,0.378C64.813,99.023,64.791,98.622,64.528,98.681z M64.553,97.385
	c-0.086,0.012-0.148,0.043-0.175,0.095c-0.209,0.392,0.5,0.517,0.414,0.067C64.774,97.456,64.702,97.366,64.553,97.385z
	 M64.565,96.102c-0.342,0.044-0.277,0.573,0.063,0.514c0.13-0.022,0.22-0.181,0.188-0.337C64.79,96.144,64.669,96.089,64.565,96.102
	z M64.528,94.819c-0.426,0.08-0.123,0.777,0.214,0.514C64.947,95.171,64.833,94.762,64.528,94.819z M64.302,93.928
	c0.056,0.25,0.444,0.283,0.553,0.041c0-0.1,0-0.198,0-0.297C64.682,93.397,64.215,93.538,64.302,93.928z M65.093,102.125
	c0.111,0.012,0.173-0.029,0.163-0.148C65.169,101.814,64.942,102.001,65.093,102.125z M66.16,102.044
	c0.041,0.313,0.523,0.003,0.227-0.203C66.221,101.815,66.143,101.91,66.16,102.044z M66.312,104.475
	c-0.01,0.034-0.002,0.043-0.038,0.067c0.044,0.017,0.042,0.02,0.075,0.027C66.381,104.53,66.35,104.478,66.312,104.475z
	 M75.052,101.085c-0.493,0.076-0.12,0.829,0.214,0.514C75.455,101.418,75.287,101.049,75.052,101.085z M66.047,99.586
	c0.063,0.243,0.451,0.309,0.54,0.055c0.035-0.101,0.01-0.269,0-0.392C66.32,99.085,65.961,99.26,66.047,99.586z M66.261,100.518
	c-0.295,0.081-0.138,0.584,0.163,0.46C66.647,100.885,66.584,100.429,66.261,100.518z M66.223,103.219
	c-0.046,0.234,0.262,0.176,0.177-0.013C66.352,103.156,66.268,103.188,66.223,103.219z M65.533,98.654
	c-0.168,0.19-0.021,0.488,0.214,0.514c0.18-0.034,0.356-0.198,0.263-0.445C65.941,98.54,65.66,98.511,65.533,98.654z
	 M65.633,102.597c-0.016,0.054,0.025,0.073,0.025,0.137c0.062,0.013,0.063,0.041,0.113,0.026
	C65.954,102.705,65.699,102.381,65.633,102.597z M65.683,101.233c-0.281,0.097,0.088,0.54,0.201,0.229
	C65.934,101.328,65.853,101.176,65.683,101.233z M65.52,100.194c0.012,0.05,0.099,0.146,0.138,0.162
	c0.166,0.063,0.375-0.132,0.289-0.352C65.806,99.769,65.456,99.927,65.52,100.194z M63.988,100.869
	c0.054-0.037,0.09-0.084,0.063-0.176C63.901,100.567,63.823,100.861,63.988,100.869z M63.335,92.375
	c-0.172,0.057-0.169,0.346-0.013,0.405C63.664,92.909,63.706,92.254,63.335,92.375z M63.674,88.973c0-0.136,0-0.271,0-0.405
	c-0.188-0.138-0.449-0.11-0.527,0.067C62.97,89.032,63.513,89.286,63.674,88.973z M63.348,93.658
	c-0.235,0.077-0.078,0.432,0.125,0.351C63.668,93.933,63.559,93.588,63.348,93.658z M63.536,89.782
	c-0.166-0.075-0.356,0.034-0.389,0.189c-0.056,0.269,0.155,0.426,0.352,0.364C63.715,90.268,63.729,89.913,63.536,89.782z
	 M63.36,91.079c-0.312,0.062-0.198,0.524,0.088,0.485c0.101-0.014,0.24-0.123,0.188-0.337C63.608,91.111,63.493,91.052,63.36,91.079
	z M63.373,94.94c-0.222,0.043-0.127,0.345,0.062,0.312C63.613,95.22,63.567,94.903,63.373,94.94z M63.348,100.059
	c-0.018,0.03-0.032,0.065-0.025,0.122c0.059,0.028,0.09,0.032,0.138,0C63.482,100.106,63.44,100.046,63.348,100.059z M63.348,96.224
	c-0.074,0.028-0.086,0.094-0.088,0.122c-0.013,0.206,0.323,0.232,0.276-0.027C63.521,96.232,63.443,96.188,63.348,96.224z
	 M63.297,98.897c0.02,0.132,0.25,0.091,0.188-0.081C63.399,98.732,63.282,98.795,63.297,98.897z M64.453,101.396
	c0.037,0.037,0.056,0.093,0.113,0.108C64.8,101.424,64.515,101.139,64.453,101.396z M63.36,97.493
	c-0.077,0.027-0.122,0.134-0.063,0.216C63.458,97.932,63.654,97.388,63.36,97.493z M63.925,102.058
	c0.056-0.006,0.042,0.041,0.088,0.013C64.09,101.945,63.864,101.93,63.925,102.058z M63.963,94.238
	c-0.396,0.06-0.061,0.695,0.201,0.392C64.315,94.454,64.147,94.211,63.963,94.238z M63.724,92.038
	c0.094,0.268,0.486,0.245,0.541-0.015C64.353,91.599,63.675,91.463,63.724,92.038z M64.502,102.679
	c0.021,0.046,0.079,0.048,0.113,0.014C64.655,102.555,64.478,102.553,64.502,102.679z M63.976,95.94
	c0.15,0.008,0.258-0.138,0.201-0.338C63.887,95.248,63.61,95.92,63.976,95.94z M63.963,92.955C63.662,93,63.703,93.472,64,93.469
	c0.133-0.001,0.263-0.107,0.239-0.311C64.221,93.006,64.088,92.938,63.963,92.955z M66.851,103.988
	c0.063,0.01,0.095-0.015,0.125-0.041c0.015-0.074-0.036-0.078-0.037-0.135C66.819,103.802,66.796,103.917,66.851,103.988z
	 M63.976,96.791c-0.219,0.021-0.2,0.358-0.013,0.378C64.219,97.195,64.224,96.766,63.976,96.791z M63.862,99.464
	c-0.037,0.136,0.101,0.229,0.226,0.109C64.158,99.354,63.906,99.306,63.862,99.464z M63.837,98.183
	c-0.036,0.096,0.017,0.23,0.188,0.229c0.032-0.059,0.096-0.059,0.113-0.107C64.214,98.086,63.905,98.003,63.837,98.183z
	 M65.696,103.867c-0.019,0.061,0.004,0.074,0.037,0.108c0-0.026,0.01-0.029,0.026-0.015
	C65.807,103.915,65.753,103.833,65.696,103.867z M72.138,104.421c-0.183,0.056-0.029,0.301,0.088,0.229
	C72.327,104.588,72.292,104.373,72.138,104.421z M72.716,105.097c-0.018,0.037-0.033,0.076-0.013,0.121
	c0.049,0.013,0.098,0.015,0.112-0.041C72.815,105.114,72.769,105.102,72.716,105.097z M73.281,103.057
	c-0.233,0.072-0.161,0.432,0.05,0.433C73.596,103.491,73.579,102.966,73.281,103.057z M72.716,103.731
	c-0.295,0.07,0.015,0.524,0.175,0.271C72.981,103.86,72.856,103.699,72.716,103.731z M72.667,102.368
	c-0.26,0.076-0.204,0.513,0.05,0.541C73.1,102.949,73.096,102.241,72.667,102.368z M72.163,103.03
	c-0.334,0.016-0.226,0.531,0.05,0.472C72.462,103.449,72.39,103.019,72.163,103.03z M71.522,105.19
	c0.022,0.045,0.079,0.048,0.114,0.013C71.664,105.059,71.508,105.058,71.522,105.19z M70.857,103.461
	c0.215,0.133,0.41-0.085,0.351-0.282C71.104,102.818,70.578,103.152,70.857,103.461z M71.498,102.355
	c-0.32,0.092-0.183,0.569,0.088,0.566C71.966,102.918,71.939,102.231,71.498,102.355z M71.422,103.947
	c0.048,0.233,0.453,0.104,0.302-0.176C71.583,103.635,71.383,103.754,71.422,103.947z M73.909,102.395
	c-0.36,0.02-0.241,0.519,0.037,0.486c0.075-0.008,0.193-0.09,0.201-0.229C74.159,102.464,74.039,102.388,73.909,102.395z
	 M75.064,105.177c0.029,0.021,0.023,0.029,0.063,0.014c0-0.041-0.012-0.068-0.038-0.081C75.092,105.143,75.07,105.15,75.064,105.177
	z M74.235,102.017c0.041,0.141,0.125,0.235,0.265,0.271c0.202-0.022,0.332-0.273,0.213-0.46
	C74.576,101.616,74.23,101.742,74.235,102.017z M73.081,101.733c-0.03,0.06-0.05,0.231-0.039,0.377
	c0.126,0.327,0.564,0.228,0.591-0.094c0.011-0.124-0.052-0.229-0.138-0.311C73.361,101.721,73.173,101.676,73.081,101.733z
	 M75.052,102.449c-0.121,0.023-0.214,0.166-0.125,0.311c0.107,0.177,0.394,0.051,0.339-0.189
	C75.247,102.489,75.176,102.425,75.052,102.449z M74.449,103.111c-0.158,0.052-0.134,0.311,0.024,0.338
	C74.722,103.488,74.736,103.015,74.449,103.111z M75.09,103.786c-0.271,0.034,0.079,0.419,0.112,0.135
	C75.215,103.818,75.13,103.781,75.09,103.786z M74.462,104.623c0.134,0.024,0.141-0.103,0.088-0.176
	C74.413,104.416,74.407,104.558,74.462,104.623z M73.872,105.164c0.03,0.035,0.044,0.061,0.1,0.039
	c0.021-0.045-0.008-0.045-0.013-0.094C73.911,105.106,73.881,105.123,73.872,105.164z M73.972,103.745
	c-0.069-0.021-0.103,0.026-0.163,0.041c-0.043,0.108-0.027,0.208,0.024,0.242C74.02,104.151,74.159,103.806,73.972,103.745z
	 M70.958,104.421c-0.107,0.038-0.094,0.169-0.037,0.216C71.098,104.783,71.217,104.329,70.958,104.421z M73.331,104.65
	c0.077,0.001,0.104-0.064,0.101-0.176C73.249,104.285,73.17,104.649,73.331,104.65z M67.956,103.961
	c0.067,0.097,0.226,0.071,0.239-0.04C68.215,103.752,67.92,103.692,67.956,103.961z M68.019,105.136
	c0.015,0.064,0.038,0.066,0.101,0.055c0-0.019,0-0.036,0-0.055C68.08,105.113,68.053,105.107,68.019,105.136z M67.316,101.841
	c-0.189,0.27,0.196,0.536,0.351,0.312C67.831,101.916,67.517,101.625,67.316,101.841z M70.368,102.355
	c-0.367,0.066-0.233,0.645,0.125,0.554c0.127-0.033,0.225-0.202,0.188-0.366C70.653,102.417,70.522,102.326,70.368,102.355z
	 M68.233,101.071c-0.088,0.009-0.209-0.018-0.277,0.014c-0.064,0.065-0.109,0.092-0.138,0.176c-0.173,0.521,0.718,0.589,0.527-0.067
	C68.309,101.152,68.267,101.116,68.233,101.071z M68.082,102.854c0.207-0.003,0.256-0.298,0.101-0.419
	C67.817,102.314,67.793,102.858,68.082,102.854z M66.876,102.49c-0.265,0.056-0.032,0.467,0.151,0.27
	C67.138,102.64,67.009,102.462,66.876,102.49z M66.851,101.152c-0.106,0.029-0.155,0.114-0.163,0.189
	c-0.032,0.314,0.302,0.362,0.414,0.188C67.226,101.34,67.095,101.086,66.851,101.152z M67.354,103.232
	c-0.043,0.215,0.31,0.263,0.264-0.026C67.555,103.092,67.376,103.12,67.354,103.232z M67.466,104.596
	c0.07-0.001,0.096-0.043,0.076-0.107C67.469,104.41,67.378,104.543,67.466,104.596z M68.572,104.488
	c0.004,0.087,0.024,0.153,0.088,0.148C68.804,104.627,68.708,104.304,68.572,104.488z M69.225,102.381
	c-0.126,0.014-0.193,0.087-0.213,0.162c-0.094,0.354,0.34,0.464,0.452,0.217C69.553,102.562,69.436,102.36,69.225,102.381z
	 M69.79,103.043c-0.064,0.015-0.123,0.065-0.138,0.096c-0.171,0.321,0.359,0.516,0.389,0.135
	C70.052,103.135,69.933,103.01,69.79,103.043z M69.714,104.542c0.004,0.082,0.103,0.137,0.201,0.081
	C70.028,104.397,69.705,104.351,69.714,104.542z M70.38,103.731c-0.09,0.021-0.152,0.072-0.138,0.189
	c0.025,0.203,0.368,0.199,0.327-0.067C70.557,103.778,70.507,103.704,70.38,103.731z M68.61,103.097
	c-0.175,0.055-0.126,0.346,0.025,0.364C68.883,103.493,68.899,103.008,68.61,103.097z M70.368,105.109
	c-0.014,0.056-0.016,0.097,0.025,0.121c0.059,0,0.08-0.039,0.088-0.095C70.444,105.106,70.418,105.094,70.368,105.109z
	 M69.125,103.786c-0.031,0.066-0.038,0.181,0.012,0.229C69.473,104.205,69.426,103.556,69.125,103.786z M68.622,101.72
	c-0.338,0.06-0.255,0.61,0.063,0.581c0.035-0.004,0.134-0.057,0.163-0.082C69.06,102.031,68.89,101.672,68.622,101.72z
	 M69.25,105.23c0.02-0.028,0.055-0.04,0.051-0.095C69.214,105.053,69.149,105.196,69.25,105.23z M74.005,96.104l0.67,0.3
	c0,0-1.177,0.529-2.939,0.789c-1.619,0.238-2.873,0.16-2.873,0.16l0.418-0.513c0.204-0.01,1.438-0.062,2.515-0.229
	C73.047,96.42,73.848,96.122,74.005,96.104z M71.784,95.432c-1.058,0.143-2.491,0.184-2.587,0.188l-0.507,0.632
	c0,0,1.178,0.099,3.057-0.178c1.825-0.271,3.02-0.791,3.02-0.791l-0.646-0.347C73.974,94.964,73.246,95.233,71.784,95.432z
	 M69.941,97.863l0.608,0.818c0,0,0.541,0.131,1.061,0.131c0.46,0,1.05-0.131,1.05-0.131l1.117-1.438c0,0-0.939,0.304-1.999,0.461
	C70.9,97.835,69.941,97.863,69.941,97.863z M74.086,93.733c-0.461,0.103-1.247,0.25-2.55,0.269
	c-1.408,0.019-2.137-0.163-2.541-0.269c0.014,0.203,0.047,0.733,0.047,0.733l-0.483,0.549c0,0,1.069,0.123,3.183-0.128
	c1.783-0.212,2.951-0.658,2.951-0.658l-0.602-0.344C74.092,93.886,74.077,93.862,74.086,93.733z M71.903,92.597
	c0.084,0.163,0.052,0.412,0.024,0.614c-0.027,0.005-0.069,0.018-0.083-0.004c-0.02,0-0.016,0.024-0.033,0.028
	c-0.125-0.002-0.298-0.002-0.445,0.004c-0.013-0.008-0.022-0.02-0.026-0.037c-0.021,0.011-0.06,0.02-0.086,0.014
	c-0.039-0.194-0.072-0.426,0.025-0.576c0.006-0.009,0.026-0.002,0.033-0.01c-0.019-0.148-0.082-0.326,0.101-0.307
	c0.009,0.017-0.039,0.015-0.024,0.053c0.029-0.009,0.043-0.03,0.058-0.053c0.137-0.003,0.306-0.031,0.365,0.071
	c0.024-0.016-0.01-0.039,0.005-0.058c0.164,0.02,0.02,0.18,0.053,0.278C71.886,92.618,71.876,92.588,71.903,92.597z M71.421,92.726
	c-0.003,0.025-0.008,0.051,0.005,0.067C71.43,92.779,71.44,92.733,71.421,92.726z M71.528,92.534
	c-0.015-0.028-0.049-0.038-0.082-0.049c0,0.016,0,0.028-0.015,0.028c0-0.046-0.028-0.062-0.072-0.065
	c0.004,0.035,0.007,0.11,0.028,0.144C71.438,92.575,71.5,92.581,71.528,92.534z M71.591,92.539c-0.009-0.008-0.03-0.015-0.04-0.005
	c0,0.005,0,0.01,0,0.015C71.564,92.545,71.593,92.558,71.591,92.539z M71.772,92.649c-0.042,0.167,0.021,0.371,0,0.558
	C71.788,93.057,71.798,92.813,71.772,92.649z M71.811,92.605c0.013-0.055,0.031-0.129,0.028-0.181
	c-0.051,0.007-0.074,0.042-0.097,0.081c-0.02-0.005-0.037-0.012-0.065-0.01c-0.014,0.016-0.04,0.018-0.039,0.048
	c0.025,0.001,0.029-0.016,0.058-0.01c0.001,0.015-0.011,0.015-0.009,0.028c0.011,0.015,0.047,0.021,0.056,0
	C71.753,92.59,71.77,92.609,71.811,92.605z M71.839,93.124c-0.007,0.007-0.003,0.024-0.004,0.039
	C71.852,93.168,71.845,93.127,71.839,93.124z M76.713,86.312c0,0.683-0.131,1.334-0.368,1.93c-0.384,1.066-1.738,3.081-1.839,3.72
	c-0.087,0.552-0.169,1.161-0.527,1.245c-0.707,0.153-1.234,0.236-2.38,0.236c-1.4,0-2.23-0.168-2.474-0.236
	c-0.435-0.092-0.344-0.762-0.416-1.245c-0.108-0.723-1.571-2.806-1.893-3.882l0,0c-0.199-0.551-0.306-1.146-0.306-1.768
	c0-2.852,2.284-5.162,5.102-5.162C74.43,81.15,76.713,83.461,76.713,86.312z M70.873,91.045c0.001-0.013,0.013-0.021,0.011-0.037
	c-0.379-0.53-0.69-1.187-1.187-1.667c0.29,0.516,0.851,1.075,1.1,1.684C70.829,91.024,70.84,91.046,70.873,91.045z M70.973,91.387
	c0.021,0.011,0.04,0.023,0.063,0.03c0.008-0.011,0.008-0.028,0.018-0.036c-0.053-0.069-0.119-0.172-0.106-0.27
	C70.774,91.107,71.008,91.274,70.973,91.387z M72.017,92.103c-0.069,0.019-0.074,0.143-0.114,0.206
	c-0.123-0.159-0.499-0.148-0.634-0.01c-0.028-0.067-0.036-0.153-0.101-0.182c-0.02,0.091,0.022,0.145,0.03,0.229
	c0.001,0.012,0.03-0.001,0.028,0.015c-0.003,0.047,0.003,0.087,0.005,0.129c0.029-0.005,0.041,0.045,0.02,0.059
	c-0.008-0.015-0.013-0.035-0.025-0.043c-0.092,0.185-0.006,0.492-0.024,0.696c-0.013-0.003-0.026-0.004-0.04-0.006
	c0.006,0.005,0.012,0.011,0.017,0.015c0.009,0.012,0.017,0.023,0.024,0.034c0.121-0.002,0.241,0.005,0.361,0.02
	c0.096-0.008,0.193,0.002,0.288-0.004c0.017,0,0.034-0.002,0.052-0.004c0.003,0,0.005,0,0.007-0.001
	c0.001,0,0.005-0.001,0.007-0.001c0.02-0.003,0.038-0.007,0.057-0.014c0,0,0.001-0.001,0.002-0.001v-0.001
	c0.005-0.023,0.014-0.045,0.026-0.062c-0.007,0-0.017,0-0.024,0C72.027,92.805,71.913,92.435,72.017,92.103z M72.286,91.152
	c0-0.003-0.014-0.024-0.021-0.023c-0.007,0.1-0.062,0.152-0.153,0.301c-0.009,0.018-0.03,0.046-0.038,0.065
	c0.019,0.118-0.117,0.234-0.127,0.341c-0.14,0.014-0.14-0.12-0.172-0.228c-0.047,0.108-0.301,0.085-0.384,0.03
	c-0.046,0.065-0.043,0.169-0.103,0.218c-0.004-0.031-0.055-0.015-0.069-0.021c-0.028-0.121-0.104-0.193-0.117-0.337
	c-0.022-0.008-0.035-0.028-0.068-0.024c-0.005,0.007-0.003,0.021-0.012,0.024c0.073,0.124,0.221,0.371,0.082,0.445
	c0.022,0.029,0.016,0.094,0.04,0.119c0.005-0.04-0.023-0.107,0.01-0.125c0.22,0.021,0.61-0.037,0.861,0.021
	c0.009,0.031,0.017,0.061,0.012,0.104c0.079-0.169-0.121-0.267,0.056-0.43C72.083,91.513,72.331,91.263,72.286,91.152z
	 M73.483,89.383c-0.553,0.483-0.774,1.144-1.159,1.651c0.001,0.024,0.009,0.045,0.023,0.062c0.296-0.463,0.585-0.966,0.919-1.464
	c0.027-0.017,0.071-0.02,0.098-0.037C73.379,89.514,73.547,89.459,73.483,89.383z M74.869,85.604c0-0.4-0.077-0.761-0.232-1.082
	c-0.156-0.32-0.39-0.604-0.699-0.849c-0.251-0.197-0.552-0.35-0.901-0.459c-0.35-0.11-0.721-0.165-1.112-0.165
	c-0.595,0-1.135,0.111-1.623,0.335c-0.485,0.224-0.902,0.551-1.249,0.981c-0.237,0.297-0.417,0.625-0.54,0.982
	c-0.123,0.355-0.185,0.732-0.185,1.129c0,0.48,0.091,0.911,0.271,1.289c0.181,0.379,0.453,0.71,0.817,0.993
	c0.287,0.227,0.619,0.396,0.992,0.513c0.375,0.114,0.788,0.173,1.24,0.173c0.438,0,0.856-0.07,1.255-0.205
	c0.398-0.137,0.772-0.343,1.124-0.614l-0.235-0.356c-0.316,0.223-0.658,0.395-1.031,0.513c-0.371,0.117-0.752,0.176-1.141,0.176
	c-0.823,0-1.48-0.226-1.973-0.675c-0.493-0.448-0.74-1.048-0.74-1.798c0-0.521,0.115-0.996,0.346-1.424s0.56-0.777,0.985-1.049
	c0.227-0.151,0.481-0.264,0.759-0.339c0.278-0.075,0.579-0.113,0.905-0.113c0.711,0,1.287,0.191,1.725,0.571
	c0.44,0.38,0.661,0.873,0.661,1.481c0,0.273-0.045,0.532-0.135,0.776c-0.089,0.243-0.218,0.457-0.388,0.64
	c-0.117,0.131-0.238,0.23-0.372,0.305c-0.132,0.073-0.26,0.11-0.381,0.11c-0.1,0-0.183-0.028-0.244-0.083
	c-0.063-0.055-0.094-0.129-0.094-0.22c0-0.021,0.007-0.065,0.021-0.134c0.001-0.017,0.003-0.031,0.006-0.043l0.523-2.113h-0.544
	l-0.194,0.386c-0.093-0.175-0.208-0.304-0.35-0.387c-0.141-0.083-0.316-0.124-0.526-0.124c-0.458,0-0.851,0.194-1.174,0.583
	c-0.326,0.39-0.488,0.865-0.488,1.424c0,0.393,0.095,0.692,0.284,0.9c0.189,0.208,0.464,0.312,0.822,0.312
	c0.242,0,0.449-0.049,0.621-0.146c0.172-0.097,0.322-0.25,0.452-0.46v0.015c0,0.205,0.061,0.355,0.181,0.454
	c0.119,0.097,0.305,0.145,0.554,0.145c0.205,0,0.402-0.034,0.593-0.103c0.19-0.068,0.367-0.169,0.529-0.301
	c0.282-0.232,0.5-0.519,0.652-0.854C74.792,86.358,74.869,85.995,74.869,85.604z M71.688,85.177c-0.298,0-0.555,0.154-0.768,0.464
	c-0.214,0.309-0.32,0.681-0.32,1.118c0,0.236,0.054,0.417,0.16,0.545c0.107,0.127,0.259,0.19,0.454,0.19
	c0.211,0,0.404-0.079,0.577-0.239c0.173-0.16,0.291-0.366,0.352-0.622l0.194-0.821c-0.033-0.203-0.105-0.358-0.219-0.469
	C72.009,85.231,71.864,85.177,71.688,85.177z M119.323,74.914h-94.88l-0.225-1.432h95.328l0.009-0.052L119.323,74.914z
	 M28.744,80.385l-5.149-4.626l-2.159-14.086H8.123l5.393,9.325l-5.411,9.387H28.744z M122.57,54.175l-0.02,0.131l0.225-1.431H20.991
	l0.202,1.29L122.57,54.175z M52.413,60.514H42.128v6.858h10.597c3.239-0.009,4.077-0.733,4.077-3.524
	C56.802,60.514,55.872,60.514,52.413,60.514z M119.601,73.146H24.166l-2.918-18.637H122.52L119.601,73.146z M59.179,63.848
	c0-4.144-1.07-5.156-5.451-5.156H39.387v10.501h14.029C57.833,69.193,59.179,67.944,59.179,63.848z M80.857,67.372H66.853v-2.669
	h12.392v-1.774H66.853v-2.415H80.74v-1.822H64.163v10.501h16.695V67.372z M104.773,58.755h-2.689v8.212l-11.557-8.212h-4.572v10.438
	h2.791v-8.566l12.181,8.566h3.847V58.755z M7.908,80.729l0.067-0.118l-0.821,1.425h23.429l-1.446-1.299L7.908,80.729z
	 M21.383,61.328l-0.204-1.332H7.153l0.77,1.332H21.383z M136.011,80.729h-21.379l0.394-0.357l20.791,0.013l-5.427-9.413l5.379-9.299
	h-13.312l0.059-0.345h13.452l0.785-1.358l-14.016,0.028l-2.651,15.789L113.2,82.01h23.553l-0.906-1.572L136.011,80.729z
	 M84.407,90.599l8.078-2.108l-1.655-1.717l4.827-3.03l-8.11,2.197l1.651,1.733L84.407,90.599z M52.521,86.524l-1.651,1.734
	l8.11,2.197l-4.828-3.031l1.655-1.717L47.73,83.6L52.521,86.524z M51.388,46.876l-0.646-9.447
	c-0.309-4.515-0.576-8.992-0.843-13.507l-1.816,22.954h-2.544l-5.525-22.954c0.47,4.515,0.935,8.992,1.363,13.507l0.896,9.447
	h-2.658L36.41,15.651h4.226l5.598,24.396l1.61-24.396h4.35l1.891,31.225H51.388z M57.547,46.876l-1.576-31.225h9.031l0.077,2.921
	h-5.836l0.461,10.965h3.989l0.09,2.883h-3.958l0.489,11.61h5.629l0.074,2.845H57.547z M76.515,46.876
	c-0.633-4.78-1.322-9.485-2.228-14.189c-0.238,0.038-0.475,0.038-0.713,0.038h-1.621l0.117,14.152h-2.886l-0.52-31.225h5.178
	c3.936,0,5.904,1.518,5.852,5.615l-0.081,6.222c-0.029,2.277-0.843,3.794-2.476,4.591c1.024,4.933,1.825,9.979,2.528,14.797H76.515z
	 M76.55,21.646c0.01-2.2-0.52-3.073-2.698-3.073h-2.015l0.095,11.535h1.992c1.872,0,2.593-0.797,2.601-2.58L76.55,21.646z
	 M89.946,35.418h2.707l-0.321,6.45c-0.183,3.643-1.672,5.35-4.82,5.35c-3.263,0-4.933-1.707-4.854-5.274l0.472-21.247
	c0.08-3.604,1.985-5.388,5.552-5.388c3.358,0,4.891,1.708,4.711,5.312l-0.276,5.539h-2.779l0.233-5.501
	c0.07-1.669-0.433-2.428-1.996-2.428c-1.522,0-2.246,0.797-2.296,2.428l-0.652,21.247c-0.052,1.67,0.612,2.466,1.99,2.466
	c1.415,0,1.984-0.796,2.055-2.466L89.946,35.418z M102.278,46.876l1.15-14.456h-4.195l-0.98,14.456h-2.887l1.857-31.225h3.147
	l-0.944,13.924h4.228l1.108-13.924h3.148l-2.746,31.225H102.278z"/>
</svg>
