<?xml version="1.0" encoding="utf-8"?>
<!-- Generator: Adobe Illustrator 18.0.0, SVG Export Plug-In . SVG Version: 6.00 Build 0)  -->
<!DOCTYPE svg PUBLIC "-//W3C//DTD SVG 1.1//EN" "http://www.w3.org/Graphics/SVG/1.1/DTD/svg11.dtd">
<svg version="1.1" id="Layer_1" xmlns="http://www.w3.org/2000/svg" xmlns:xlink="http://www.w3.org/1999/xlink" x="0px" y="0px"
	 viewBox="0 0 612 792" style="enable-background:new 0 0 612 792;" xml:space="preserve">
<style type="text/css">
	.st0{fill:#FFFFFF;}
	.st1{fill-rule:evenodd;clip-rule:evenodd;fill:#FFFFFF;}
</style>
<g>
	<g>
		<g>
			<path class="st0" d="M4.7,484.3H9v11.5c0,1.8,0.1,3,0.2,3.5c0.2,0.9,0.6,1.6,1.3,2.1s1.6,0.8,2.8,0.8c1.2,0,2.1-0.2,2.7-0.7
				c0.6-0.5,1-1.1,1.1-1.8c0.1-0.7,0.2-1.9,0.2-3.6v-11.7h4.3v11.1c0,2.5-0.1,4.3-0.3,5.4c-0.2,1.1-0.7,1.9-1.3,2.7
				c-0.6,0.7-1.4,1.3-2.5,1.7c-1,0.4-2.4,0.6-4.1,0.6c-2,0-3.6-0.2-4.6-0.7c-1-0.5-1.9-1.1-2.5-1.8c-0.6-0.7-1-1.5-1.2-2.4
				c-0.3-1.2-0.4-3-0.4-5.4V484.3z"/>
			<path class="st0" d="M35.1,505.5v-21.2h4.1l8.7,14.2v-14.2h4v21.2h-4.3L39,491.6v13.9H35.1z"/>
			<path class="st0" d="M65.4,505.5v-21.2h4.3v21.2H65.4z"/>
			<path class="st0" d="M90.7,505.5l-7.6-21.2h4.6l5.4,15.7l5.2-15.7h4.5l-7.6,21.2H90.7z"/>
			<path class="st0" d="M116.3,505.5v-21.2H132v3.6h-11.4v4.7h10.6v3.6h-10.6v5.8h11.8v3.6H116.3z"/>
			<path class="st0" d="M145.9,505.5v-21.2h9c2.3,0,3.9,0.2,4.9,0.6c1,0.4,1.8,1.1,2.5,2c0.6,1,0.9,2.1,0.9,3.3
				c0,1.6-0.5,2.9-1.4,3.9c-0.9,1-2.3,1.7-4.2,2c0.9,0.5,1.7,1.1,2.3,1.8c0.6,0.6,1.4,1.8,2.4,3.4l2.6,4.1h-5.1l-3.1-4.6
				c-1.1-1.6-1.9-2.7-2.3-3.1c-0.4-0.4-0.8-0.7-1.3-0.9c-0.5-0.2-1.2-0.2-2.2-0.2h-0.9v8.8H145.9z M150.2,493.2h3.2
				c2,0,3.3-0.1,3.8-0.3c0.5-0.2,0.9-0.5,1.2-0.9c0.3-0.4,0.4-1,0.4-1.6c0-0.7-0.2-1.3-0.6-1.7c-0.4-0.4-0.9-0.7-1.6-0.8
				c-0.3,0-1.4-0.1-3.1-0.1h-3.3V493.2z"/>
			<path class="st0" d="M178.4,498.6l4.2-0.4c0.2,1.4,0.8,2.4,1.5,3.1c0.8,0.7,1.8,1,3.1,1c1.4,0,2.4-0.3,3.1-0.9c0.7-0.6,1-1.3,1-2
				c0-0.5-0.1-0.9-0.4-1.3c-0.3-0.4-0.8-0.7-1.5-0.9c-0.5-0.2-1.6-0.5-3.4-0.9c-2.3-0.6-3.9-1.3-4.8-2.1c-1.3-1.2-1.9-2.6-1.9-4.3
				c0-1.1,0.3-2.1,0.9-3c0.6-0.9,1.5-1.7,2.6-2.1c1.1-0.5,2.5-0.7,4.2-0.7c2.7,0,4.7,0.6,6,1.8c1.3,1.2,2,2.7,2.1,4.7l-4.3,0.2
				c-0.2-1.1-0.6-1.9-1.2-2.4c-0.6-0.5-1.5-0.7-2.7-0.7c-1.2,0-2.2,0.3-2.9,0.8c-0.5,0.3-0.7,0.8-0.7,1.3c0,0.5,0.2,0.9,0.6,1.3
				c0.5,0.5,1.8,0.9,3.9,1.4c2.1,0.5,3.6,1,4.6,1.5c1,0.5,1.8,1.2,2.3,2.1c0.6,0.9,0.8,2,0.8,3.4c0,1.2-0.3,2.4-1,3.4
				c-0.7,1.1-1.6,1.8-2.9,2.4c-1.2,0.5-2.8,0.8-4.6,0.8c-2.7,0-4.7-0.6-6.2-1.9C179.5,502.8,178.7,501,178.4,498.6z"/>
			<path class="st0" d="M230.3,505.5h-4.6l-1.8-4.8h-8.5l-1.8,4.8h-4.5l8.2-21.2h4.6L230.3,505.5z M222.5,497.1l-2.9-7.9l-2.9,7.9
				H222.5z"/>
			<path class="st0" d="M243.8,505.5v-21h4.3v17.4h10.6v3.6H243.8z"/>
		</g>
		<g>
			<path class="st0" d="M291.8,505.5v-21.2h6.4l3.8,14.5l3.8-14.5h6.4v21.2h-4l0-16.7l-4.2,16.7h-4.1l-4.2-16.7l0,16.7H291.8z"/>
			<path class="st0" d="M327.1,484.3h4.3v11.5c0,1.8,0.1,3,0.2,3.5c0.2,0.9,0.6,1.6,1.3,2.1c0.7,0.5,1.6,0.8,2.8,0.8
				c1.2,0,2.1-0.2,2.7-0.7c0.6-0.5,1-1.1,1.1-1.8c0.1-0.7,0.2-1.9,0.2-3.6v-11.7h4.3v11.1c0,2.5-0.1,4.3-0.3,5.4
				c-0.2,1.1-0.7,1.9-1.3,2.7c-0.6,0.7-1.4,1.3-2.5,1.7c-1,0.4-2.4,0.6-4.1,0.6c-2,0-3.6-0.2-4.6-0.7c-1-0.5-1.9-1.1-2.5-1.8
				c-0.6-0.7-1-1.5-1.2-2.4c-0.3-1.2-0.4-3-0.4-5.4V484.3z"/>
			<path class="st0" d="M358.8,498.6l4.2-0.4c0.3,1.4,0.8,2.4,1.5,3.1c0.8,0.7,1.8,1,3.1,1c1.4,0,2.4-0.3,3.1-0.9c0.7-0.6,1-1.3,1-2
				c0-0.5-0.1-0.9-0.4-1.3c-0.3-0.4-0.8-0.7-1.5-0.9c-0.5-0.2-1.6-0.5-3.4-0.9c-2.3-0.6-3.9-1.3-4.8-2.1c-1.3-1.2-1.9-2.6-1.9-4.3
				c0-1.1,0.3-2.1,0.9-3c0.6-0.9,1.5-1.7,2.6-2.1c1.1-0.5,2.5-0.7,4.2-0.7c2.7,0,4.7,0.6,6,1.8c1.3,1.2,2,2.7,2.1,4.7l-4.3,0.2
				c-0.2-1.1-0.6-1.9-1.2-2.4c-0.6-0.5-1.5-0.7-2.7-0.7c-1.2,0-2.2,0.3-2.9,0.8c-0.5,0.3-0.7,0.8-0.7,1.3c0,0.5,0.2,0.9,0.6,1.3
				c0.5,0.5,1.8,0.9,3.9,1.4c2.1,0.5,3.6,1,4.6,1.5c1,0.5,1.8,1.2,2.3,2.1c0.6,0.9,0.8,2,0.8,3.4c0,1.2-0.3,2.4-1,3.4
				c-0.7,1.1-1.6,1.8-2.9,2.4c-1.2,0.5-2.8,0.8-4.6,0.8c-2.7,0-4.7-0.6-6.2-1.9C359.9,502.8,359,501,358.8,498.6z"/>
			<path class="st0" d="M390.8,505.5v-21.2h4.3v21.2H390.8z"/>
			<path class="st0" d="M424.2,497.7l4.1,1.3c-0.6,2.3-1.7,4-3.2,5.2c-1.5,1.1-3.3,1.7-5.6,1.7c-2.8,0-5.1-1-6.9-2.9
				c-1.8-1.9-2.7-4.5-2.7-7.9c0-3.5,0.9-6.3,2.7-8.2c1.8-1.9,4.2-2.9,7.2-2.9c2.6,0,4.7,0.8,6.3,2.3c1,0.9,1.7,2.2,2.2,3.9l-4.2,1
				c-0.2-1.1-0.8-2-1.6-2.6c-0.8-0.6-1.8-1-2.9-1c-1.6,0-2.8,0.6-3.8,1.7c-1,1.1-1.5,3-1.5,5.5c0,2.7,0.5,4.6,1.4,5.7
				c1,1.1,2.2,1.7,3.7,1.7c1.1,0,2.1-0.4,2.9-1.1C423.3,500.4,423.8,499.2,424.2,497.7z"/>
		</g>
		<g>
			<path class="st0" d="M467.3,497.7v-3.6h9.2v8.4c-0.9,0.9-2.2,1.6-3.9,2.3c-1.7,0.7-3.4,1-5.2,1c-2.2,0-4.1-0.5-5.8-1.4
				c-1.6-0.9-2.9-2.3-3.7-4c-0.8-1.7-1.2-3.6-1.2-5.6c0-2.2,0.5-4.2,1.4-5.9c0.9-1.7,2.3-3,4.1-3.9c1.4-0.7,3-1.1,5.1-1.1
				c2.6,0,4.7,0.6,6.2,1.7c1.5,1.1,2.4,2.6,2.9,4.6L472,491c-0.3-1-0.9-1.9-1.7-2.5c-0.8-0.6-1.8-0.9-3.1-0.9
				c-1.9,0-3.3,0.6-4.4,1.8c-1.1,1.2-1.7,2.9-1.7,5.3c0,2.5,0.6,4.4,1.7,5.7c1.1,1.3,2.6,1.9,4.4,1.9c0.9,0,1.8-0.2,2.7-0.5
				c0.9-0.3,1.7-0.8,2.3-1.3v-2.7H467.3z"/>
			<path class="st0" d="M490.5,505.5v-21.2h9c2.3,0,3.9,0.2,4.9,0.6c1,0.4,1.8,1.1,2.5,2c0.6,1,0.9,2.1,0.9,3.3
				c0,1.6-0.5,2.9-1.4,3.9c-0.9,1-2.3,1.7-4.2,2c0.9,0.5,1.7,1.1,2.3,1.8c0.6,0.6,1.4,1.8,2.4,3.4l2.6,4.1h-5.1l-3.1-4.6
				c-1.1-1.6-1.9-2.7-2.3-3.1c-0.4-0.4-0.8-0.7-1.3-0.9c-0.5-0.2-1.2-0.2-2.2-0.2h-0.9v8.8H490.5z M494.7,493.2h3.2
				c2,0,3.3-0.1,3.8-0.3c0.5-0.2,0.9-0.5,1.2-0.9c0.3-0.4,0.4-1,0.4-1.6c0-0.7-0.2-1.3-0.6-1.7c-0.4-0.4-0.9-0.7-1.6-0.8
				c-0.3,0-1.4-0.1-3.1-0.1h-3.3V493.2z"/>
			<path class="st0" d="M523.4,495c0-2.2,0.3-4,1-5.4c0.5-1.1,1.1-2,2-2.9c0.8-0.9,1.7-1.5,2.7-1.9c1.3-0.6,2.8-0.8,4.6-0.8
				c3.1,0,5.6,1,7.5,2.9c1.9,1.9,2.8,4.6,2.8,8.1c0,3.4-0.9,6.1-2.8,8c-1.9,1.9-4.3,2.9-7.5,2.9c-3.2,0-5.7-1-7.5-2.9
				C524.3,501,523.4,498.4,523.4,495z M527.8,494.9c0,2.4,0.6,4.2,1.7,5.5c1.1,1.2,2.5,1.9,4.2,1.9c1.7,0,3.1-0.6,4.2-1.8
				c1.1-1.2,1.6-3.1,1.6-5.5c0-2.4-0.5-4.2-1.6-5.4c-1.1-1.2-2.5-1.8-4.2-1.8c-1.8,0-3.2,0.6-4.3,1.8
				C528.4,490.6,527.8,492.4,527.8,494.9z"/>
			<path class="st0" d="M557.9,484.3h4.3v11.5c0,1.8,0.1,3,0.2,3.5c0.2,0.9,0.6,1.6,1.3,2.1s1.6,0.8,2.8,0.8c1.2,0,2.1-0.2,2.7-0.7
				c0.6-0.5,1-1.1,1.1-1.8c0.1-0.7,0.2-1.9,0.2-3.6v-11.7h4.3v11.1c0,2.5-0.1,4.3-0.3,5.4c-0.2,1.1-0.7,1.9-1.3,2.7
				c-0.6,0.7-1.4,1.3-2.5,1.7c-1,0.4-2.4,0.6-4.1,0.6c-2,0-3.6-0.2-4.6-0.7c-1-0.5-1.9-1.1-2.5-1.8c-0.6-0.7-1-1.5-1.2-2.4
				c-0.3-1.2-0.4-3-0.4-5.4V484.3z"/>
			<path class="st0" d="M588.7,505.5v-21.2h6.9c2.6,0,4.3,0.1,5.1,0.3c1.2,0.3,2.2,1,3,2.1c0.8,1.1,1.2,2.4,1.2,4.1
				c0,1.3-0.2,2.4-0.7,3.3c-0.5,0.9-1.1,1.6-1.8,2.1c-0.7,0.5-1.5,0.8-2.2,1c-1,0.2-2.5,0.3-4.4,0.3h-2.8v8H588.7z M592.9,487.9v6
				h2.3c1.7,0,2.8-0.1,3.4-0.3c0.6-0.2,1-0.6,1.3-1c0.3-0.5,0.5-1,0.5-1.6c0-0.8-0.2-1.4-0.7-1.9c-0.4-0.5-1-0.8-1.7-0.9
				c-0.5-0.1-1.5-0.1-3.1-0.1H592.9z"/>
		</g>
	</g>
	<g>
		<path class="st1" d="M302.9,336.1c0.6-0.7,1.6-0.3,2.3-0.4c1.9,0.3,0.9-0.4,2.5,1.5c1.5,1.1,1.3-0.4,3.2,0.8
			c1.9,1.8,1.9,1.2,4.3,1.5v0.2l-0.4,0.3l-0.4,0.1l-0.4,0.2l-0.4,0.1l-0.2,0.1c-0.9-0.6-2.1-0.6-3.1-0.2V340l-0.1-0.3l-1-1l-0.4-0.2
			l-0.4-0.1h-0.4l-0.4-0.1l-0.5-0.2l-0.6-0.4l-0.9-0.7l-0.7-0.4l-0.6-0.3h-1.1l-0.4,0.1h-0.3v-0.2L302.9,336.1"/>
		<path class="st1" d="M358.5,392.6l-0.3-0.7l0.1-0.7l0.2-0.5l0.1-0.2h-46.4l5.1,4.5l0.4,0.2l0.4,0.4l0.4,0.3l0.4,0.4
			c1.2,1,1.6,2.6,2,4.1l-0.1,0.5l-0.3,0.3l-0.3,0.4l-0.4,0.7l-0.2,1.2l-0.2,2c0,1.4,0.2,4-1.3,4.9l-0.2-0.2h-0.1
			c-0.1,3.9-1.5,7.7-3.7,10.9c-1.3,1.2-1.5,2.7-0.5,4.2c-0.8,0.5-2,5.2-1.9,5.9l0.2,0.6l0.3,0.7l0.4,0.5l0.5,0.4l0.7,0.4l0.6,0.1
			l0.6-0.1l0.3-0.2l-0.1-0.2l-0.4-0.3l-0.3-0.3l-0.2-0.4l0.3-0.4l0.7-0.5l1.4-0.7l0.8-0.7l0.2-0.8l-0.4-0.6l-0.3-0.2h0.2l0.3-0.2
			l0.7-0.2l0.6-0.4l0.8-0.6l0.8-0.9l0.8-1.2l0.8-1.6l1,0.1l0.8-0.2l0.5-0.3l0.6-0.4l0.8-0.5l1.1-0.5l1.5-0.4l2.1-0.6l0.6-0.2
			l0.4-0.2l0.4-0.3l0.3-0.2l0.1-0.4l0.1-0.3c-0.4-2.4,0.5-1.5,2.9-2.9c4.6-3,6.9-5.3,9.7-9.9l0.4-0.8l0.5-0.7l0.7-0.6l1.1-0.6
			l1.2-0.6l1-0.4h1.3l0.5,0.2h0.4l0.4-0.3l0.4-0.4l0.9-1.2l0.7-1c0.9-1.8,0.8-3.1,2.3-4.9l0.3-0.3l0.3-0.4l0.3-0.3l0.2-0.4l0.3-0.4
			v-0.4L358.5,392.6z"/>
		<polygon class="st1" points="326.1,343 326,343.3 325.7,343.6 325,343.6 324.8,342.6 325.2,342.6 325.4,342.8 325.7,342.8 		"/>
		<path class="st1" d="M322.3,342.2c-1.7,0.3-3.5,0.2-5,1.2c-0.3-0.9-0.9-0.7-1.6-0.7l0.4-0.4l0.1-0.4v-1.3
			C318.7,339.3,320.6,341.7,322.3,342.2z"/>
		<path class="st1" d="M379.8,394.3c-26,77.9-131.2,79.9-157,0.7C250.3,465.5,352.9,465.1,379.8,394.3z"/>
		<path class="st1" d="M380,344.4c-11.1-35.4-41.3-59.6-78.9-59.6c-39.2,0-66.5,22.2-78.5,58.8c9.8-25.6,29.5-41.8,51.9-48.9
			c-0.4,0.8-0.7,1.5-0.7,1.5c-0.4,0.8-0.7,1.8-1.4,2.4c-1.9,0.9-2.8,4-3.7,5.8l-0.4,0.7v0.4l0.1,0.1v0.8c-0.8,2.6-3.5,4.6-4.8,7
			l-0.7,1.5l-0.4,1.3l-0.4,1.3l-0.4,1l-0.1,0.7l-0.1,0.2c1.6,3.1,2.1,6.7,1.5,10.2v0.1l0.1,0.1l0.3,0.2l0.4,0.4l0.4,0.7l0.4,0.7
			l0.3,0.9l0.4,0.9l0.4,1l0.3,0.9l0.4,0.4l0.2,0.1c1.9-2.9-1.9-7.8-1.2-11.3h0.2l0.4-0.4l0.4-0.1c0.4,5.1,3.1,9.7,5.7,14l-0.3,0.4
			l-0.5,0.8v0.8l1,0.3l-0.6,1.4h0.6l0.4,0.1h0.4l0.4,0.2l0.5,0.2l0.4,0.4l0.4,0.3l0.7,0.7l1.1,0.8l0.4,0.1l0.4,0.1h16.4
			c0.5-2.1,1-4.4,2.3-6.2h-0.1l-0.4-0.2h-1.6l-0.4-0.1l-0.4-0.3l-0.3-0.3h-0.4c-0.8,0.4-1.5,2.8-2,3.4c-0.5,1.8-4,1.7-5.5,1.9
			c-1.3,0.3-1-0.1-2-1.1c-0.5-0.9-1-1.7-1.5-2.6c-2.7-5.9,3.1-14.9,10-11.7c3.7-2.9,4.7,0.2,7.8-1.2l1.3-0.3l0.9,0.3l0.5,0.8
			l0.4,1.2l0.4,1.4l0.5,1.3l0.8,1.2l1.2,0.8l0.4-1.7l-0.3-1.5l-0.4-1.5l-1.1-2.5l-0.3-1.2l0.3-1l1-0.9c1.6-0.9,4.8-2.7,5.5-4.5
			l0.5-1.1l0.4-1.1l0.7-1.6l0.4-0.6l0.4-0.5l0.4-0.4l0.4-0.2l0.8-0.4l0.6-0.5l0.4-0.5l0.3-0.6l0.1-0.5v-0.4l-0.1-0.4v-0.1h0.2
			l0.4,0.1l0.4,0.1h0.7l0.8-0.1l0.8-0.3l1-0.4l0.8-0.7l-0.6-0.3l-0.8-0.4l-0.6-0.4l-0.5-0.4l-0.5-0.4l-0.4-0.5v-1.2l0.5-0.5h0.8
			l1.2,0.1l1.2,0.4l1.2,0.3h1.2l1.1-0.4l0.8-1c-3.6-1.4-5.5-3.8-8.7-5.3l-0.5,0.5l-0.4,0.3h-1l-0.5-0.2l-0.4-0.3l-0.6-0.4l-0.6-0.5
			c-2.6-2.3-3.5,0-5.2-1.8l-0.4,1v1.3l0.4,0.4l0.3,0.3l0.5,0.2l0.4,0.2l0.4,0.3l0.4,0.5v0.2l-0.2-0.1l-0.5-0.1l-0.5,0.1l-0.5,0.4
			l-0.3,0.8v1.7l-0.1,0.5l-0.2,0.3l-0.4,0.3l-0.4-0.1l-0.5-0.2c-2.4-1.5-0.7-2-3.3-3c-1.8-1-5.3-0.3-6.8-2l0.3-0.4l0.4-0.5l0.6-0.4
			l0.6-0.6l0.9-0.5l1-0.7l1.1-0.7l1.2-0.5c4.1-2.2,9.5-2.7,14.1-2c0,0-0.4-0.2-0.9-0.4C342.3,295.7,368.4,313.3,380,344.4z"/>
		<path class="st1" d="M159.3,351.7h-13l2,2.4v18.3l-0.4,1.2l-0.5,0.9c-1.2,1.6-3.5,2-5.3,2l-1.3-0.1l-1.2-0.3l-1.2-0.4l-0.9-0.6
			l-0.7-0.7l-0.5-0.9l-0.4-1.2v-18.3l2-2.4h-13l2,2.4c1.2,16.9-5.5,28.7,15.3,28.9c21-0.2,14-11.8,15.3-28.9L159.3,351.7z"/>
		<polygon class="st1" points="204.2,351.7 193.3,351.7 195.2,354.1 195.2,369.7 179.6,351.7 169.8,351.7 171.8,354.1 171.8,380.2 
			169.8,382.4 180.7,382.4 178.8,380.2 178.8,364.5 195.4,382.4 202.2,382.4 202.2,354.1 		"/>
		<polygon class="st1" points="229.3,382.4 227.4,380.2 227.4,354.1 229.3,351.7 216.3,351.7 218.3,354.1 218.3,380.2 216.3,382.4 
					"/>
		<polygon class="st1" points="272.3,351.7 261.3,351.7 263.3,354.1 255.5,371.1 248.1,354.1 250,351.7 237.1,351.7 251.4,382.4 
			257.8,382.4 		"/>
		<polygon class="st1" points="308.9,382.4 308.9,374.2 306.5,376.1 290.8,376.1 290.8,370.2 300.7,370.2 303,372.2 303,362.2 
			300.7,364.2 290.8,364.2 290.8,358.2 306.5,358.2 308.9,360.2 308.9,351.7 279.9,351.7 281.9,354.1 281.9,380.2 279.9,382.4 		"/>
		<path class="st1" d="M352.8,382.4l-8.3-12.1c4.1-1.6,7-4.6,6.9-9.2l-0.1-2l-0.5-1.7l-0.8-1.6l-1.2-1.4l-1.7-1.1l-2-0.9l-2.5-0.5
			l-3-0.3h-19.2l2,2.4v26.1l-2,2.2h12.9l-2-2.2v-8.6h3.9l5.9,8.6l-2,2.2H352.8z M331.3,365.9v-7.6h7.7l0.7,0.3l0.7,0.2
			c1.3,0.6,1.7,1.7,1.8,3.1C341.8,366.9,334.5,366,331.3,365.9z"/>
		<path class="st1" d="M391.7,373.6c-0.1-6.8-7.2-8.7-12.5-10.3c-1.9-0.2-8.7-2.6-4.9-5.1c3.4-1.9,12.6,1.3,15.8,2.9v-10.4l-2.5,2.4
			c-6.3-2.5-15-3.5-20.8,0.6c-1.8,1.5-3.2,3.6-3,6c-0.4,5.8,4.9,8.7,9.7,10.3l1.6,0.5l1.6,0.4l1.4,0.4l1.3,0.4l1,0.4l0.8,0.6
			l0.6,0.6l0.2,1c0,1.7-2.4,2.3-3.8,2.3c-5-0.3-10-1.8-14.3-4.5v11.4l2.5-2.7C374.3,383.9,391.4,386.2,391.7,373.6z"/>
		<path class="st1" d="M437.5,382.4l-15.1-30.7H412l1.1,2.4l-13.6,28.3h11.3l-1.9-2.2l1.6-3.3H425l1.5,3.3l-2,2.2H437.5z
			 M412.6,371.4l5.1-11l5.1,11H412.6z"/>
		<polygon class="st1" points="473.9,382.4 473.9,374.2 471.6,376.1 456.7,376.1 456.7,354.1 458.7,351.7 445.8,351.7 447.8,354.1 
			447.8,380.2 445.8,382.4 		"/>
		<path class="st1" d="M471.1,354.5l-0.3-0.3l-0.4-0.2L470,354h-0.4l-0.8,0.1l-0.7,0.4l-0.4,0.8l-0.2,0.9l0.2,0.9l0.4,0.6l0.7,0.5
			l0.8,0.2l0.4-0.2h0.4l0.4-0.2l0.3-0.3v-0.5l-0.3,0.3l-0.4,0.3l-0.4,0.1l-0.4,0.1l-0.7-0.2l-0.5-0.4l-0.5-1.2c0.4-2,2-2.4,3.3-1.2
			V354.5z"/>
		<path class="st1" d="M465.3,356.1c0,5.5,8.3,5.9,8.5,0C473.5,350.3,465.3,350.7,465.3,356.1z M465.6,356.1c0.2-5,7.6-5,7.7,0
			C473.3,361.2,465.8,361.2,465.6,356.1z"/>
	</g>
</g>
</svg>
